<svg width="54" height="54" viewBox="0 0 54 54" fill="none" xmlns="http://www.w3.org/2000/svg">
<g filter="url(#filter0_i_18107_23958)">
<rect x="3" y="3" width="48" height="48" rx="16" fill="url(#paint0_linear_18107_23958)"/>
</g>
<g filter="url(#filter1_f_18107_23958)">
<circle cx="27" cy="27" r="11" fill="#FFBF2B" fill-opacity="0.35"/>
</g>
<g clip-path="url(#clip0_18107_23958)">
<path d="M30.2894 21.1315C30.2894 21.2932 30.282 21.4531 30.2676 21.6113C30.2532 21.7691 30.2318 21.9248 30.2038 22.0779C29.9878 23.2909 29.1651 24.2343 28.4052 25.094C28.2929 25.1922 28.1752 25.2788 28.0535 25.3598C27.4426 25.7625 26.7387 26.0253 25.9829 26.1055C25.8217 26.1226 25.6579 26.1312 25.4926 26.1312C24.1461 26.1634 22.953 25.4344 21.9645 24.513C21.8781 24.4165 21.7966 24.3162 21.7197 24.2115C21.6259 24.0906 21.5407 23.9675 21.4605 23.8406C21.4021 23.7467 21.3469 23.6507 21.2947 23.5525C21.2425 23.4543 21.1935 23.3539 21.1474 23.2519C20.4028 21.8326 20.6085 20.1174 21.2869 18.6917C21.3544 18.5618 21.4284 18.437 21.5103 18.3178C21.7551 17.9611 22.0702 17.6545 22.4676 17.4255C22.5799 17.3393 22.6947 17.2566 22.8123 17.1777C23.5179 16.7038 24.3279 16.369 25.0943 16.149C25.2256 16.1374 25.3584 16.1318 25.4926 16.1318C26.0446 16.1318 26.5745 16.2292 27.0682 16.408C27.315 16.4972 27.5524 16.6074 27.7791 16.7356C28.7948 17.3736 29.6176 18.4456 30.073 19.6453C30.1084 19.7628 30.1397 19.882 30.1664 20.003C30.2466 20.3657 30.2894 20.7439 30.2894 21.132V21.1315Z" fill="#FFBF2B"/>
<path d="M28.7148 17.3148C28.7187 17.3148 28.7226 17.3135 28.7269 17.3105C28.72 17.3105 28.7166 17.3118 28.7148 17.3148Z" fill="#FFBF2B"/>
<path d="M26.6172 16.0596L26.6459 16.0609C26.6277 16.0572 26.6204 16.0576 26.6172 16.0596Z" fill="#FFBF2B"/>
<path d="M29.6115 18.4901C29.6115 18.4901 29.6091 18.4892 29.6074 18.4888C29.6198 18.5081 29.6346 18.5351 29.6597 18.5792C29.6436 18.5497 29.6288 18.5192 29.6115 18.4905V18.4901Z" fill="#FFBF2B"/>
<path d="M21.7617 17.5977L21.7872 17.5742C21.7755 17.5847 21.7674 17.5906 21.7617 17.5977Z" fill="#FFBF2B"/>
<path d="M24.4794 16.103C24.4721 16.1106 24.4575 16.1174 24.4434 16.1237C24.462 16.1182 24.4766 16.1119 24.4794 16.103Z" fill="#FFBF2B"/>
<path d="M29.7742 19.2857C29.7734 19.2709 29.7726 19.2565 29.7714 19.2422C29.7657 19.246 29.7661 19.2616 29.7742 19.2857Z" fill="#FFBF2B"/>
<path d="M30.1973 20.6697C30.1973 20.6697 30.1994 20.668 30.2007 20.6654C30.199 20.6633 30.1981 20.6654 30.1973 20.6697Z" fill="#FFBF2B"/>
<path d="M30.1751 20.0852C30.1715 20.0736 30.1658 20.0602 30.1602 20.0469C30.1642 20.0636 30.1687 20.0852 30.1751 20.0852Z" fill="#FFBF2B"/>
<path d="M30.1523 20.0284C30.1548 20.034 30.1576 20.0401 30.16 20.0458C30.1572 20.0357 30.1548 20.0276 30.1523 20.0284Z" fill="#FFBF2B"/>
<path d="M30.4817 21.3759C30.4842 21.3313 30.4735 21.2923 30.4648 21.252C30.471 21.2931 30.4768 21.3343 30.4817 21.3759Z" fill="#FFBF2B"/>
<path d="M20.502 22.2864L20.4922 22.2778C20.4969 22.2868 20.4997 22.2877 20.502 22.2864Z" fill="#FFBF2B"/>
<path d="M30.3477 21.3142L30.3517 21.2842C30.3489 21.295 30.3477 21.3046 30.3477 21.3142Z" fill="#FFBF2B"/>
<path d="M29.3746 18.6345C29.3392 18.6083 29.3088 18.526 29.2969 18.5354C29.3224 18.571 29.3462 18.6298 29.3746 18.6345Z" fill="#FFBF2B"/>
<path d="M21.3711 23.0293L21.3832 23.0528C21.378 23.0414 21.3743 23.0343 21.3711 23.0293Z" fill="#FFBF2B"/>
<path d="M30.3467 21.3149L30.3418 21.3496C30.3446 21.3466 30.3471 21.3429 30.3499 21.3395C30.3479 21.3316 30.3467 21.3237 30.3467 21.3149Z" fill="#FFBF2B"/>
<path d="M23.7077 26.0646C23.7077 26.0646 23.7069 26.0646 23.706 26.0637C23.7022 26.0633 23.6992 26.0629 23.6953 26.062L23.7077 26.0642V26.0646Z" fill="#FFBF2B"/>
<path d="M23.9481 26.189C23.9296 26.1844 23.9123 26.1787 23.8926 26.1733C23.9206 26.1857 23.9358 26.1894 23.9481 26.189Z" fill="#FFBF2B"/>
<path d="M30.4642 21.252L30.4531 21.1816C30.4548 21.2069 30.4593 21.2297 30.4642 21.252Z" fill="#FFBF2B"/>
<path d="M26.806 26.2573C26.7974 26.2602 26.7889 26.263 26.7812 26.2658C26.7922 26.263 26.8003 26.2602 26.806 26.2573Z" fill="#FFBF2B"/>
<path d="M24.6699 16.048C24.6764 16.0476 24.6845 16.0456 24.6922 16.0444C24.6934 16.0403 24.6914 16.0383 24.6699 16.048Z" fill="#FFBF2B"/>
<path d="M23.1916 17.1528C23.1629 17.1648 23.1316 17.1987 23.1172 17.2214C23.1439 17.2051 23.1661 17.1863 23.1916 17.1528Z" fill="#FFBF2B"/>
<path d="M22.9355 17.328C22.9394 17.3262 22.9424 17.325 22.9467 17.3232C22.9424 17.3245 22.939 17.3258 22.9355 17.328Z" fill="#FFBF2B"/>
<path d="M24.7308 16.5016C24.7308 16.5016 24.7308 16.4993 24.73 16.4985C24.73 16.5001 24.7293 16.5008 24.7285 16.5016H24.7308Z" fill="#FFBF2B"/>
<path d="M24.3621 16.6372C24.3546 16.6372 24.3445 16.638 24.334 16.6401C24.3415 16.6406 24.3508 16.6401 24.3621 16.6372Z" fill="#FFBF2B"/>
<path d="M22.1625 17.9346V17.9331C22.1617 17.9346 22.1609 17.9346 22.1602 17.9354C22.1617 17.9354 22.1617 17.9346 22.1632 17.9339L22.1625 17.9346Z" fill="#FFBF2B"/>
<path d="M21.0207 21.2971C21.0174 21.2062 21.019 21.108 21.0166 21.0059C21.0203 20.9043 21.0236 20.7984 21.031 20.6929C21.0363 20.6402 21.0421 20.5874 21.0474 20.5355C21.0528 20.4832 21.0581 20.4313 21.068 20.3812C21.077 20.3306 21.0861 20.2813 21.0947 20.2328C21.0993 20.2088 21.1038 20.1848 21.1087 20.1616C21.1149 20.1385 21.1207 20.1157 21.1264 20.0934C21.1157 20.0081 21.1383 19.8923 21.1676 19.7774L21.2112 19.7783L21.226 19.6801C21.2494 19.6458 21.2124 19.7547 21.2474 19.6921L21.233 19.6484C21.2469 19.6449 21.3239 19.4134 21.2984 19.5789L21.3605 19.3997C21.3807 19.3396 21.4066 19.2817 21.4292 19.223C21.4617 19.1458 21.4144 19.1625 21.4592 19.0815C21.4777 19.0695 21.4535 19.1149 21.4707 19.1149C21.5403 18.9975 21.5547 18.9156 21.5658 18.8375C21.567 18.8238 21.572 18.8019 21.5765 18.7831C21.5814 18.7633 21.5872 18.7432 21.5946 18.7226C21.6098 18.681 21.632 18.636 21.669 18.5858L21.6625 18.6068C21.6752 18.564 21.7213 18.4979 21.7172 18.4932C21.6645 18.4949 21.7106 18.5438 21.6493 18.5935C21.6226 18.5674 21.6851 18.5018 21.66 18.4902C21.7036 18.4486 21.7073 18.4079 21.7361 18.3646C21.8052 18.3075 21.8735 18.2003 21.9377 18.1716C21.9578 18.1326 21.9648 18.0713 22.0302 18.0057C22.0965 17.9817 22.0368 18.0361 22.1088 17.9834L22.1055 17.9576C22.1619 17.9109 22.1578 17.9242 22.1615 17.9332C22.2207 17.8835 22.1927 17.8676 22.2775 17.8183C22.2672 17.835 22.2565 17.8513 22.2466 17.8685C22.2981 17.8174 22.3236 17.802 22.4067 17.7467C22.4112 17.7583 22.3779 17.7797 22.3524 17.7943C22.4128 17.7887 22.4211 17.7304 22.4474 17.7162C22.4355 17.7128 22.3758 17.7484 22.3927 17.7115C22.4355 17.6866 22.4676 17.6279 22.5112 17.6313C22.4988 17.6463 22.4865 17.6622 22.475 17.6781C22.5145 17.6425 22.5243 17.6309 22.5358 17.6193C22.5387 17.6163 22.542 17.6138 22.5461 17.6108L22.5494 17.6086C22.5519 17.6073 22.5544 17.6056 22.5568 17.6039C22.5609 17.6013 22.5655 17.5987 22.5704 17.5953C22.5753 17.5919 22.5803 17.588 22.5864 17.5842C22.5901 17.5816 22.5939 17.579 22.598 17.576C22.6 17.5747 22.6021 17.5734 22.6045 17.5717C22.6136 17.5657 22.6247 17.5589 22.6379 17.5507C22.6333 17.5559 22.6391 17.5584 22.6391 17.5636C22.6881 17.495 22.7864 17.4547 22.8822 17.3882L22.8674 17.4062C22.902 17.3728 22.9127 17.3406 22.9353 17.3286C22.8732 17.3552 22.8855 17.3406 22.8695 17.3265C22.9147 17.3149 22.9386 17.2896 22.9662 17.2561C22.9941 17.2231 23.0279 17.1854 23.0949 17.1567C23.099 17.1687 23.0764 17.2 23.0361 17.2094C23.0122 17.2669 23.0233 17.2973 22.9588 17.3591C22.9999 17.3222 23.0509 17.2827 23.0472 17.3033L23.0443 17.2651C23.0719 17.2467 23.0953 17.2351 23.1163 17.2218C23.118 17.1957 23.0419 17.227 23.1007 17.1742C23.1694 17.1189 23.1566 17.1802 23.1607 17.1597C23.257 17.0876 23.1863 17.1026 23.2907 17.0542C23.2821 17.0623 23.2657 17.0791 23.2554 17.0812C23.3331 17.052 23.4294 16.9761 23.4689 17.0014C23.4623 17.0156 23.4652 17.0272 23.4368 17.0387L23.4351 17.0327C23.3693 17.1026 23.4977 16.9894 23.4895 17.0362C23.4742 17.0199 23.5779 16.9693 23.6264 16.9504L23.6009 16.9354C23.7252 16.7905 23.6133 16.9839 23.7622 16.8994C23.8531 16.8376 23.7223 16.9105 23.7754 16.8659C23.8433 16.8381 23.8766 16.8466 23.9704 16.793C24.0012 16.7896 24.0621 16.7776 24.0769 16.8016C24.132 16.7647 24.2629 16.7369 24.2876 16.6979C24.1765 16.718 24.1954 16.7665 24.0633 16.784L24.0868 16.7446C24.1699 16.7099 24.2723 16.6541 24.3336 16.6404C24.3201 16.64 24.3122 16.6353 24.318 16.6271C24.4344 16.5705 24.4608 16.5319 24.5813 16.4972C24.6043 16.5152 24.5344 16.5362 24.4846 16.5568C24.5669 16.5478 24.5644 16.5285 24.6854 16.4955C24.6981 16.5139 24.6052 16.5221 24.5982 16.5469L24.7269 16.4946C24.7269 16.4946 24.7277 16.4972 24.7282 16.4989C24.7364 16.4582 24.8294 16.468 24.9067 16.4324C25.0026 16.4024 25.0548 16.3746 25.0955 16.3458C25.1001 16.3424 25.1066 16.3381 25.1091 16.3355L25.1161 16.327C25.1206 16.321 25.1252 16.3158 25.1309 16.3111L25.1395 16.3038C25.1449 16.3012 25.1502 16.2987 25.156 16.2961C25.1675 16.2909 25.1795 16.2862 25.193 16.2815C25.2231 16.2896 25.2321 16.2982 25.2206 16.3081C25.1712 16.2948 25.1807 16.3072 25.1642 16.318C25.2305 16.3089 25.3111 16.3454 25.2749 16.3621C25.3794 16.3471 25.2362 16.3445 25.3 16.3304C25.3481 16.3291 25.3963 16.3287 25.4444 16.3291C25.4271 16.3107 25.3757 16.3072 25.451 16.2918C25.5143 16.2866 25.5452 16.2901 25.6279 16.2939C25.6155 16.3029 25.653 16.3231 25.5913 16.3201C25.6308 16.3287 25.6929 16.3308 25.718 16.3145C25.6283 16.2922 25.8673 16.3072 25.8015 16.2742L25.8912 16.2982C25.8706 16.2961 25.8673 16.3085 25.8373 16.3025C25.8607 16.3325 25.9117 16.3004 25.9438 16.3012C25.9755 16.3094 26.0574 16.3222 26.0631 16.3338C26.0927 16.3291 26.161 16.3463 26.1721 16.3621C26.2149 16.3634 26.1783 16.3441 26.1919 16.3372C26.2396 16.3458 26.2873 16.3544 26.3346 16.3647C26.3396 16.3818 26.3437 16.4269 26.3215 16.4286C26.3774 16.4243 26.349 16.3861 26.4297 16.4046C26.3778 16.4239 26.5313 16.4509 26.4572 16.4715C26.4984 16.5036 26.6276 16.5341 26.7 16.5474C26.7502 16.5362 26.6267 16.5126 26.637 16.4899C26.839 16.5375 26.8711 16.4779 27.0143 16.5401L26.9785 16.5203C27.0743 16.5392 27.0628 16.5392 27.1229 16.5396C27.0879 16.5594 27.1982 16.655 27.3438 16.7146C27.3623 16.7056 27.2739 16.6511 27.3068 16.6391L27.4055 16.679C27.4117 16.6846 27.3989 16.6841 27.3849 16.682C27.4758 16.7124 27.5273 16.7952 27.5668 16.7759L27.6322 16.8612L27.6071 16.8261C27.6161 16.8222 27.6449 16.8325 27.6733 16.8436C27.6869 16.8492 27.7005 16.8548 27.712 16.8595C27.7235 16.8655 27.7334 16.8702 27.7383 16.8719C27.8362 16.9178 27.8634 16.9496 27.9012 16.9997C27.893 16.9783 27.8696 16.9264 27.942 16.9731C27.9144 17.0139 28.0781 17.0953 28.0613 17.1151C28.0888 17.1361 28.1279 17.1875 28.1431 17.1738L28.1205 17.1948C28.1518 17.1657 28.2513 17.2454 28.3283 17.3059C28.2748 17.3368 28.4126 17.3728 28.4093 17.4431C28.448 17.4259 28.5442 17.5516 28.5792 17.5387C28.6335 17.5919 28.6027 17.6129 28.6076 17.6356L28.6417 17.6502C28.6483 17.6704 28.6759 17.7064 28.7076 17.7463C28.7376 17.7874 28.7722 17.8324 28.7952 17.868L28.8721 17.9032L28.8791 17.9362C28.8935 17.9401 28.9384 17.9872 28.9227 17.9474L28.9482 17.9817C28.9783 17.9598 28.9943 18.0207 29.0593 18.0777C29.0667 18.0974 29.0564 18.0991 29.0416 18.0876C29.0671 18.1219 29.0412 18.1197 29.0453 18.1463C29.0342 18.1159 29.1897 18.2265 29.1334 18.1236C29.1403 18.1073 29.1897 18.1549 29.2099 18.1926L29.1988 18.2342L29.2559 18.2544C29.2979 18.3063 29.2967 18.3423 29.3242 18.3886C29.2913 18.3444 29.2033 18.3277 29.2839 18.4426C29.2383 18.3847 29.2029 18.3663 29.1753 18.3393C29.1905 18.3637 29.1963 18.3774 29.1593 18.3496C29.2296 18.4327 29.1963 18.3671 29.2613 18.4533C29.2337 18.4662 29.2432 18.4966 29.2847 18.582L29.265 18.5099C29.2699 18.5104 29.2745 18.5129 29.279 18.5168C29.2675 18.4923 29.2671 18.4833 29.2732 18.4718C29.2843 18.4898 29.3716 18.5562 29.3662 18.582C29.3559 18.5224 29.3892 18.5575 29.4234 18.5983C29.4584 18.6386 29.4896 18.6874 29.4843 18.6489C29.4978 18.6549 29.5386 18.7205 29.5295 18.7355C29.4641 18.6686 29.5357 18.8135 29.5102 18.8114C29.5349 18.8362 29.4929 18.7376 29.5258 18.7711C29.5554 18.8169 29.5596 18.8615 29.5653 18.8933L29.5497 18.8761L29.5777 18.9567C29.597 18.9614 29.5608 18.8723 29.6044 18.9366C29.6085 18.9576 29.6521 19.0223 29.6406 19.0262C29.6052 19.0039 29.5941 19.0412 29.5587 18.9859C29.5723 19.0095 29.6011 19.0583 29.6237 19.0931C29.6459 19.1278 29.6645 19.1475 29.6612 19.1094L29.6891 19.1685C29.6822 19.1261 29.6517 19.0112 29.713 19.1278L29.7072 19.1295L29.7677 19.2011L29.7714 19.244C29.7776 19.2393 29.7908 19.2492 29.8039 19.2805C29.7994 19.2925 29.8093 19.3233 29.7973 19.3263C29.8389 19.4155 29.8492 19.4018 29.8623 19.41C29.8866 19.4597 29.8895 19.4811 29.8632 19.4648C29.8763 19.5004 29.8948 19.5489 29.9117 19.5943C29.9278 19.6394 29.9454 19.6878 29.9405 19.7024C29.9779 19.792 29.9409 19.6792 29.9751 19.7294C29.9454 19.8297 30.045 20.0544 30.0775 20.2169C30.1141 20.1642 30.0907 20.2602 30.1363 20.2825C30.117 20.25 30.126 20.4433 30.0911 20.3031L30.1092 20.3893C30.0935 20.4523 30.0689 20.2491 30.0487 20.3443C30.0647 20.4399 30.1232 20.4974 30.1186 20.6149C30.0833 20.5797 30.138 20.7023 30.0997 20.6775C30.0861 20.6547 30.0866 20.6226 30.0804 20.5904L30.0763 20.6114C30.087 20.8254 30.1199 20.6693 30.1511 20.7799C30.1635 20.9116 30.1314 20.885 30.117 20.8936C30.1121 20.9142 30.1195 20.9798 30.1285 21.0141C30.1071 20.9352 30.1429 20.8653 30.1651 20.9013C30.1318 20.9609 30.1676 21.0968 30.182 21.1333C30.2009 21.0385 30.2001 21.0055 30.2001 20.9738C30.2001 20.942 30.2005 20.9124 30.2161 20.8215C30.203 20.7975 30.1713 20.8044 30.1762 20.6968C30.198 20.7624 30.1943 20.6908 30.1976 20.671C30.1808 20.6933 30.1832 20.5977 30.1713 20.566C30.1832 20.5342 30.2223 20.6251 30.217 20.5154L30.1705 20.5008C30.1717 20.4575 30.205 20.5145 30.1828 20.4258C30.212 20.4712 30.217 20.4056 30.2392 20.5278C30.2593 20.3752 30.1886 20.3048 30.1528 20.1964C30.1577 20.2075 30.1639 20.2075 30.1688 20.2182C30.1528 20.1964 30.1458 20.1526 30.1363 20.1205C30.1314 20.0446 30.168 20.1745 30.1758 20.1531C30.1676 20.1132 30.1594 20.0729 30.1503 20.033C30.1511 20.0304 30.152 20.0296 30.1528 20.0291C30.1404 19.9987 30.1277 19.9704 30.1359 19.9567C30.159 19.9884 30.1775 19.9987 30.1935 20.0206C30.1746 19.9807 30.152 19.9417 30.1318 19.9026C30.1495 19.9129 30.1293 19.7924 30.1631 19.8791L30.1084 19.6947L30.133 19.6698C30.1158 19.6256 30.11 19.6269 30.1207 19.6818C30.1195 19.6737 30.1166 19.6634 30.1125 19.6514C30.1092 19.6394 30.1022 19.6248 30.0944 19.6115C30.08 19.5853 30.0635 19.5562 30.0487 19.53C30.0203 19.4768 30.0026 19.4331 30.0359 19.4365C29.9965 19.3718 29.9705 19.3276 29.9463 19.2783C29.9339 19.2539 29.9212 19.2281 29.9068 19.1986C29.8911 19.1694 29.8726 19.1372 29.8492 19.0982C29.9356 19.211 29.8097 18.9374 29.8866 19.0648C29.8595 18.9803 29.8241 18.979 29.7871 18.922C29.7677 18.859 29.8072 18.8693 29.85 18.9254L29.799 18.8602L29.8047 18.8585L29.7562 18.8045C29.734 18.7299 29.7755 18.7745 29.7406 18.7042H29.7093L29.6961 18.6497C29.6961 18.6733 29.6678 18.6364 29.6377 18.5893L29.6435 18.5871L29.6044 18.5309C29.6283 18.5558 29.6217 18.5412 29.613 18.5228C29.6036 18.5048 29.5921 18.4825 29.6085 18.4902C29.5781 18.44 29.5768 18.4392 29.5159 18.3526L29.511 18.3787C29.4234 18.2719 29.5312 18.3573 29.4695 18.2638L29.4563 18.2822C29.4246 18.2059 29.3822 18.1519 29.3403 18.1047C29.2971 18.0584 29.2564 18.0177 29.2296 17.9628C29.2745 18.0142 29.2831 17.9847 29.2773 17.9872C29.2605 17.9679 29.2415 17.9448 29.2218 17.9199C29.2016 17.8955 29.1794 17.8702 29.1568 17.8444C29.1115 17.7943 29.0663 17.7432 29.021 17.7128C29.0182 17.6626 29.019 17.6498 28.9565 17.558C28.9026 17.4997 28.8906 17.495 28.861 17.4885C28.8388 17.4564 28.7997 17.4178 28.7676 17.3848C28.7359 17.3513 28.7088 17.326 28.7154 17.3162C28.6907 17.317 28.6681 17.2656 28.6273 17.2476V17.2343L28.6179 17.2549C28.5854 17.1888 28.5368 17.1571 28.4891 17.1245C28.441 17.0923 28.3941 17.0602 28.3525 17.0014L28.3743 17.0117L28.3246 16.9821C28.3229 16.9689 28.3447 16.9791 28.3542 16.971L28.2505 16.8848C28.2155 16.8565 28.1793 16.8304 28.1435 16.8029L28.1769 16.8475C28.13 16.8158 28.088 16.8111 28.0432 16.7617C28.095 16.7798 28.0773 16.7665 28.0465 16.7446C28.0144 16.7236 27.9683 16.6953 27.9675 16.6794L28.0205 16.7047C27.9753 16.6764 27.9509 16.6697 27.9473 16.6846C27.9025 16.6593 27.8926 16.6408 27.8827 16.6241C27.8728 16.6078 27.8638 16.5928 27.8136 16.5787C27.8342 16.5907 27.8552 16.6022 27.8733 16.6155C27.8835 16.6374 27.8354 16.6254 27.7939 16.6027C27.786 16.5945 27.7626 16.5709 27.7939 16.5847C27.7202 16.5529 27.6182 16.4886 27.5828 16.4813C27.5466 16.4564 27.5655 16.4483 27.5894 16.4534C27.4269 16.3977 27.5211 16.4153 27.357 16.3634L27.364 16.3531L27.3043 16.3441L27.2352 16.2884L27.2578 16.3145C27.2047 16.2961 27.1694 16.2914 27.1101 16.2622L27.1406 16.2541C26.9883 16.2103 26.976 16.1636 26.8242 16.1447C26.8152 16.1387 26.8394 16.1396 26.8514 16.1404C26.7094 16.1297 26.7576 16.0791 26.6123 16.0787C26.6222 16.0748 26.6086 16.0637 26.6152 16.0598L26.5502 16.0568L26.5601 16.0337L26.5017 16.0581L26.4679 16.0251L26.4412 16.0315C26.3824 15.9715 26.2803 15.9891 26.1923 15.9406L26.2042 15.9741C26.0825 15.9886 25.9508 15.9642 25.8101 15.9415C25.6702 15.9187 25.5217 15.8977 25.3786 15.9157L25.3831 15.8909C25.3436 15.9016 25.3045 15.9123 25.2654 15.9239C25.2013 15.9072 25.3029 15.9007 25.2823 15.8892C25.2189 15.899 25.2062 15.9089 25.191 15.9183C25.1832 15.923 25.1749 15.9273 25.1597 15.932C25.1519 15.9342 25.1424 15.9363 25.1301 15.9389C25.1235 15.9402 25.1186 15.941 25.1083 15.9423C25.0972 15.9436 25.0844 15.9453 25.0708 15.947C25.0141 15.9496 25.0223 15.9462 25.0519 15.9325C25.0671 15.9282 25.0881 15.9256 25.1087 15.9222C25.1235 15.9192 25.135 15.9166 25.1445 15.914C25.1358 15.9153 25.1272 15.917 25.1182 15.9183C25.1054 15.92 25.0922 15.9217 25.0791 15.9239L25.0569 15.9269C25.0495 15.9282 25.0425 15.9316 25.0351 15.9338C25.0223 15.9385 25.0091 15.9428 24.996 15.9475C24.9589 15.9612 24.9207 15.9749 24.8833 15.9878C24.8088 16.0144 24.738 16.0358 24.6907 16.0448C24.6895 16.0487 24.6854 16.0547 24.6907 16.0547C24.608 16.0933 24.492 16.1211 24.399 16.1572C24.3978 16.1456 24.4204 16.1353 24.4431 16.1246C24.4089 16.1353 24.3604 16.1451 24.3353 16.1666L24.3637 16.1336C24.29 16.155 24.1588 16.2279 24.1341 16.2103C24.146 16.2159 24.1485 16.2343 24.0868 16.2588C24.0391 16.2369 23.9255 16.3424 23.8206 16.3668C23.8289 16.3527 23.9 16.3205 23.8795 16.3287C23.8264 16.3402 23.7894 16.3771 23.7511 16.4071L23.7585 16.387C23.6853 16.4269 23.6133 16.4702 23.5413 16.5122C23.4923 16.4938 23.3335 16.6232 23.3372 16.5915C23.2578 16.6318 23.4105 16.5714 23.313 16.628C23.2792 16.6275 23.2266 16.6829 23.22 16.6588L23.2295 16.6503L23.1612 16.6901L23.1937 16.6447C23.1361 16.6829 23.1036 16.7279 23.1093 16.7463C23.0476 16.7673 22.9732 16.8222 22.9378 16.8196L22.9555 16.8021C22.8802 16.8539 22.8078 16.8788 22.7424 16.9075C22.6757 16.9346 22.6173 16.9663 22.57 17.0255C22.5593 17.0289 22.5572 17.0229 22.5757 17.01L22.4828 17.0748L22.4947 17.0439L22.3577 17.1764L22.3528 17.1648C22.3462 17.1691 22.3396 17.1734 22.333 17.1781L22.3227 17.1854L22.3203 17.1871L22.319 17.188L22.3215 17.1863L22.3244 17.1841L22.324 17.1845C22.3141 17.1901 22.3038 17.1961 22.2935 17.2025C22.259 17.2227 22.2232 17.2463 22.1866 17.2703C22.1138 17.32 22.0389 17.3753 21.9743 17.4289L21.9907 17.4088C21.9237 17.4723 21.8883 17.4988 21.8575 17.5211C21.8262 17.543 21.7994 17.561 21.7542 17.612C21.7554 17.6065 21.7583 17.6026 21.7612 17.5983C21.7316 17.6258 21.7028 17.6545 21.6744 17.6828L21.6855 17.6553C21.639 17.7364 21.4843 17.8196 21.5374 17.7934C21.5111 17.8397 21.4654 17.9165 21.467 17.9379C21.386 18.0421 21.435 17.9529 21.3765 18.0112C21.3181 18.088 21.3243 18.1137 21.2432 18.2149L21.235 18.2055C21.2033 18.2578 21.1902 18.2942 21.1486 18.368L21.1564 18.3431C21.1318 18.4092 21.1034 18.4417 21.0799 18.4735C21.0684 18.4893 21.0577 18.5048 21.0499 18.5241C21.0454 18.5348 21.0413 18.5477 21.0384 18.5605C21.0367 18.5725 21.0359 18.5858 21.0363 18.6008C21.0042 18.648 20.9668 18.7496 20.9475 18.7342C20.9335 18.7741 20.9203 18.8122 20.9076 18.8487C20.896 18.8851 20.8849 18.9207 20.8738 18.9559C20.8516 19.0266 20.8265 19.0957 20.8035 19.175C20.7582 19.1857 20.794 19.2093 20.7405 19.2959H20.7627C20.6866 19.5159 20.5669 19.762 20.5159 20.0184L20.4937 20.0206L20.506 20.0772C20.4353 20.349 20.3859 20.7131 20.3711 20.9395C20.3781 21.0145 20.4015 21.1277 20.3908 21.2447L20.3884 21.2323C20.3933 21.3348 20.4052 21.4398 20.4102 21.5475C20.4184 21.6547 20.4307 21.7644 20.4349 21.8768C20.4246 21.8639 20.4209 21.8871 20.4126 21.8626C20.4402 21.9128 20.4336 21.993 20.4398 22.041L20.4464 21.9827C20.476 22.0423 20.4719 22.1358 20.462 22.1714C20.4739 22.2035 20.4904 22.2344 20.5048 22.2657C20.5044 22.2726 20.5036 22.2833 20.5003 22.2854L20.5151 22.3004L20.5003 22.3596C20.506 22.3712 20.518 22.4093 20.5332 22.4484C20.5406 22.4681 20.5488 22.4878 20.5579 22.505C20.5677 22.5217 20.5776 22.5354 20.5871 22.5436C20.5809 22.5556 20.6019 22.6478 20.5756 22.5796C20.6093 22.6983 20.6397 22.818 20.6854 22.9329L20.6739 22.8754C20.6907 22.8613 20.743 22.9586 20.7549 23.0157C20.7121 22.9526 20.7253 23.0217 20.7228 23.0585C20.7516 23.1006 20.7241 23.0101 20.7442 23.0302C20.7776 23.086 20.8421 23.1962 20.8467 23.2305L20.8232 23.2013C20.866 23.2725 20.8495 23.324 20.8866 23.3973C20.9335 23.4547 20.9433 23.51 20.9688 23.4792C21.0215 23.5697 20.9651 23.5272 20.9771 23.5598C20.9956 23.5778 21.0186 23.6211 21.0359 23.6631C21.0519 23.7051 21.0696 23.7455 21.0655 23.7587C21.1408 23.7819 21.1935 24.0216 21.2445 24.016L21.2716 24.1048C21.2832 24.1001 21.3144 24.0992 21.3584 24.1549C21.386 24.218 21.3605 24.2176 21.3626 24.242L21.4243 24.2514C21.4473 24.2934 21.4757 24.3398 21.5016 24.3796L21.5201 24.4092C21.5275 24.4204 21.5349 24.4315 21.5423 24.4427C21.5576 24.465 21.5732 24.4873 21.5892 24.5096C21.6217 24.5542 21.6563 24.5983 21.6921 24.6425L21.7196 24.6755L21.753 24.7145C21.79 24.7535 21.8048 24.7638 21.8258 24.7848C21.8661 24.8226 21.9068 24.8603 21.9476 24.8985C21.9887 24.9358 22.0298 24.9731 22.0706 25.01C22.1508 25.085 22.2322 25.1562 22.3067 25.2291C22.3803 25.2835 22.4696 25.3376 22.5581 25.3984C22.649 25.4563 22.7415 25.5176 22.8296 25.5798L22.8065 25.5721L22.9801 25.6986L22.86 25.5965C22.902 25.6171 22.937 25.6291 22.9744 25.654C23.1624 25.7942 23.429 25.9696 23.7054 26.0652C23.8025 26.0764 23.8268 26.0987 23.8502 26.1227C23.8741 26.1458 23.8951 26.1746 23.9872 26.1857C23.9712 26.1853 23.9634 26.1904 23.9482 26.1908C24.0436 26.2144 24.1168 26.2324 24.1905 26.2487C24.2653 26.2612 24.3406 26.2719 24.4377 26.2826C24.404 26.3302 24.562 26.3092 24.5389 26.3323L24.5591 26.3148C24.599 26.3366 24.6981 26.3624 24.6813 26.3744C24.7109 26.3722 24.7413 26.3662 24.7709 26.3619L24.7751 26.3847C24.8318 26.3928 24.9211 26.4057 25.0046 26.4138C25.0877 26.422 25.1638 26.4344 25.193 26.4588C25.265 26.4558 25.3452 26.4481 25.4325 26.4464C25.4748 26.4451 25.5184 26.4438 25.5633 26.4425C25.6089 26.4408 25.6558 26.4391 25.7036 26.437C25.8932 26.4288 26.0915 26.4121 26.2668 26.3885C26.3133 26.3641 26.414 26.3435 26.4926 26.3255L26.5819 26.3328C26.6605 26.3062 26.7374 26.2539 26.8143 26.2487C26.8143 26.2517 26.8123 26.2547 26.8073 26.2577C26.8863 26.2312 26.9657 26.2196 27.0328 26.1733C27.1192 26.145 27.2072 26.1282 27.1887 26.1604C27.1862 26.1385 27.2319 26.1227 27.2784 26.1124C27.3018 26.1072 27.3253 26.1034 27.3426 26.0999C27.3602 26.0974 27.3722 26.0952 27.3722 26.0952C27.3722 26.0952 27.4413 26.0699 27.5622 26.0172C27.6828 25.964 27.8543 25.883 28.0551 25.7659C28.1551 25.7076 28.2637 25.6403 28.3764 25.5605C28.4328 25.5206 28.4908 25.4773 28.5492 25.4302C28.5636 25.4182 28.5784 25.4062 28.5932 25.3942L28.6249 25.3671C28.631 25.3616 28.6372 25.3568 28.6434 25.3508L28.6607 25.3315C28.6858 25.3032 28.7113 25.2749 28.7372 25.2462C28.9268 25.034 29.1334 24.799 29.3366 24.5434C29.5398 24.2879 29.7397 24.0113 29.9129 23.7189C30.0853 23.4264 30.2293 23.1177 30.3272 22.8158C30.3498 22.7395 30.3741 22.6658 30.393 22.5916C30.4103 22.517 30.4276 22.4445 30.4424 22.3738C30.4535 22.3021 30.4642 22.2327 30.4745 22.1654C30.4844 22.0985 30.4893 22.0359 30.4942 21.9741C30.5128 21.7289 30.5045 21.523 30.4827 21.3764C30.4642 21.3361 30.4539 21.2285 30.4284 21.2688C30.4227 21.186 30.4585 21.1483 30.4383 21.132C30.4239 21.2439 30.3856 21.0972 30.3589 21.2062L30.3544 21.1367C30.34 21.1225 30.3704 21.2315 30.3437 21.2139L30.3815 21.234C30.3745 21.2906 30.3655 21.3211 30.3515 21.3404C30.3642 21.3935 30.4153 21.4313 30.3832 21.5569V21.5217C30.377 21.6255 30.3535 21.5826 30.3457 21.6036L30.3482 21.5809L30.321 21.6654C30.3408 21.6015 30.3178 21.4909 30.3157 21.5475C30.2947 21.668 30.3276 21.5166 30.3247 21.6084C30.3215 21.6654 30.3025 21.6474 30.291 21.6435L30.2816 21.7447C30.2643 21.7391 30.2902 21.6778 30.2672 21.7168C30.2688 21.7597 30.2696 21.803 30.27 21.8463C30.2227 21.8631 30.2717 21.9878 30.2194 22.038C30.2244 21.9458 30.203 22.0436 30.191 22.0264C30.1795 22.1002 30.1627 22.1722 30.1491 22.2455C30.1388 22.2644 30.1478 22.1851 30.1429 22.2185C30.1219 22.2563 30.14 22.2889 30.1334 22.3103C30.1162 22.3257 30.0894 22.4707 30.0623 22.4557C30.0335 22.5247 30.0343 22.5418 30.0401 22.559C30.0446 22.5761 30.0499 22.592 30.0191 22.6555C29.996 22.6662 30.0512 22.5487 30.0133 22.601C29.9993 22.6473 29.9874 22.6945 29.9714 22.7399C29.9685 22.7245 29.9549 22.7026 29.9755 22.6533C29.9578 22.6988 29.9364 22.7391 29.9154 22.7772C29.8944 22.8154 29.8739 22.8514 29.8533 22.8857C29.8101 22.953 29.7661 23.0122 29.7253 23.0714C29.6817 23.1293 29.6394 23.1859 29.5999 23.2485C29.5571 23.3094 29.5176 23.3767 29.4773 23.4543C29.4328 23.4835 29.4847 23.4166 29.4888 23.378C29.3814 23.6095 29.2605 23.6494 29.1379 23.8239L29.1498 23.8381C28.9305 24.0448 28.7277 24.3462 28.4846 24.5902L28.5208 24.5679C28.5031 24.6159 28.4537 24.6746 28.4225 24.7231C28.4101 24.7231 28.4212 24.6656 28.3608 24.7458C28.3789 24.7347 28.4118 24.7077 28.4101 24.7231C28.3817 24.7471 28.3501 24.7754 28.3163 24.8071C28.2995 24.8234 28.2822 24.8402 28.2641 24.8577C28.255 24.8667 28.246 24.8757 28.2365 24.8848L28.2299 24.8916L28.2279 24.8933C28.2279 24.8933 28.2254 24.895 28.2234 24.8963C28.1871 24.9229 28.1485 24.9512 28.1082 24.9804C28.0637 25.0121 28.0168 25.0443 27.9675 25.0764C27.77 25.2055 27.5396 25.3315 27.3302 25.4165C27.0554 25.5524 26.7502 25.6514 26.4412 25.7145C26.1314 25.7783 25.8188 25.8049 25.5197 25.8122C25.6106 25.8097 25.5752 25.8564 25.5016 25.8461C25.4053 25.8058 25.3267 25.8092 25.2445 25.8135C25.2041 25.8135 25.1638 25.8139 25.1219 25.8105C25.0799 25.8062 25.0363 25.8015 24.9914 25.7796C24.8207 25.7693 24.6623 25.7282 24.5101 25.6793C24.434 25.6549 24.3579 25.633 24.2826 25.6073C24.2448 25.5957 24.2061 25.585 24.167 25.5755C24.1279 25.5657 24.0893 25.5545 24.0489 25.5464L24.0506 25.5236C24.0095 25.4962 23.9918 25.5056 23.944 25.4885L23.9473 25.4833C23.8412 25.4255 23.6993 25.3847 23.6429 25.3401L23.6285 25.3603C23.5635 25.3281 23.6038 25.3255 23.5318 25.3037L23.5392 25.2938C23.51 25.2878 23.482 25.2788 23.4533 25.2715C23.4808 25.2376 23.2768 25.166 23.2381 25.1146C23.197 25.0914 23.1344 25.0627 23.0707 25.0228C23.0069 24.9829 22.9378 24.9401 22.8822 24.8929C22.8736 24.8577 22.7296 24.754 22.649 24.6716C22.5605 24.6056 22.4564 24.5199 22.3474 24.4277C22.2948 24.3801 22.2405 24.3312 22.1866 24.2827C22.1829 24.2797 22.1837 24.2802 22.1812 24.2772L22.1689 24.263L22.1351 24.2231C22.1129 24.1961 22.0915 24.1691 22.071 24.1421L22.0533 24.164L22.0076 24.1091C22.013 24.1061 22.0093 24.0962 22.0183 24.1031C22.0158 24.0872 22.008 24.0713 21.9969 24.0559C21.9916 24.0478 21.9858 24.0405 21.9788 24.0323C21.9714 24.0229 21.9632 24.0134 21.9554 24.0049C21.9241 23.9706 21.897 23.9431 21.8867 23.9127C21.8887 23.9573 21.9134 23.9556 21.9377 23.9886C21.9525 24.0186 21.9459 24.0259 21.929 24.0147C21.9126 24.004 21.89 23.98 21.8714 23.9431L21.8772 23.9406L21.8336 23.905C21.8468 23.887 21.8262 23.8402 21.8398 23.8222C21.8044 23.7746 21.7719 23.7304 21.7406 23.6884C21.7102 23.6485 21.6818 23.6048 21.653 23.5641C21.6242 23.5225 21.5954 23.48 21.567 23.4346C21.5522 23.4127 21.539 23.387 21.5263 23.3604C21.5131 23.3338 21.5004 23.3059 21.4872 23.2768C21.5197 23.2888 21.4012 23.1143 21.4601 23.1413C21.3794 23.0114 21.4415 23.1795 21.3852 23.1301C21.3675 23.0915 21.3383 23.0564 21.3486 23.0422C21.3658 23.0555 21.356 22.9998 21.3741 23.0294L21.3276 22.9393C21.3263 22.929 21.3412 22.9466 21.3482 22.9556C21.3346 22.9338 21.3218 22.9119 21.3107 22.8904C21.2988 22.869 21.2889 22.8471 21.2819 22.8261C21.2667 22.7832 21.2539 22.7412 21.2412 22.7001C21.2293 22.6585 21.2149 22.619 21.2033 22.5779C21.1918 22.5367 21.1778 22.496 21.1593 22.4548C21.1412 22.4466 21.1762 22.5243 21.1585 22.5165C21.1178 22.4346 21.112 22.3939 21.1083 22.3549C21.1058 22.3154 21.1071 22.2768 21.0775 22.1971L21.105 22.2263C21.0795 22.1765 21.0557 22.1572 21.0532 22.0659C21.0725 22.0457 21.0886 22.1362 21.1095 22.1752C21.1038 22.1452 21.0882 22.0933 21.0775 22.0539C21.0672 22.0144 21.0557 21.9891 21.0491 22.0144C21.0297 21.9424 21.0462 21.9119 21.0466 21.8721C21.0404 21.8716 21.0417 21.9428 21.024 21.9017C21.0232 21.8759 21.0211 21.8476 21.0182 21.8168C21.0166 21.7859 21.0145 21.7529 21.0129 21.7194C21.0088 21.6521 21.0009 21.5826 20.9985 21.5209C21.0042 21.5217 21.0133 21.5123 21.0166 21.523C20.9824 21.4253 21.0363 21.433 21.0248 21.2975L21.0207 21.2971Z" fill="#FFBF2B"/>
<path d="M24.7792 16.4883L24.7299 16.5006C24.7315 16.5057 24.7311 16.5124 24.7109 16.526L24.7792 16.4887V16.4883Z" fill="#FFBF2B"/>
<path d="M22.6398 17.5635C22.6358 17.5683 22.6317 17.5732 22.6289 17.5789C22.6382 17.5712 22.6398 17.5667 22.6398 17.5635Z" fill="#FFBF2B"/>
<path d="M22.1844 17.9372C22.2107 17.9088 22.1803 17.9258 22.1621 17.9331C22.1645 17.9372 22.169 17.9412 22.1844 17.9372Z" fill="#FFBF2B"/>
<path d="M26.0624 16.3335C26.0534 16.3347 26.0478 16.3371 26.049 16.3424C26.0607 16.3396 26.064 16.3367 26.0624 16.3335Z" fill="#FFBF2B"/>
<path d="M29.1389 18.2804C29.1373 18.2759 29.1348 18.2723 29.1328 18.2666C29.1328 18.2698 29.1352 18.2743 29.1389 18.2804Z" fill="#FFBF2B"/>
<path d="M29.0409 18.086C29.0348 18.0777 29.0263 18.0677 29.0117 18.0552C29.0227 18.0702 29.0324 18.0794 29.0409 18.086Z" fill="#FFBF2B"/>
<path d="M25.1651 16.3179C25.1583 16.3187 25.1518 16.3199 25.1453 16.3215C25.1392 16.3231 25.138 16.3248 25.1348 16.3276C25.1376 16.3276 25.1396 16.3268 25.1417 16.326C25.1453 16.3252 25.1485 16.3243 25.1514 16.3235C25.1574 16.3219 25.1615 16.3199 25.1647 16.3179H25.1651Z" fill="#FFBF2B"/>
<path d="M28.9786 18.0241L28.9474 17.9814C28.9474 17.9814 28.945 17.9827 28.9434 17.984L28.979 18.0241H28.9786Z" fill="#FFBF2B"/>
<path d="M29.1764 18.3376C29.1653 18.3202 29.1489 18.2973 29.1406 18.2812C29.1505 18.3071 29.1624 18.324 29.1764 18.3376Z" fill="#FFBF2B"/>
<path d="M27.3857 16.6812C27.3857 16.6812 27.3823 16.68 27.3802 16.6796C27.3378 16.6724 27.3634 16.6787 27.3857 16.6812Z" fill="#FFBF2B"/>
<path d="M28.8003 17.873C28.8003 17.873 28.7974 17.8693 28.7962 17.8673L28.7812 17.8608L28.7999 17.873H28.8003Z" fill="#FFBF2B"/>
<path d="M29.2971 18.5348C29.2914 18.5269 29.2854 18.5197 29.2793 18.5151C29.2829 18.5223 29.2874 18.5311 29.2931 18.5415C29.2939 18.5373 29.2955 18.5357 29.2971 18.5344V18.5348Z" fill="#FFBF2B"/>
<path d="M28.0332 17.1184C28.0508 17.1197 28.0592 17.118 28.0622 17.1146C28.0475 17.1046 28.0357 17.1016 28.0332 17.1184Z" fill="#FFBF2B"/>
<path d="M30.9928 21.184C30.9866 21.434 30.9347 21.6792 30.9282 21.9279C30.922 22.1651 30.82 22.391 30.757 22.6196C30.625 23.0985 30.3843 23.4917 30.119 23.9021C29.8906 24.2554 29.5985 24.5504 29.2772 24.8141C29.0897 24.9681 28.8782 25.0688 28.6733 25.1932C28.4684 25.3175 28.2056 25.4462 27.9731 25.5165C27.5202 25.6533 27.043 25.7313 26.5686 25.7206C26.3444 25.7154 26.114 25.7111 25.894 25.6661C25.7693 25.6404 25.6446 25.6292 25.5204 25.6065C25.4208 25.5885 25.339 25.5362 25.2452 25.4993C24.775 25.3149 24.3056 25.1263 23.8999 24.809C23.7514 24.6928 23.5782 24.5663 23.4482 24.4282C23.3067 24.2781 23.2014 24.0955 23.064 23.9428C22.7567 23.5998 22.5629 23.1967 22.3835 22.7671C22.2893 22.542 22.2564 22.3001 22.1836 22.0686C22.1108 21.837 22.0696 21.6085 22.0565 21.3735C22.0437 21.1522 22.0672 20.9108 22.0779 20.6874C22.0898 20.4362 22.1026 20.1793 22.1729 19.9375C22.2301 19.7415 22.3066 19.537 22.3811 19.3475C22.4666 19.1301 22.5493 18.9028 22.676 18.7086C22.7386 18.6125 22.7879 18.4993 22.8558 18.408C22.9105 18.3347 22.9854 18.2785 23.0434 18.2077C23.1055 18.1319 23.1426 18.0264 23.2084 17.9565C23.2791 17.8814 23.377 17.8218 23.4511 17.7485C23.6091 17.592 23.7646 17.4364 23.9509 17.3163C24.1595 17.1817 24.38 17.0757 24.5993 16.9621C25.0395 16.7336 25.5064 16.6156 25.9919 16.5483C26.2325 16.5149 26.458 16.5432 26.6978 16.5633C26.95 16.5843 27.1964 16.6019 27.4461 16.6487C27.6959 16.6954 27.9122 16.7897 28.1509 16.8969C28.3557 16.9891 28.5828 17.0599 28.7593 17.2044C28.9358 17.3489 29.1472 17.4445 29.3266 17.5929C29.5385 17.7678 29.7331 17.9839 29.9124 18.1945C30.0774 18.3883 30.2049 18.6241 30.3349 18.8445C30.4765 19.0851 30.6237 19.3333 30.7081 19.6035C30.88 20.1545 30.9672 20.7084 30.994 21.2847C31.0035 21.4871 31.2096 21.5819 31.3741 21.5081C31.5716 21.4194 31.6695 21.1921 31.6596 20.9799C31.6465 20.6939 31.6341 20.3997 31.5745 20.121C31.514 19.8389 31.4461 19.5623 31.3712 19.2844C31.2256 18.7424 30.9105 18.2652 30.6147 17.7995C30.3415 17.3695 29.9215 16.9415 29.4965 16.674C29.4097 16.6195 29.3172 16.5792 29.2345 16.5175C29.1415 16.448 29.065 16.3738 28.958 16.3271C28.7256 16.2254 28.4985 16.1127 28.2681 16.0072C27.7938 15.7902 27.2281 15.7752 26.72 15.7323C26.163 15.6852 25.5871 15.7838 25.065 15.9845C24.5429 16.1851 24.048 16.4043 23.5951 16.7301C23.3853 16.8811 23.2203 17.0882 23.0216 17.2524C22.9311 17.327 22.841 17.4012 22.7682 17.4955C22.6888 17.598 22.6365 17.7026 22.5481 17.7965C22.1758 18.1902 21.9462 18.7339 21.7549 19.2424C21.5636 19.751 21.4353 20.2424 21.4094 20.7929C21.3822 21.3645 21.3575 21.9472 21.5422 22.4961C21.6216 22.7328 21.6578 22.984 21.7479 23.2182C21.8442 23.4677 21.973 23.7138 22.089 23.954C22.205 24.1941 22.3589 24.3866 22.5312 24.5804C22.6814 24.7494 22.797 24.9505 22.9578 25.1108C23.1187 25.2712 23.3174 25.4217 23.4955 25.5572C23.7415 25.7446 24.0057 25.8895 24.2833 26.0152C24.5043 26.1151 24.7322 26.197 24.9523 26.2964C25.1987 26.4079 25.4571 26.4397 25.7208 26.4873C25.9845 26.5349 26.2609 26.5306 26.5197 26.5271C26.8015 26.5237 27.1055 26.516 27.3828 26.4568C28.5598 26.2055 29.659 25.5443 30.4279 24.577C30.5085 24.4754 30.5666 24.3583 30.6381 24.2507C30.7307 24.1109 30.8303 23.9801 30.9105 23.8318C31.0615 23.5522 31.2318 23.2628 31.3252 22.9557C31.4074 22.6847 31.4988 22.4022 31.5654 22.1273C31.6082 21.9511 31.5917 21.7693 31.6185 21.59C31.6436 21.4215 31.6567 21.2517 31.6609 21.0811C31.674 20.5219 31.0035 20.7376 30.9928 21.1857V21.184Z" fill="white"/>
<path d="M27.6138 27.4533C26.9909 27.4555 26.3681 27.4555 25.7452 27.4546C25.5996 27.4546 25.4614 27.4799 25.3507 27.3607C25.2289 27.2291 25.2474 27.0395 25.2466 26.8693C25.2462 26.6849 25.2491 26.5001 25.2474 26.3157C25.2458 26.1532 25.2108 25.9723 25.245 25.8158L24.5933 26.0851C25.7975 26.5726 27.1505 26.5936 28.3555 26.0953L27.7894 25.8887C27.7948 26.2141 27.7861 26.5379 27.7865 26.8629C27.7865 26.9992 27.8293 27.4426 27.6138 27.4529C27.4295 27.4615 27.1896 27.5502 27.1551 27.7693C27.1234 27.9713 27.3324 28.1124 27.5064 28.1042C27.9988 28.0811 28.4752 27.8058 28.5834 27.2668C28.6287 27.0425 28.5991 26.7831 28.606 26.5537C28.6147 26.2802 28.6028 26.0066 28.5986 25.7334C28.5941 25.4655 28.1835 25.4646 28.0326 25.5268C27.0999 25.9123 26.0217 25.9067 25.0866 25.5281C24.8517 25.4329 24.4995 25.5002 24.4349 25.7973C24.3917 25.9967 24.4358 26.2158 24.4378 26.4191C24.4399 26.6223 24.437 26.8273 24.4378 27.0314C24.439 27.2792 24.4625 27.5005 24.6143 27.7025C24.7834 27.928 25.0368 28.0622 25.3079 28.0944C25.6736 28.1377 26.0612 28.1158 26.4294 28.1107C26.7976 28.1055 27.1477 28.1051 27.5072 28.1038C27.6911 28.1034 27.9322 28.0009 27.9659 27.7874C27.9997 27.5738 27.7878 27.452 27.6146 27.4525L27.6138 27.4533Z" fill="white"/>
<path d="M26.9238 28.3216C26.7983 28.3216 26.6728 28.3199 26.5473 28.3216C26.442 28.3229 26.2779 28.3576 26.1775 28.3229C26.1541 28.3147 26.1236 28.2954 26.1294 28.3036C26.1121 28.2774 26.1277 28.1582 26.1273 28.1205C26.1265 28.0527 26.129 27.9845 26.1207 27.9168C26.1187 27.8996 26.0808 27.7208 26.0821 27.744L26.0475 27.9472L26.0068 28.0141L25.8402 28.1256C25.7929 28.1436 25.7464 28.1213 25.8064 28.1552C25.8439 28.1766 25.9047 28.1749 25.9459 28.1775C26.0273 28.1826 26.1092 28.1809 26.1911 28.1809C26.3552 28.1809 26.5194 28.1822 26.6839 28.1784C26.7716 28.1762 26.8538 28.1754 26.939 28.1513C27.0468 28.1213 27.0361 28.1415 26.9341 28.0193C26.8193 27.8812 26.8366 27.9108 26.8119 28.0433C26.7929 28.1445 26.7942 28.2487 26.7946 28.3516C26.7946 28.3803 26.7831 28.4378 26.795 28.4609C26.7909 28.5085 26.8028 28.4974 26.8316 28.4271C26.8514 28.3812 26.8822 28.3456 26.9246 28.3207C26.7205 28.3422 26.5539 28.5403 26.5206 28.7452C26.491 28.9257 26.5872 29.1384 26.7901 29.117C27.1496 29.0797 27.4339 28.7765 27.475 28.403C27.489 28.2757 27.4635 28.1428 27.4796 28.0167C27.4935 27.9056 27.5499 27.7569 27.4956 27.6106C27.4413 27.4644 27.3241 27.3555 27.1776 27.3392C27.0719 27.3276 26.9711 27.3752 26.8666 27.3812C26.6432 27.3941 26.3758 27.4211 26.1549 27.3855C26.0232 27.3645 25.9414 27.3118 25.8003 27.3688C25.6336 27.4361 25.5012 27.6029 25.4382 27.7723C25.3753 27.9417 25.4144 28.0476 25.4403 28.2101C25.458 28.3216 25.4382 28.4429 25.4452 28.5561C25.4888 29.2799 26.3054 29.117 26.7909 29.1174C27.1788 29.1178 27.403 28.322 26.9254 28.3211L26.9238 28.3216Z" fill="white"/>
<path d="M29.8179 25.2187C29.9714 25.1329 30.0713 25.0519 30.2421 25.0064C30.4424 24.9533 30.6279 24.9395 30.8324 24.9224C31.0188 24.9069 31.1854 24.8589 31.3656 24.8212C31.5009 24.7929 31.6692 24.8508 31.8165 24.8585C31.9794 24.8671 32.1764 24.8233 32.3278 24.8718C32.5117 24.9305 32.6849 24.9811 32.877 25.0107C33.0465 25.0369 33.2423 25.0403 33.4024 25.1119C33.4764 25.1449 33.5361 25.2049 33.6114 25.2375C33.6949 25.2736 33.7817 25.2821 33.8689 25.3027C34.0318 25.3413 34.191 25.4498 34.3383 25.5313C34.5041 25.6226 34.6798 25.6869 34.8365 25.7954C34.9624 25.8824 35.0936 25.9365 35.2286 26.0046C35.2487 26.0149 35.4441 26.0981 35.4441 26.0955C35.4441 26.099 35.368 26.0402 35.3684 26.0407C35.3454 26.0377 35.3791 26.0021 35.3618 26.0595C35.3244 26.1856 35.3824 26.367 35.4017 26.4952C35.405 26.5166 35.4198 26.6354 35.4161 26.5616C35.4133 26.5076 35.4141 26.5634 35.41 26.5792C35.3808 26.6954 35.3808 26.8159 35.3964 26.9343C35.4342 27.2228 35.4569 27.4707 35.5248 27.7631C35.5819 28.0092 35.5527 28.2824 35.598 28.5379C35.6436 28.7952 35.6329 29.0516 35.6696 29.3123C35.7453 29.8505 35.7629 30.3899 35.846 30.9267C35.8588 31.0103 35.879 31.0888 35.9045 31.1694C35.902 31.1621 35.8847 31.0922 35.909 31.1994C35.9312 31.2981 35.9213 31.1351 35.909 31.2063C35.872 31.4151 35.8831 31.5682 35.9382 31.7727C35.9678 31.8834 35.939 31.9854 35.9464 32.1033C35.9547 32.238 36.0213 32.3619 36.0271 32.4901C36.0332 32.6337 36.018 32.7774 36.0332 32.924C36.0485 33.0707 36.0871 33.2053 36.1102 33.3408C36.1303 33.4609 36.1011 33.5929 36.118 33.7194C36.1381 33.8708 36.1887 33.9887 36.204 34.1397C36.2192 34.2906 36.2311 34.4334 36.2583 34.5779C36.2591 34.5813 36.2714 34.6915 36.2694 34.6199C36.2673 34.5603 36.2472 34.7219 36.2451 34.7434C36.2348 34.8437 36.2414 34.9513 36.2628 35.0495C36.2924 35.1855 36.3187 35.2704 36.32 35.4114C36.322 35.5915 36.3525 35.7751 36.3821 35.9521C36.4323 36.2502 36.4199 36.507 36.4557 36.8187C36.4714 36.9547 36.515 37.1167 36.5187 37.2226C36.522 37.3144 36.5207 37.4066 36.5397 37.4966C36.5495 37.5434 36.5648 37.5863 36.5787 37.6313L36.5948 37.6682C36.6166 37.7196 36.6145 37.7136 36.5878 37.6502C36.7639 37.5048 36.9399 37.359 37.116 37.2136C36.8231 37.0241 36.5401 36.8582 36.2163 36.7317C36.055 36.6687 35.8929 36.6078 35.7313 36.5456C35.6519 36.5151 35.5663 36.4907 35.489 36.4551C35.4116 36.4195 35.354 36.3621 35.2812 36.3222C35.1335 36.242 34.9435 36.2291 34.7805 36.2064C34.688 36.1931 34.6115 36.2 34.5263 36.1605C34.4411 36.1211 34.3712 36.0782 34.2815 36.0572C33.9318 35.9762 33.5682 35.9629 33.2123 35.9389C32.8565 35.9148 32.4944 36.004 32.1316 36.0032C31.7687 36.0023 31.4121 36.0263 31.064 36.1134C30.8962 36.1554 30.7279 36.1983 30.5621 36.2493C30.3963 36.3003 30.2215 36.3848 30.0487 36.4242C29.8969 36.459 29.748 36.4804 29.5974 36.5267C29.4222 36.5808 29.2761 36.6832 29.1062 36.7467C28.9244 36.8149 28.8067 36.8912 28.6533 37.007C28.5097 37.115 28.2879 37.2051 28.1254 37.281C27.9473 37.3646 27.786 37.3997 27.6388 37.5472C27.5952 37.591 27.5211 37.6489 27.5088 37.6669C27.489 37.6956 27.4684 37.6905 27.4931 37.6793C27.5643 37.6472 27.4623 37.6742 27.4368 37.6759L27.6005 37.7012C27.2965 37.5117 26.9719 37.3539 26.6564 37.1858C26.514 37.1099 26.3684 37.0902 26.2199 37.0383C26.0714 36.9864 25.9212 36.9045 25.771 36.841C25.6209 36.7776 25.4522 36.6961 25.2942 36.6832C25.2255 36.6777 25.1523 36.7025 25.0852 36.6948C25.0182 36.6871 24.9651 36.6464 24.9034 36.6215C24.7417 36.5567 24.5665 36.5576 24.3962 36.5379C24.2114 36.5164 24.0267 36.4907 23.8416 36.4748C23.4722 36.4435 23.1204 36.4796 22.7547 36.531C22.5815 36.5555 22.4083 36.5362 22.2351 36.5645C22.0619 36.5928 21.8863 36.6695 21.711 36.6935C21.5477 36.7158 21.4094 36.7064 21.2465 36.7536C21.0622 36.8063 20.8792 36.8672 20.7002 36.9362C20.3748 37.0614 20.0403 37.1678 19.7203 37.3063C19.5273 37.3894 19.3299 37.4804 19.1423 37.5747C19.0073 37.6429 18.9139 37.7706 18.7918 37.8367C18.6515 37.9126 18.5013 37.97 18.3623 38.0489C18.2709 38.1004 18.1903 38.1638 18.1208 38.2445C18.0961 38.2728 17.9768 38.4237 18.0558 38.3495L18.2232 38.2689L18.2047 38.2736L18.3684 38.2989C18.2742 38.244 18.4581 38.3808 18.4301 38.4053C18.4462 38.3911 18.4338 38.2861 18.433 38.2668C18.4301 38.1849 18.4186 38.1042 18.412 38.0228C18.4001 37.8727 18.3878 37.7196 18.3651 37.5704C18.3446 37.434 18.266 37.3131 18.2643 37.1811C18.2635 37.0953 18.2759 37.0095 18.2623 36.9229C18.2467 36.8234 18.2006 36.739 18.1767 36.6446C18.1483 36.5302 18.1664 36.3865 18.1401 36.245C18.1113 36.0919 18.0821 35.941 18.0599 35.7862C18.0377 35.6314 18.0619 35.4732 18.0303 35.3163C17.9965 35.1477 17.978 35.0375 17.9702 34.8793C17.9628 34.7387 17.9365 34.5955 17.9077 34.4574C17.8908 34.3763 17.8731 34.2889 17.8279 34.219C17.8377 34.2344 17.7666 34.1135 17.7925 34.1838C17.7851 34.2215 17.7863 34.2151 17.7962 34.1649L17.8155 34.0595C17.8456 33.7576 17.7032 33.4064 17.6847 33.1551C17.6707 32.9648 17.6304 32.8215 17.5831 32.6415C17.5456 32.4974 17.5547 32.3426 17.5185 32.1968C17.4473 31.9125 17.4037 31.6021 17.3687 31.2998C17.3338 30.9975 17.3033 30.696 17.2671 30.3946C17.2309 30.0932 17.1655 29.8312 17.1153 29.54C17.0133 28.947 16.9372 28.3197 16.8882 27.7507C16.8755 27.6015 16.8175 27.4621 16.7862 27.3176C16.7689 27.2391 16.736 27.1684 16.7159 27.0921C16.6957 27.0157 16.7072 26.9574 16.6994 26.8592C16.6945 26.7958 16.727 26.4939 16.6969 26.4643C16.7253 26.4922 16.5953 26.6547 16.6854 26.5492C16.6768 26.5591 16.7299 26.4737 16.7192 26.4909C16.78 26.3961 16.8492 26.3044 16.9154 26.2135C17.0187 26.0715 17.1668 25.9948 17.2729 25.8533C17.2885 25.8323 17.3679 25.6822 17.3782 25.6702C17.4251 25.6166 17.5243 25.5681 17.5839 25.5287C17.667 25.4738 17.7579 25.4296 17.8386 25.3705C17.8945 25.3293 17.9735 25.232 18.0204 25.2152C18.0879 25.1912 18.2035 25.2015 18.2899 25.1634C18.3762 25.1252 18.4421 25.0424 18.5248 25.006C18.6181 24.9648 18.7568 24.9644 18.8563 24.9365C18.9633 24.9065 19.0707 24.8782 19.1781 24.8482C19.4191 24.7813 19.6664 24.7809 19.914 24.7663C20.0272 24.7594 20.13 24.7419 20.2415 24.7684C20.353 24.795 20.4563 24.8126 20.5768 24.8066C20.8092 24.7955 21.0326 24.8589 21.2605 24.9087C21.4884 24.9584 21.7048 25.0463 21.9278 25.0746C22.0274 25.0875 22.1055 25.0733 22.1973 25.117C22.3022 25.1672 22.3972 25.2144 22.5091 25.2487C22.7337 25.3177 22.9481 25.4069 23.1776 25.4532C23.4072 25.4995 23.5549 25.6342 23.7433 25.7427C24.1024 25.9493 24.4941 25.1951 24.1333 24.9876C23.9757 24.8971 23.8449 24.798 23.6742 24.7281C23.5034 24.6582 23.3146 24.6368 23.1369 24.5703C22.9592 24.5039 22.7773 24.4666 22.6136 24.377C22.4388 24.2813 22.2874 24.2921 22.1014 24.2552C21.7069 24.1767 21.3144 24.0091 20.9104 23.9855C20.8138 23.9799 20.7158 24.0048 20.6204 23.9953C20.5406 23.9876 20.4657 23.9512 20.3859 23.9417C20.1827 23.9177 19.9568 23.9567 19.7532 23.9696C19.348 23.9953 18.9497 24.1102 18.556 24.2089C18.3993 24.2479 18.2705 24.3838 18.1455 24.4117C18.0554 24.4314 17.9677 24.431 17.8813 24.4751C17.7748 24.5292 17.704 24.6158 17.6131 24.6891C17.4741 24.8015 17.3066 24.8842 17.1606 24.9888C16.9989 25.1046 16.9261 25.2461 16.8171 25.4082C16.8849 25.307 16.7418 25.4429 16.7048 25.4755C16.6249 25.5467 16.5579 25.6307 16.4945 25.7174C16.3777 25.8782 16.2596 26.0411 16.1588 26.2135C15.993 26.4973 16.0095 26.8318 16.0371 27.1521C16.0469 27.2657 16.0593 27.4578 16.1054 27.6006C16.1465 27.7271 16.1905 27.8609 16.2189 27.9908C16.244 28.1044 16.2271 28.2627 16.2493 28.405C16.2716 28.5474 16.2876 28.6799 16.2979 28.8192C16.3189 29.1009 16.353 29.411 16.4168 29.6849C16.5447 30.2351 16.6093 30.7685 16.6743 31.3319C16.7081 31.6252 16.7529 31.9168 16.7912 32.2097C16.8084 32.3409 16.852 32.4777 16.8767 32.5943C16.9121 32.7598 16.903 32.9283 16.9561 33.0913C17.0022 33.2332 17.0133 33.2928 17.0219 33.4334C17.0318 33.5908 17.0808 33.7404 17.105 33.8858C17.1153 33.9476 17.126 34.0089 17.1359 34.0706C17.1396 34.0921 17.1614 34.2087 17.1548 34.1366C17.1482 34.0646 17.1421 34.2044 17.1412 34.2083C17.1071 34.4188 17.1639 34.5663 17.2375 34.7537C17.3428 35.0217 17.2877 35.2858 17.3535 35.5662C17.3868 35.7095 17.3683 35.8347 17.3827 35.9809C17.3975 36.1318 17.421 36.287 17.4514 36.4354C17.4819 36.5838 17.493 36.6832 17.5016 36.8243C17.5107 36.974 17.5901 37.1064 17.6028 37.2479C17.6172 37.4066 17.5827 37.5507 17.6386 37.7106C17.6855 37.8457 17.7102 37.9542 17.7267 38.0987C17.7411 38.2252 17.762 38.3547 17.7674 38.4816C17.7752 38.6565 17.7592 38.8079 17.8727 38.958C17.9862 39.108 18.1808 39.1085 18.3277 38.9931C18.3828 38.9498 18.4223 38.8936 18.4639 38.8379C18.4828 38.813 18.4993 38.78 18.5219 38.7577C18.4511 38.8268 18.5819 38.7414 18.5984 38.7333C18.7399 38.663 18.8921 38.6008 19.0262 38.5167C19.1077 38.4657 19.1583 38.3885 19.2352 38.3336C19.2891 38.2951 19.3599 38.2792 19.4232 38.2513C19.6071 38.1711 19.7807 38.0721 19.9675 37.9975C20.1642 37.9186 20.3674 37.8564 20.5657 37.7818C20.7479 37.7136 20.9269 37.636 21.1128 37.5785C21.1984 37.552 21.2938 37.5168 21.3823 37.5044C21.4757 37.4915 21.5724 37.5121 21.667 37.4954C21.862 37.4611 22.0467 37.3727 22.247 37.3564C22.4585 37.3393 22.6654 37.341 22.8777 37.3118C23.2949 37.2548 23.6746 37.2908 24.0913 37.3367C24.2707 37.3564 24.4591 37.3543 24.6253 37.4276C24.7068 37.4636 24.7882 37.4984 24.8775 37.5048C24.9598 37.5108 25.0429 37.4838 25.1235 37.4984C25.2881 37.5275 25.4477 37.633 25.6007 37.6973C25.7883 37.7762 25.9771 37.8247 26.1676 37.8881C26.3383 37.9447 26.5041 38.0704 26.6625 38.1574C26.8407 38.2552 27.0278 38.371 27.2117 38.4541C27.3438 38.5137 27.5092 38.476 27.6318 38.4087C27.7733 38.3311 27.8675 38.1969 27.9967 38.1132C28.0534 38.0768 28.1435 38.0704 28.2061 38.0421C28.2937 38.003 28.3772 37.9499 28.4624 37.9049C28.6491 37.8067 28.8137 37.7055 28.9873 37.5884C29.1214 37.4975 29.2983 37.4611 29.4435 37.3809C29.604 37.2921 29.7801 37.2617 29.9574 37.2325C30.1441 37.2016 30.3194 37.109 30.5004 37.0533C30.7012 36.9915 30.9056 36.9354 31.1105 36.8895C31.5128 36.7994 31.9205 36.8234 32.3278 36.8012C32.7351 36.7789 33.1292 36.7068 33.5369 36.7806C33.7085 36.8114 33.9236 36.8187 34.0828 36.8822C34.1672 36.9161 34.2379 36.9662 34.3284 36.9885C34.4239 37.0121 34.5263 37.0113 34.623 37.0271C34.7061 37.0404 34.8147 37.04 34.892 37.0751C34.9694 37.1103 35.0249 37.1733 35.0998 37.2081C35.2997 37.3003 35.5169 37.3663 35.7222 37.4461C35.8942 37.5129 36.0764 37.5708 36.2389 37.66C36.4014 37.7492 36.566 37.862 36.7268 37.9657C36.986 38.133 37.2275 37.7458 37.2551 37.5292C37.2748 37.3732 37.2238 37.2604 37.1905 37.1172C37.1633 37.001 37.1835 36.82 37.1514 36.6708C37.0889 36.3796 37.123 36.1219 37.0839 35.8398C37.0449 35.5577 37.0037 35.2927 36.9848 35.0101C36.9794 34.9325 36.9667 34.86 36.9449 34.7854C36.9387 34.7635 36.9009 34.6117 36.9042 34.6623C36.9087 34.7382 36.919 34.5912 36.919 34.5916C36.9276 34.5384 36.9317 34.4925 36.9317 34.4389C36.9317 34.3476 36.9198 34.258 36.9058 34.1679C36.8869 34.0436 36.8749 33.9188 36.8626 33.7936C36.8482 33.6513 36.7849 33.5145 36.7791 33.3824C36.7713 33.2066 36.7791 33.0548 36.7355 32.8803C36.7092 32.7761 36.6952 32.65 36.6878 32.5338C36.6779 32.3846 36.7108 32.2384 36.6804 32.0875C36.6664 32.0171 36.6191 31.9417 36.6117 31.8718C36.6067 31.8242 36.6236 31.7719 36.6265 31.7251C36.6376 31.5489 36.5787 31.4173 36.5434 31.2522C36.5318 31.1994 36.5462 31.2586 36.5438 31.2758C36.5508 31.2264 36.5685 31.1784 36.5742 31.1283C36.5857 31.0275 36.5812 30.9207 36.5602 30.8217C36.5035 30.5524 36.4401 30.2724 36.429 29.9872C36.4183 29.7102 36.4055 29.4448 36.3562 29.1708C36.3323 29.0379 36.2982 28.884 36.2957 28.748C36.2932 28.6027 36.3089 28.4659 36.2825 28.3197C36.234 28.05 36.2426 27.7773 36.1998 27.5041C36.1801 27.3772 36.1258 27.2348 36.1217 27.1431C36.1143 26.9784 36.0999 26.8309 36.0678 26.6697C36.0637 26.6483 36.0485 26.5299 36.0513 26.6037C36.0542 26.6817 36.0674 26.5299 36.067 26.5329C36.0822 26.4429 36.0838 26.355 36.0756 26.2636C36.0637 26.1324 36.0357 26.0076 36.0324 25.8756C36.0283 25.7079 36.004 25.5214 35.8888 25.394C35.807 25.3031 35.6325 25.247 35.5227 25.1981C35.3787 25.1338 35.2606 25.0489 35.1253 24.9687C34.9459 24.8623 34.748 24.7804 34.5633 24.684C34.4625 24.6312 34.363 24.5738 34.2564 24.5343C34.168 24.5013 34.0697 24.5026 33.9829 24.47C33.9055 24.4408 33.8417 24.3774 33.7665 24.3422C33.6636 24.2942 33.5513 24.2762 33.4423 24.2517C33.2267 24.2042 32.9939 24.205 32.7824 24.1394C32.6857 24.1094 32.5985 24.0519 32.4969 24.0374C32.3953 24.0228 32.2904 24.0545 32.1875 24.0562C31.9872 24.0588 31.7996 23.9953 31.6038 23.9863C31.4758 23.9803 31.3787 24.0382 31.259 24.0687C31.1689 24.0914 31.0628 24.0952 30.9706 24.1051C30.7427 24.1295 30.5309 24.1377 30.3062 24.1973C30.1943 24.2269 30.0754 24.2526 29.9681 24.2981C29.8718 24.3388 29.8006 24.416 29.7114 24.4657C29.532 24.5661 29.4024 24.7826 29.4357 24.9996C29.4645 25.1882 29.6472 25.3117 29.82 25.2152L29.8179 25.2187Z" fill="white"/>
<path d="M26.0892 28.7627C26.1489 29.3785 26.2332 29.9908 26.2904 30.6083C26.3184 30.9123 26.3307 31.2137 26.3612 31.5177C26.3735 31.6429 26.3834 31.7677 26.3887 31.8933C26.3965 32.076 26.441 32.2449 26.4595 32.4246C26.492 32.7389 26.4797 33.0541 26.5294 33.3671C26.5508 33.503 26.5739 33.6372 26.5915 33.774C26.6129 33.9404 26.6022 34.108 26.6269 34.2744C26.6718 34.5758 26.6751 34.8781 26.7191 35.1822C26.7631 35.4862 26.7516 35.7902 26.7964 36.0916C26.8458 36.4209 26.847 36.755 26.9001 37.086C26.9532 37.417 26.9741 37.7952 27.012 38.1455C27.056 38.5482 27.8681 38.5211 27.8183 38.0623C27.7854 37.7592 27.7587 37.456 27.7274 37.1533C27.7118 37.0024 27.6867 36.8519 27.6682 36.7009C27.6484 36.538 27.6591 36.3755 27.639 36.2125C27.6015 35.9098 27.5945 35.6058 27.5587 35.3035C27.5423 35.1641 27.5197 35.0218 27.495 34.8837C27.4658 34.7208 27.4892 34.56 27.4686 34.3953C27.43 34.0836 27.4189 33.7671 27.3691 33.4558C27.3201 33.1497 27.3098 32.8551 27.2839 32.5477C27.258 32.2432 27.2136 31.9452 27.1864 31.6408C27.1741 31.504 27.1613 31.3681 27.1395 31.2326C27.1136 31.0679 27.1272 30.8985 27.1136 30.7313C27.0581 30.0448 26.9626 29.3639 26.896 28.6796C26.8569 28.2769 26.0452 28.3031 26.0896 28.7627H26.0892Z" fill="white"/>
<path d="M17.9568 38.9739C18.1765 39.1145 18.4246 39.2273 18.6286 39.3881C18.7282 39.4666 18.8335 39.5326 18.9614 39.5451C19.0466 39.5532 19.1227 39.539 19.1967 39.4902C19.2494 39.455 19.2827 39.3851 19.3317 39.3538C19.3983 39.3114 19.5802 39.2608 19.6851 39.2003C19.813 39.1266 19.9368 39.0459 20.0644 38.9722C20.3552 38.8041 20.6843 38.7904 20.9929 38.6622C21.1397 38.6013 21.2776 38.5438 21.4335 38.5069C21.6054 38.4658 21.779 38.4538 21.9485 38.398C22.0888 38.3522 22.2155 38.4126 22.3587 38.3912C22.4389 38.3792 22.4998 38.3414 22.5747 38.3174C22.6496 38.2934 22.6899 38.3046 22.7689 38.3174C22.9449 38.347 23.1099 38.2951 23.2864 38.2994C23.4629 38.3037 23.6291 38.3547 23.8076 38.3787C24.1511 38.4255 24.5016 38.4456 24.8357 38.5451C24.983 38.5888 25.1068 38.678 25.2508 38.7316C25.4154 38.793 25.5906 38.8307 25.7519 38.898C26.0596 39.0262 26.3035 39.2865 26.6104 39.4087C26.747 39.4632 26.854 39.533 26.9795 39.6115C27.1255 39.7033 27.2827 39.6694 27.4238 39.5879C27.655 39.455 27.8566 39.3448 28.1161 39.2796C28.4284 39.2012 28.7419 39.0901 29.0475 38.9825C29.2096 38.9254 29.3734 38.8538 29.5424 38.8298C29.6305 38.8174 29.7202 38.814 29.8049 38.7831C29.8806 38.7556 29.9464 38.7016 30.0225 38.6768C30.1818 38.6253 30.3681 38.6309 30.5335 38.6081C30.7199 38.5824 30.9013 38.537 31.0885 38.5125C31.2394 38.4928 31.383 38.4306 31.5319 38.4173C31.7146 38.401 31.9129 38.3877 32.0964 38.392C32.4979 38.4019 32.8982 38.3835 33.2989 38.4058C33.4939 38.4165 33.6646 38.4718 33.8563 38.4954C34.048 38.519 34.2541 38.4967 34.4314 38.5541C34.6088 38.6116 34.7634 38.6905 34.9469 38.7304C35.0366 38.7501 35.1238 38.7449 35.2131 38.7544C35.3024 38.7638 35.3809 38.8045 35.4644 38.8358C35.6681 38.9122 35.8676 38.9709 36.0663 39.0631C36.2366 39.142 36.3856 39.2209 36.5448 39.3186C36.7719 39.4584 36.9541 39.2732 37.0417 39.0575C37.152 38.7874 37.1306 38.5498 37.1248 38.2668C37.1203 38.0421 37.1837 37.8003 37.2075 37.5769C37.2269 37.3977 37.1454 37.1627 36.9401 37.1666C36.7348 37.1704 36.5941 37.4058 36.5736 37.5941C36.5501 37.8123 36.5147 38.0297 36.4942 38.2484C36.4818 38.38 36.5016 38.4954 36.5065 38.6227C36.5077 38.6596 36.502 38.7051 36.4966 38.7432C36.4896 38.7955 36.4901 38.7964 36.4983 38.7462C36.4859 38.7818 36.4724 38.817 36.4576 38.8513C36.6233 38.7642 36.7891 38.6772 36.9545 38.5901C36.6653 38.4122 36.3744 38.2394 36.0532 38.1262C35.8886 38.0679 35.7179 38.0074 35.5513 37.956C35.3846 37.9045 35.2267 37.9208 35.0654 37.8792C34.9169 37.8406 34.7836 37.7609 34.6371 37.7244C34.4668 37.6815 34.2784 37.6824 34.1044 37.6691C33.9518 37.6575 33.8123 37.6009 33.6605 37.5829C33.4758 37.5615 33.2828 37.5533 33.0973 37.549C32.9225 37.5447 32.7468 37.5735 32.5711 37.5743C32.3815 37.5752 32.1963 37.5503 32.0067 37.5632C31.838 37.5748 31.6628 37.5675 31.4962 37.5962C31.3283 37.6249 31.1707 37.6717 31.0008 37.6965C30.8309 37.7214 30.6573 37.7664 30.4817 37.7857C30.306 37.805 30.0995 37.8145 29.9312 37.8805C29.8654 37.9062 29.8086 37.9555 29.7416 37.977C29.6638 38.0018 29.5737 37.9993 29.4931 38.0138C29.3182 38.0456 29.1479 38.1185 28.9801 38.1781C28.6378 38.2994 28.2906 38.3976 27.9458 38.5065C27.7726 38.5614 27.6208 38.6086 27.4645 38.7089C27.4003 38.7501 27.3308 38.7814 27.267 38.8225C27.1708 38.8851 27.3378 38.832 27.2337 38.829L27.3892 38.8839C27.1391 38.7085 26.8692 38.5944 26.6137 38.4319C26.3583 38.2694 26.1057 38.109 25.8119 38.0271C25.5182 37.9452 25.2759 37.7802 24.9904 37.7047C24.6748 37.6215 24.3412 37.5919 24.0178 37.5546C23.6945 37.5173 23.439 37.4388 23.1231 37.4839C22.9783 37.5044 22.8516 37.4517 22.7096 37.4616C22.5677 37.4714 22.4537 37.5679 22.3151 37.5555C22.0222 37.5297 21.7301 37.6206 21.4417 37.6845C21.1455 37.7501 20.8822 37.9122 20.5889 37.9795C20.4194 38.0186 20.275 38.0336 20.1133 38.1107C19.9677 38.1806 19.8352 38.2655 19.6958 38.3462C19.5682 38.4199 19.4473 38.4855 19.3103 38.5365C19.2255 38.5678 19.1433 38.6064 19.0713 38.6635C19.04 38.6883 19.0071 38.7183 18.9803 38.7484C18.9618 38.7694 18.896 38.8234 18.9717 38.7715L19.1346 38.7123C19.0499 38.7188 18.8684 38.537 18.7821 38.4928C18.6385 38.419 18.5048 38.3346 18.3682 38.2471C18.1958 38.1369 18.0136 38.2321 17.9165 38.404C17.8342 38.5494 17.7857 38.8654 17.9584 38.9756L17.9568 38.9739Z" fill="white"/>
<path d="M31.344 37.4064C31.2486 37.5334 31.3634 37.5694 31.3852 37.7289C31.407 37.8884 31.4119 37.8876 31.4337 38.0466C31.4555 38.2057 31.4584 38.2057 31.4798 38.3648C31.5012 38.5239 31.4983 38.5247 31.5201 38.6838C31.5419 38.8429 31.5456 38.8425 31.567 39.002C31.5884 39.1615 31.5826 39.1623 31.6045 39.3214C31.6263 39.4805 31.6234 39.4814 31.6452 39.6409C31.667 39.8004 31.6723 39.7995 31.6941 39.959C31.7159 40.1185 31.7172 40.1185 31.739 40.2776C31.7608 40.4367 31.6345 40.5486 31.783 40.5936C31.9315 40.6387 31.8743 40.4714 31.9677 40.3467C32.0611 40.2219 32.0652 40.2257 32.1582 40.1014C32.2512 39.977 32.2516 39.977 32.3445 39.8523C32.4375 39.7275 32.4351 39.7253 32.5284 39.601C32.6218 39.4766 32.5626 39.3613 32.7136 39.3489C32.8645 39.3364 32.8152 39.4634 32.9209 39.5718C33.0266 39.6803 33.034 39.6722 33.1394 39.7802C33.2447 39.8883 33.2426 39.8913 33.3479 39.9998C33.4532 40.1083 33.4549 40.107 33.5606 40.2155C33.6664 40.3239 33.6396 40.51 33.7708 40.4376C33.9021 40.3651 33.7474 40.2785 33.7297 40.1215C33.712 39.9646 33.7207 39.9638 33.703 39.8068C33.6853 39.6499 33.6762 39.6512 33.6581 39.4942C33.64 39.3373 33.6396 39.3373 33.6215 39.1804C33.6034 39.0234 33.6137 39.0221 33.596 38.8652C33.5783 38.7083 33.568 38.7095 33.5503 38.5526C33.5326 38.3957 33.5401 38.3948 33.522 38.2379C33.5039 38.0809 33.508 38.0805 33.4899 37.9236C33.4718 37.7666 33.466 37.7671 33.4479 37.6101C33.4298 37.4532 33.5261 37.4009 33.4113 37.2975C33.2965 37.1942 33.2648 37.2997 33.1176 37.3078C32.9703 37.316 32.9703 37.3168 32.8226 37.325C32.6749 37.3331 32.6753 37.3378 32.528 37.346C32.3807 37.3541 32.3807 37.352 32.2331 37.3601C32.0854 37.3683 32.0858 37.37 31.9381 37.3781C31.7904 37.3863 31.7892 37.4159 31.6435 37.3893C31.4851 37.3606 31.4354 37.2855 31.3444 37.4064H31.344Z" fill="white"/>
<path d="M31.095 37.2176C31.0012 37.3784 30.9243 37.549 30.9794 37.7407C31.0148 37.8642 31.0543 37.9607 31.0757 38.0919C31.1094 38.3033 31.1378 38.5155 31.165 38.7278C31.2271 39.214 31.2958 39.6994 31.3637 40.1848C31.3764 40.2753 31.3933 40.3606 31.3867 40.4481C31.3752 40.5995 31.341 40.7264 31.441 40.8584C31.6755 41.168 32.0869 40.9103 32.2008 40.6239C32.2251 40.563 32.2872 40.4352 32.2181 40.536C32.2551 40.482 32.2983 40.4331 32.3387 40.3821C32.4024 40.3002 32.4641 40.217 32.5263 40.1338C32.5983 40.0377 32.6698 39.9413 32.7398 39.8435C32.7854 39.7792 32.829 39.7183 32.8632 39.645C32.8846 39.5978 32.9014 39.5493 32.9142 39.4987C32.9393 39.4211 32.9294 39.4434 32.885 39.5648L32.7291 39.714L32.6357 39.7534L32.5028 39.6531C32.5913 39.7625 32.6361 39.8787 32.7435 39.9807C32.8369 40.069 32.9282 40.1578 33.017 40.2517C33.1002 40.34 33.2001 40.4211 33.2754 40.5167C33.3507 40.6123 33.3602 40.7277 33.4634 40.7988C33.8139 41.039 34.2496 40.4927 34.1574 40.1428C34.1258 40.0227 34.0735 39.9597 34.0636 39.8323C34.0521 39.6853 34.0287 39.5403 34.0081 39.3945C33.9332 38.8581 33.8995 38.3166 33.8345 37.7789C33.8201 37.6618 33.7933 37.5533 33.8012 37.4423C33.8143 37.2489 33.8127 37.0842 33.6543 36.9509C33.5313 36.8475 33.3996 36.8531 33.2557 36.89C33.1409 36.9196 33.0265 36.923 32.9068 36.9303C32.6328 36.947 32.3588 36.9616 32.0852 36.9796C31.9289 36.9899 31.8232 37.0023 31.6714 36.9655C31.4805 36.9191 31.3024 36.9822 31.1695 37.1323C31.044 37.2738 30.9251 37.5053 31.0465 37.691C31.1559 37.8578 31.404 37.8149 31.5225 37.6811C31.4015 37.8179 31.2657 37.7013 31.4007 37.7549C31.4451 37.7724 31.4941 37.7767 31.5406 37.7832C31.6315 37.7964 31.7047 37.7892 31.794 37.7789C31.9672 37.7587 32.1445 37.7553 32.3185 37.7476C32.4925 37.7398 32.6579 37.7253 32.8274 37.7154C32.9064 37.7107 32.9862 37.7085 33.0648 37.6991C33.1121 37.6931 33.1874 37.6953 33.2277 37.664L33.2668 37.6481C33.159 37.5919 33.1261 37.5966 33.1676 37.6622L33.1195 37.4894C33.1294 37.4517 33.1285 37.4586 33.1166 37.51C33.1096 37.5602 33.1043 37.6104 33.1002 37.661C33.0981 37.7506 33.117 37.8423 33.1294 37.9311C33.1425 38.0254 33.1532 38.1318 33.1635 38.2338C33.1894 38.4937 33.2244 38.7518 33.2532 39.0112C33.2832 39.2792 33.3001 39.5476 33.34 39.8148C33.3552 39.916 33.3643 40.0154 33.3725 40.1175C33.3795 40.205 33.3836 40.2976 33.4087 40.3821C33.4239 40.4331 33.4869 40.6436 33.4774 40.4914L33.5198 40.2899L33.5046 40.3199L33.716 40.0716L33.7876 40.057L33.9468 40.1051C33.9509 40.1076 33.9694 40.1274 33.969 40.1338C33.9711 40.1008 33.9213 40.0197 33.9036 39.991C33.8608 39.9207 33.7987 39.8641 33.7415 39.8062C33.6411 39.7046 33.542 39.6017 33.4433 39.4979C33.361 39.4113 33.2421 39.3328 33.1771 39.2312C33.1183 39.139 33.1067 39.0635 33.0059 39.0035C32.915 38.9495 32.8097 38.9456 32.7089 38.9705C32.4995 39.0224 32.3498 39.1857 32.279 39.3945C32.2704 39.4198 32.2198 39.5168 32.2658 39.4477C32.3222 39.3624 32.2173 39.4979 32.2115 39.5056C32.1729 39.5583 32.135 39.6115 32.0959 39.6643C32.0034 39.789 31.9108 39.9142 31.8145 40.036C31.7705 40.0918 31.7277 40.1462 31.6907 40.2071C31.6516 40.271 31.6237 40.3345 31.6002 40.4061C31.6006 40.4044 31.548 40.5501 31.5772 40.479L31.7055 40.2946L31.685 40.3182L31.8557 40.2135L31.8244 40.223L31.9968 40.217C31.9647 40.2161 31.9347 40.2071 31.9075 40.19L32.0404 40.2903L32.0458 40.3126L32.0486 40.5047C32.0671 40.3285 32.091 40.1857 32.0659 40.006C32.0486 39.8829 32.0322 39.7599 32.0133 39.6372C31.9746 39.389 31.9495 39.1398 31.9166 38.8907C31.8795 38.6081 31.8409 38.3251 31.7997 38.043C31.782 37.9234 31.7652 37.8033 31.7463 37.6837C31.7245 37.5473 31.666 37.4238 31.6434 37.2939L31.6463 37.486L31.6545 37.444L31.5665 37.6451L31.5953 37.5958C31.6862 37.4401 31.7607 37.191 31.587 37.0598C31.4299 36.9406 31.1859 37.0632 31.0958 37.218L31.095 37.2176Z" fill="white"/>
<path d="M18.4405 29.6859C18.7738 29.3682 19.1629 29.1229 19.5628 28.9073C20.0248 28.6581 20.5514 28.5827 21.0619 28.5364C21.5441 28.4926 22.0221 28.5977 22.4788 28.749C22.9354 28.9008 23.3711 29.1195 23.7496 29.4278C23.9108 29.559 24.1038 29.3794 24.1498 29.2194C24.212 29.0037 24.1334 28.7863 23.9688 28.6521C23.5558 28.3155 23.0712 28.0861 22.5746 27.918C22.0567 27.7427 21.5054 27.635 20.9583 27.6852C20.3959 27.7371 19.8084 27.8336 19.2999 28.108C18.8515 28.3498 18.4158 28.6354 18.0419 28.9917C17.7556 29.2644 18.0888 30.0204 18.4405 29.6851V29.6859Z" fill="white"/>
<path d="M18.8311 31.8077C19.5419 31.1388 20.4503 30.6881 21.4171 30.6585C22.4019 30.6285 23.3239 30.9501 24.1138 31.5633C24.2771 31.6902 24.5079 31.4827 24.5819 31.3416C24.677 31.1607 24.6741 30.9394 24.5087 30.8112C23.6258 30.126 22.5908 29.8164 21.4981 29.8524C20.4178 29.888 19.3585 30.4128 18.5628 31.1615C18.4172 31.2987 18.3024 31.5264 18.3896 31.7314C18.467 31.9132 18.6945 31.9359 18.8306 31.8077H18.8311Z" fill="white"/>
<path d="M19.454 34.9959C19.7864 34.6726 20.1653 34.4299 20.5676 34.2134C20.803 34.0869 21.0704 34.0187 21.3254 33.9522C21.5805 33.8858 21.8458 33.8305 22.0993 33.8343C23.066 33.8485 23.9764 34.1126 24.7457 34.7369C25.0876 35.0143 25.4134 34.2314 25.1024 33.9788C24.2414 33.2795 23.2158 33.0063 22.1383 32.9909C21.8598 32.987 21.5607 33.0561 21.2917 33.1285C21.0226 33.201 20.7277 33.2696 20.471 33.4012C20.0069 33.6392 19.556 33.9261 19.1767 34.2953C19.0278 34.4402 18.9488 34.6777 19.0315 34.8823C19.1014 35.0555 19.31 35.1357 19.454 34.9959Z" fill="white"/>
<path d="M28.7321 29.7237C29.4533 29.0222 30.4028 28.5402 31.4033 28.524C31.8867 28.5162 32.3589 28.5844 32.8197 28.7414C33.2566 28.8901 33.6474 29.1217 34.0243 29.3918C34.4468 29.6946 34.6047 28.9163 34.276 28.6809C33.8626 28.3846 33.4261 28.1149 32.9476 27.9507C32.4248 27.771 31.8834 27.6749 31.3333 27.6831C30.2259 27.6998 29.1513 28.1994 28.3479 28.9806C28.1969 29.1277 28.1903 29.3661 28.2862 29.5505C28.3594 29.6911 28.5799 29.8721 28.7321 29.7241V29.7237Z" fill="white"/>
<path d="M29.1512 31.8391C29.4988 31.4974 29.8675 31.2148 30.3105 31.0197C30.7795 30.8135 31.2826 30.7088 31.7882 30.6707C32.7233 30.6004 33.7086 30.9824 34.438 31.5759C34.6001 31.7079 34.8058 31.512 34.8679 31.3627C34.9486 31.1698 34.9231 30.934 34.7593 30.8006C33.9402 30.1343 32.8311 29.7475 31.7882 29.826C30.6709 29.91 29.6572 30.3508 28.8414 31.1531C28.6942 31.298 28.6341 31.5523 28.7238 31.7469C28.8048 31.9227 29.0093 31.9785 29.1512 31.8391Z" fill="white"/>
<path d="M29.7798 34.9788C30.5092 34.2958 31.441 33.8713 32.4263 33.8378C33.3782 33.8052 34.3302 34.1496 35.0826 34.7456C35.2468 34.8759 35.448 34.6495 35.4986 34.5037C35.5701 34.2966 35.5216 34.0818 35.3554 33.9502C34.5145 33.2843 33.4358 32.9425 32.3802 32.9944C31.2698 33.0489 30.2488 33.5467 29.428 34.3151C29.131 34.5929 29.3976 35.3365 29.7794 34.9788H29.7798Z" fill="white"/>
<path d="M25.7229 24.3188C25.5868 24.2198 25.5357 24.0491 25.4732 23.8947C25.3848 23.6778 25.2827 23.4719 25.2062 23.2494C25.0598 22.8236 24.9787 22.3957 24.8779 21.9575C24.7771 21.5192 24.7376 21.1063 24.7204 20.678C24.7043 20.2775 24.6813 19.8208 24.7562 19.4259C24.8133 19.1236 25.068 18.79 25.3979 18.9576C25.7266 19.1244 25.9615 19.4898 26.1063 19.8255C26.1857 20.009 26.2355 20.2131 26.2738 20.41C26.2898 20.4931 26.3087 20.5759 26.3042 20.6612C26.3026 20.6917 26.3005 20.7183 26.2931 20.7483C26.2775 20.8117 26.3223 20.7483 26.2804 20.753C25.8694 20.7976 26.0907 20.2929 26.2688 20.1107C26.5873 19.7848 27.0316 19.6467 27.4644 19.7668C27.6363 19.8144 27.791 19.9211 27.8465 20.1068C27.8799 20.2179 27.9358 20.5116 27.8955 20.5982L28.0037 20.4425C28.0498 20.3949 28.0436 20.4901 28.0189 20.4142C28.0164 20.4065 27.9881 20.3684 27.9856 20.3649C27.9391 20.2929 27.8943 20.1956 27.8807 20.1098C27.8609 19.9876 27.9292 19.7449 28.03 19.6763C28.1765 19.5768 28.3994 19.7612 28.5138 19.8478C28.6813 19.9747 28.7623 20.0927 28.7882 20.3088C28.8927 21.1783 28.5212 22.0364 27.9601 22.6607C27.6861 22.9655 28.0551 23.6499 28.4052 23.2601C29.0429 22.5505 29.4193 21.5848 29.4213 20.6098C29.4226 20.1098 29.3391 19.5914 28.9746 19.2376C28.6607 18.9332 28.1633 18.63 27.7531 18.9092C27.3932 19.1545 27.2348 19.7359 27.2669 20.16C27.299 20.584 27.5244 21.1758 27.9543 21.283C28.5101 21.4215 28.5266 20.6514 28.4961 20.2843C28.4566 19.8075 28.3176 19.3663 27.9263 19.0777C27.5651 18.8114 27.0246 18.8144 26.6239 18.9572C26.1841 19.1142 25.8118 19.4126 25.6024 19.8525C25.393 20.2925 25.349 20.828 25.6193 21.2542C25.8718 21.6522 26.4663 21.7752 26.7535 21.3383C27.0056 20.9545 26.932 20.4087 26.8246 19.9885C26.7 19.5005 26.5087 19.0481 26.1989 18.6549C25.9545 18.3453 25.5629 18.0336 25.1597 18.0692C24.6965 18.1099 24.4188 18.4594 24.2485 18.883C24.0547 19.365 24.1103 19.943 24.1053 20.4537C24.1 21.0064 24.1526 21.5793 24.2682 22.1195C24.3838 22.6598 24.5089 23.1988 24.6924 23.7279C24.7775 23.9732 24.889 24.206 24.9906 24.444C25.0923 24.682 25.2128 24.9118 25.4226 25.0645C25.8122 25.3483 26.0418 24.5512 25.7229 24.3192V24.3188Z" fill="#6C484B"/>
<path d="M20.6187 16.0072C20.9285 16.2794 21.2292 16.5629 21.5254 16.851C21.8114 17.1293 22.4371 16.5852 22.1133 16.27C21.8171 15.9819 21.5164 15.6984 21.2066 15.4262C20.9063 15.1624 20.2814 15.7109 20.6187 16.0072Z" fill="white"/>
<path d="M26.0977 13.5401C26.0899 14.0006 26.0924 14.4607 26.1158 14.9208C26.1253 15.1077 26.2528 15.2857 26.4499 15.2308C26.647 15.1759 26.777 14.9323 26.7671 14.7325C26.7436 14.2724 26.7412 13.8123 26.749 13.3518C26.7523 13.1627 26.6033 12.9891 26.4149 13.0418C26.2117 13.0984 26.1014 13.3377 26.0977 13.5401Z" fill="white"/>
<path d="M30.6301 15.991C30.8946 15.6403 31.1579 15.2891 31.4208 14.9371C31.5389 14.7788 31.473 14.5704 31.2974 14.501C31.1061 14.4247 30.8634 14.5061 30.7391 14.6725C30.4762 15.0245 30.213 15.3757 29.9484 15.7265C29.8295 15.8843 29.897 16.0931 30.0718 16.1625C30.264 16.2389 30.505 16.1565 30.6301 15.991Z" fill="white"/>
<path d="M32.7089 17.0029C32.8837 17.0029 33.1269 16.9415 33.145 16.7186C33.1614 16.517 32.9352 16.3618 32.7611 16.3618C32.5871 16.3618 32.3432 16.4231 32.3251 16.6461C32.3086 16.8476 32.5349 17.0029 32.7089 17.0029Z" fill="white"/>
</g>
<defs>
<filter id="filter0_i_18107_23958" x="3" y="3" width="48" height="49" filterUnits="userSpaceOnUse" color-interpolation-filters="sRGB">
<feFlood flood-opacity="0" result="BackgroundImageFix"/>
<feBlend mode="normal" in="SourceGraphic" in2="BackgroundImageFix" result="shape"/>
<feColorMatrix in="SourceAlpha" type="matrix" values="0 0 0 0 0 0 0 0 0 0 0 0 0 0 0 0 0 0 127 0" result="hardAlpha"/>
<feOffset dy="1.5"/>
<feGaussianBlur stdDeviation="0.5"/>
<feComposite in2="hardAlpha" operator="arithmetic" k2="-1" k3="1"/>
<feColorMatrix type="matrix" values="0 0 0 0 0.469786 0 0 0 0 0.351917 0 0 0 0 0.686667 0 0 0 0.33 0"/>
<feBlend mode="normal" in2="shape" result="effect1_innerShadow_18107_23958"/>
</filter>
<filter id="filter1_f_18107_23958" x="0" y="0" width="54" height="54" filterUnits="userSpaceOnUse" color-interpolation-filters="sRGB">
<feFlood flood-opacity="0" result="BackgroundImageFix"/>
<feBlend mode="normal" in="SourceGraphic" in2="BackgroundImageFix" result="shape"/>
<feGaussianBlur stdDeviation="8" result="effect1_foregroundBlur_18107_23958"/>
</filter>
<linearGradient id="paint0_linear_18107_23958" x1="11" y1="7.5" x2="41.07" y2="51.967" gradientUnits="userSpaceOnUse">
<stop stop-color="#29204A"/>
<stop offset="1" stop-color="#251F40"/>
</linearGradient>
<clipPath id="clip0_18107_23958">
<rect width="21.269" height="28" fill="white" transform="translate(16 13)"/>
</clipPath>
</defs>
</svg>
