<svg width="54" height="54" viewBox="0 0 54 54" fill="none" xmlns="http://www.w3.org/2000/svg">
<g filter="url(#filter0_i_18107_23961)">
<rect x="3" y="3" width="48" height="48" rx="16" fill="url(#paint0_linear_18107_23961)"/>
</g>
<g filter="url(#filter1_f_18107_23961)">
<circle cx="27" cy="27" r="11" fill="#E478FA" fill-opacity="0.65"/>
</g>
<g clip-path="url(#clip0_18107_23961)">
<path d="M23.5491 22.1751C23.5507 22.4393 23.5575 22.7098 23.6342 22.9639C23.7109 23.218 23.8023 23.4646 23.8764 23.7177C23.9384 23.93 23.9709 24.1391 24.0786 24.336C24.2089 24.5752 24.3802 24.8045 24.542 25.0226C24.6623 25.184 24.7527 25.3698 24.8819 25.5233C25.0248 25.6927 25.2161 25.8076 25.3574 25.976C25.6947 26.3777 26.1139 26.607 26.5405 26.896C26.7391 27.0304 26.9413 27.1538 27.1541 27.265C27.3879 27.3872 27.6417 27.4523 27.876 27.5736C28.3283 27.8065 28.7959 27.9314 29.2818 28.0685C29.7589 28.203 30.2417 28.2718 30.7308 28.3449C31.2199 28.4179 31.7363 28.4783 32.2486 28.4698C33.3686 28.4507 34.4877 28.294 35.571 28.0071L35.3608 27.9828C35.5736 28.0929 35.7695 28.3385 35.966 28.4963C36.204 28.6879 36.4388 28.8658 36.6931 29.0346C36.9474 29.2035 37.1765 29.4115 37.4129 29.6C37.6514 29.79 37.9062 29.9605 38.151 30.1426C38.2976 30.2516 38.2692 30.2622 38.3806 30.412C38.492 30.5618 38.6506 30.6704 38.8419 30.6502C39.3147 30.6005 39.3882 30.0616 39.2291 29.6953C39.2154 29.664 39.1965 29.6227 39.1786 29.5952C39.2044 29.6344 39.1629 29.7286 39.1917 29.6365C39.2012 29.6058 39.1981 29.565 39.2017 29.5211C39.2196 29.2988 39.2128 29.0997 39.1844 28.879C39.1523 28.6297 39.2322 28.2639 39.1865 27.9531C39.1476 27.6906 39.2023 27.3385 39.177 27.005C39.1618 26.8065 39.1424 26.6138 39.1166 26.4164C39.1003 26.2925 39.1072 26.1401 39.1319 26.0008L38.9585 26.292C39.6546 25.6949 40.2561 24.9596 40.6323 24.1121C40.7347 23.8818 40.7804 23.6573 40.824 23.4112C40.8677 23.165 40.9465 22.9411 40.958 22.6902C40.9796 22.2222 40.9754 21.7611 40.8529 21.3085C40.6065 20.3986 40.2493 19.4753 39.5705 18.7946C39.4082 18.6315 39.2269 18.4812 39.0557 18.3272C38.8844 18.1731 38.7258 18.0005 38.5408 17.8698C38.3858 17.7602 38.2067 17.6972 38.0491 17.5935C37.8468 17.4606 37.6561 17.3314 37.437 17.2277C37.218 17.1239 37.0388 16.9836 36.8245 16.9005C36.6101 16.8174 36.3863 16.7655 36.1704 16.6729C35.9739 16.5882 35.7695 16.5045 35.5652 16.441C35.3282 16.3669 35.0797 16.3648 34.8412 16.2955C34.4004 16.1684 33.9591 16.1382 33.5084 16.0721C33.0576 16.0059 32.6216 16.0445 32.1729 16.0218C31.6938 15.9974 31.2535 16.0133 30.7796 16.0901C30.5674 16.1245 30.3546 16.1589 30.1429 16.1975C29.8991 16.242 29.6506 16.2425 29.409 16.2891C28.9981 16.369 28.6236 16.5654 28.2316 16.7036C28.0267 16.7756 27.8124 16.8269 27.6133 16.9143C27.3863 17.0138 27.1804 17.1509 26.9519 17.2494C26.7233 17.3478 26.5295 17.5008 26.3162 17.6374C26.1029 17.774 25.877 17.9201 25.6731 18.0905C25.2865 18.4134 24.893 18.7866 24.5993 19.1974C24.3124 19.5982 24.023 20.0921 23.8412 20.551C23.6421 21.0555 23.5669 21.6357 23.5491 22.1746C23.5412 22.4096 23.7156 22.7161 23.9657 22.7447C24.2368 22.7754 24.3455 22.4933 24.3529 22.2725C24.3697 21.7596 24.4832 21.2688 24.7254 20.8199C24.9508 20.4028 25.1572 19.9428 25.5024 19.6082C25.8838 19.2382 26.2626 18.8909 26.7133 18.6072C26.9072 18.4849 27.0821 18.3324 27.2918 18.2377C27.5261 18.1323 27.7515 17.982 27.9889 17.8899C28.2264 17.7978 28.4596 17.7396 28.6913 17.6607C28.923 17.5818 29.141 17.4611 29.3817 17.3923C29.6223 17.3235 29.8613 17.3166 30.114 17.2801C30.3667 17.2435 30.5968 17.189 30.8385 17.1483C31.0802 17.1075 31.3166 17.0493 31.5556 17.0429C31.834 17.036 32.1099 17.0689 32.3878 17.0657C32.8879 17.0599 33.3623 17.1059 33.8588 17.1498C34.1036 17.1716 34.3463 17.2086 34.5869 17.2621C34.7078 17.2891 34.8244 17.3277 34.9437 17.3595C35.095 17.4002 35.2489 17.4008 35.4013 17.4325C35.6298 17.4807 35.8631 17.5982 36.0764 17.693C36.3164 17.7999 36.5849 17.8333 36.8129 17.9635C37.0152 18.0789 37.2195 18.18 37.425 18.289C37.6577 18.4124 37.8568 18.5855 38.0964 18.6988C38.2997 18.7951 38.4478 18.9751 38.6154 19.1233C38.8046 19.2906 39.0179 19.4573 39.1875 19.6432C39.5159 20.0026 39.7471 20.4663 39.9257 20.9157C40.0108 21.1296 40.0512 21.3583 40.1122 21.5801C40.18 21.8273 40.1442 22.0608 40.1526 22.3149C40.161 22.569 40.0954 22.7622 40.0486 23.003C39.9971 23.2688 39.9467 23.4811 39.8201 23.7246C39.5963 24.1544 39.2884 24.6065 38.9475 24.95C38.7452 25.1538 38.4168 25.3492 38.348 25.6387C38.295 25.8627 38.296 26.1072 38.3139 26.3359C38.3464 26.7472 38.3843 27.1241 38.3675 27.554C38.3585 27.7737 38.4268 28.0082 38.4142 28.1781C38.3958 28.4364 38.3554 28.6651 38.3953 28.9282C38.421 29.0966 38.4032 29.2204 38.3927 29.4269C38.3853 29.5719 38.3958 29.7143 38.4342 29.8551C38.452 29.9197 38.4773 29.9848 38.5046 30.0457C38.5209 30.0822 38.5545 30.2167 38.534 30.096L38.5256 29.8234L38.5177 29.861L38.6117 29.6434L38.9511 29.7831C38.9212 29.727 38.8897 29.6725 38.856 29.619C38.8208 29.5645 38.7856 29.5185 38.7415 29.4708C38.6512 29.3739 38.544 29.2998 38.4384 29.2215C38.2309 29.068 38.0155 28.9229 37.8127 28.7636C37.643 28.6297 37.4743 28.4941 37.3046 28.3597C37.1008 28.1988 36.8749 28.0722 36.6726 27.9108C36.504 27.7758 36.3354 27.6387 36.173 27.4958C35.9986 27.3417 35.8168 27.1469 35.6104 27.0368C35.3398 26.8923 34.9374 27.0686 34.6568 27.1379C34.3321 27.2184 33.998 27.2681 33.6676 27.3195C33.356 27.3682 33.0256 27.3692 32.7104 27.3978C32.3951 27.4264 32.0437 27.4449 31.7127 27.4238C31.077 27.383 30.415 27.2914 29.7925 27.1591C29.4909 27.095 29.1967 27.0066 28.8983 26.9293C28.5553 26.8404 28.2527 26.6779 27.9338 26.5291C27.6364 26.3899 27.3359 26.3015 27.0517 26.1284C26.7675 25.9553 26.4785 25.7801 26.2169 25.5826C25.9552 25.3852 25.7635 25.1231 25.5108 24.9114C25.2833 24.7208 25.1173 24.4043 24.9502 24.1586C24.8714 24.0432 24.7606 23.921 24.7065 23.7928C24.6445 23.6467 24.6203 23.4641 24.5699 23.3122C24.4527 22.9575 24.3581 22.6484 24.3555 22.2736C24.3539 22.0375 24.1953 21.7326 23.9389 21.7034C23.6825 21.6743 23.5501 21.9538 23.5517 22.1756L23.5491 22.1751Z" fill="white"/>
<path d="M33.1016 22.1815C33.1016 22.3318 33.0622 22.4742 32.9924 22.596C32.9225 22.7177 32.8158 22.8268 32.6913 22.8993C32.5668 22.9718 32.4297 23.0078 32.28 23.0078C32.1303 23.0078 31.9916 22.9655 31.8707 22.8956C31.7499 22.8257 31.6438 22.7188 31.5718 22.5939C31.4998 22.4689 31.4609 22.3324 31.4609 22.182C31.4609 22.0317 31.503 21.8919 31.5728 21.7707C31.6427 21.6495 31.7473 21.542 31.8718 21.4695C31.9963 21.397 32.1308 21.353 32.28 21.353C32.4292 21.353 32.5679 21.3986 32.6887 21.469C32.8095 21.5394 32.9151 21.6452 32.9871 21.7707C33.0591 21.8962 33.1011 22.0317 33.1011 22.182L33.1016 22.1815Z" fill="white"/>
<path d="M32.6991 22.2308C32.6775 22.6426 31.8695 22.5177 31.8627 22.1328C31.8553 21.7242 32.677 21.8475 32.6991 22.2308C32.7117 22.4515 32.8146 22.7337 33.0868 22.703C33.3311 22.6749 33.5165 22.3652 33.5029 22.1328C33.4635 21.4499 33.0316 20.8221 32.294 20.8317C31.5564 20.8412 31.0725 21.5616 31.0589 22.2308C31.0447 22.9242 31.5637 23.533 32.2656 23.5288C33.0038 23.5245 33.4677 22.8078 33.5029 22.1323C33.5144 21.9089 33.3699 21.6315 33.1151 21.6601C32.8603 21.6887 32.7111 21.9957 32.6991 22.2302V22.2308Z" fill="white"/>
<path d="M35.8368 27.7783C35.4812 29.2431 35.8589 31.0191 34.7409 32.2208C34.6106 32.3753 34.474 32.5267 34.3327 32.6734C34.2087 32.802 34.0816 32.928 33.9513 33.0508C33.821 33.1736 33.6876 33.2938 33.551 33.4108C31.7043 34.8882 29.3124 35.3954 27.1195 36.2175C26.9756 36.2355 26.8306 36.2503 26.6845 36.263C26.4654 36.2821 26.2448 36.2963 26.022 36.3064C25.7241 36.2836 25.4094 36.3472 25.0948 36.2836C23.7729 35.9665 22.5767 35.0783 21.381 35.5859C20.4369 35.9665 19.6814 36.8543 18.8886 37.4583C18.751 37.5562 18.6123 37.6536 18.4731 37.7516C17.778 38.2396 17.0746 38.7351 16.4452 39.3296C16.5713 38.6954 16.7599 38.0612 16.7741 37.4064C16.7777 37.2751 16.7809 37.1412 16.784 37.0057C16.7935 36.5981 16.803 36.173 16.8119 35.7643C16.8171 35.5309 16.8224 35.3027 16.8271 35.0857C16.8818 34.8708 16.9107 34.6633 16.918 34.4616C16.9254 34.2599 16.9101 34.064 16.877 33.8734C16.7226 32.6056 15.3377 32.2885 14.7083 31.3367C13.8273 30.0684 14.3306 28.4824 14.6264 27.133C14.6837 26.925 14.7504 26.7207 14.8265 26.52C15.0519 25.924 15.3629 25.3586 15.7333 24.8541C15.8673 24.6831 16.0065 24.5196 16.1515 24.3634C17.0205 23.4264 18.0838 22.7187 19.2223 22.1702C19.3956 22.0945 19.5711 22.022 19.7471 21.9527C20.6281 21.6043 21.537 21.3222 22.4112 21.0115C22.5425 20.9855 22.6749 20.9612 22.8068 20.9389C24.3656 20.8346 26.0068 20.895 27.6007 21.0453C27.7998 21.0644 27.9984 21.0845 28.196 21.1062C29.7269 21.3852 31.1117 22.184 32.463 23.0093C32.6558 23.1289 32.8486 23.2491 33.0403 23.3703C33.976 23.869 34.5728 24.7006 35.1076 25.5905C35.2111 25.7704 35.312 25.9531 35.4039 26.141C35.6078 26.5153 35.6708 26.8959 35.8642 27.3051C35.871 27.4417 35.8626 27.5973 35.8379 27.7778L35.8368 27.7783Z" fill="#E478FA"/>
<path d="M33.8847 28.4492C33.891 28.5715 33.9136 28.6959 33.9162 28.8176C33.9173 28.8727 33.9231 28.8563 33.8905 28.9468C33.807 29.1803 33.7833 29.41 33.7392 29.6525C33.7019 29.8573 33.6909 30.0442 33.6026 30.2342C33.5091 30.4364 33.3946 30.6297 33.3042 30.8329C33.2259 31.0087 33.1912 31.176 33.0888 31.3401C32.9701 31.5306 32.823 31.6789 32.6827 31.852C32.5424 32.0251 32.4368 32.1892 32.2866 32.3395C32.1158 32.51 31.933 32.6614 31.7533 32.8223C31.4512 33.0923 31.1471 33.3649 30.8413 33.6275C30.6942 33.754 30.4893 33.8366 30.3228 33.9366C30.1305 34.0525 29.9414 34.1732 29.7496 34.2897C29.5799 34.3929 29.3939 34.503 29.2069 34.5697C29.1024 34.6073 28.9941 34.6306 28.8906 34.6735C28.7645 34.7254 28.6574 34.8106 28.5329 34.864C28.3416 34.9466 28.1241 34.953 27.9271 35.0319C27.7301 35.1107 27.5179 35.2044 27.3093 35.2764C26.9037 35.4156 26.4603 35.4305 26.0432 35.5205C25.8393 35.5644 25.6308 35.5861 25.4274 35.6322C25.1789 35.6888 24.9725 35.7094 24.7177 35.7169C24.5107 35.7227 24.32 35.8132 24.113 35.8084C23.8813 35.8031 23.6554 35.8042 23.4237 35.809C23.2052 35.8137 22.995 35.7454 22.7744 35.7539C22.5337 35.7634 22.3252 35.7703 22.084 35.746C21.8734 35.7243 21.6496 35.7587 21.4431 35.7105C21.2114 35.6565 21.0244 35.5914 20.7822 35.5787C20.3277 35.5554 19.9075 35.3664 19.4641 35.286C19.2261 35.2431 19.0727 35.2166 18.8735 35.3807C18.7606 35.4744 18.6729 35.5861 18.5531 35.6734C18.2851 35.8683 18.0083 36.0371 17.7529 36.2499C17.5092 36.4532 17.2722 36.6342 17.0122 36.8116C16.842 36.9275 16.7506 37.089 16.6024 37.2197C16.4837 37.3245 16.3271 37.4198 16.1947 37.5061C15.9095 37.6914 15.6736 37.9264 15.3941 38.117C15.2428 38.2202 15.1046 38.3383 14.9664 38.4584C14.8913 38.5235 14.812 38.5834 14.7484 38.6601C14.7179 38.6967 14.689 38.7406 14.6649 38.7813C14.5976 38.8941 14.5871 38.8608 14.6822 38.8099L14.8887 38.7745C14.8871 38.7872 14.8902 38.7914 14.8981 38.7856L15.0368 38.9989L15.0221 38.9613L15.0689 39.2387C15.072 39.3536 15.0804 39.2123 15.0878 39.1815C15.1083 39.0953 15.1193 39.0058 15.1251 38.9174C15.1335 38.7962 15.133 38.6728 15.1372 38.5511C15.1408 38.4389 15.1482 38.3293 15.1587 38.2176C15.165 38.1503 15.1682 38.0842 15.1724 38.0169C15.1829 37.8375 15.1745 37.9428 15.1955 37.7676C15.2538 37.2843 15.2391 36.7846 15.2396 36.2986C15.2396 36.0377 15.2732 35.7756 15.2837 35.5146C15.2895 35.3728 15.2969 35.2298 15.279 35.0885C15.2659 34.9821 15.2344 34.8963 15.2438 34.7921C15.258 34.6359 15.3079 34.4893 15.3037 34.3278C15.3006 34.2129 15.2422 34.0769 15.2501 33.9673C15.2543 33.9022 15.2916 33.8339 15.3053 33.7683C15.3489 33.5581 15.3289 33.2924 15.2081 33.1087C15.0053 32.8016 14.6685 32.6238 14.4059 32.3866C14.1432 32.1495 14.0523 31.8133 13.8238 31.5455C13.7481 31.4565 13.674 31.3856 13.6247 31.2792C13.5558 31.131 13.5017 30.9806 13.4187 30.8382C13.2511 30.5518 13.1587 30.2644 13.0793 29.941C13.0347 29.7583 12.9811 29.5778 12.938 29.3952C12.9012 29.2385 12.8303 29.0823 12.8403 28.9214C12.8503 28.7605 12.8755 28.5895 12.8792 28.419C12.8834 28.212 12.8602 27.9881 12.8771 27.7843C12.9028 27.4741 13.0489 27.1628 13.146 26.8717C13.2579 26.5355 13.4108 26.2301 13.5994 25.931C13.7838 25.6388 13.9693 25.3281 14.1941 25.066C14.419 24.804 14.5729 24.542 14.8325 24.3371C14.958 24.2381 15.0557 24.1322 15.1577 24.0099C15.2475 23.902 15.3405 23.8548 15.4603 23.7844C15.6158 23.6934 15.7345 23.5674 15.8743 23.4568C15.9982 23.3588 16.1354 23.3249 16.272 23.2519C16.4227 23.1714 16.5131 23.038 16.6444 22.9385C16.7563 22.8538 16.9071 22.8395 17.0348 22.7855C17.1687 22.7289 17.2838 22.6394 17.4109 22.5695C17.5938 22.469 17.7939 22.4017 17.9852 22.3181C18.6135 22.0423 19.2487 21.8178 19.9227 21.685C20.6241 21.5463 21.3207 21.3573 22.032 21.28C22.1781 21.2641 22.3194 21.2954 22.466 21.2985C22.6567 21.3033 22.829 21.2276 23.0171 21.2218C23.378 21.2096 23.73 21.3075 24.092 21.2795C24.2795 21.2647 24.424 21.2943 24.6089 21.3224C24.7939 21.3504 24.9662 21.3398 25.1443 21.3584C25.4999 21.3949 25.8551 21.4552 26.2092 21.5034C26.537 21.5479 26.8496 21.6405 27.1659 21.7374C27.3387 21.7903 27.501 21.8607 27.6713 21.92C27.8415 21.9793 28.0064 22.0037 28.1704 22.0598C28.3758 22.1307 28.5644 22.2292 28.7772 22.281C28.9553 22.3244 29.096 22.3896 29.2584 22.4753C29.6256 22.6691 29.9823 22.8972 30.3433 23.1058C30.6758 23.298 30.9958 23.5319 31.3099 23.7527C31.6241 23.9734 31.8799 24.2471 32.1568 24.516C32.265 24.6214 32.3927 24.705 32.4941 24.8172C32.6275 24.9644 32.74 25.1354 32.8461 25.3027C32.958 25.4789 33.0846 25.6515 33.1807 25.8373C33.2616 25.9935 33.3184 26.1597 33.4093 26.3111C33.5002 26.4625 33.5658 26.561 33.611 26.7282C33.6562 26.8955 33.7276 27.0713 33.7749 27.2449C33.8301 27.4476 33.8343 27.6636 33.881 27.869C33.9278 28.0744 33.8989 28.2343 33.8863 28.4487C33.8732 28.6842 34.0113 28.9987 34.2656 29.0442C34.5199 29.0897 34.6696 28.8198 34.6822 28.598C34.6906 28.4455 34.7232 28.2973 34.7206 28.1443C34.7174 27.9707 34.6717 27.8145 34.636 27.6472C34.5619 27.301 34.5178 26.9696 34.4048 26.6303C34.3113 26.3492 34.2593 26.0808 34.0964 25.8278C33.9336 25.5748 33.8275 25.2968 33.6709 25.0406C33.5143 24.7844 33.3531 24.5282 33.1687 24.291C32.98 24.0481 32.7631 23.867 32.5508 23.6505C32.3512 23.4467 32.1552 23.2413 31.9341 23.0608C31.6714 22.8464 31.3782 22.6797 31.0998 22.4886C30.5991 22.1455 30.0753 21.8083 29.5384 21.5256C29.0015 21.243 28.3774 21.1138 27.7921 20.9063C27.2205 20.7035 26.671 20.5188 26.0679 20.4346C25.7731 20.3933 25.4768 20.3457 25.181 20.3144C25.0324 20.2986 24.8826 20.3065 24.7345 20.2901C24.549 20.27 24.3736 20.2149 24.185 20.216C24.0526 20.2165 23.9212 20.244 23.7899 20.2403C23.6438 20.2366 23.4978 20.2049 23.3512 20.1975C23.2046 20.19 23.0712 20.1758 22.9304 20.1768C22.7512 20.1779 22.5884 20.2456 22.4129 20.2541C22.2574 20.2615 22.1045 20.2102 21.9459 20.2229C21.7967 20.235 21.6517 20.2806 21.5035 20.3007C21.1872 20.3441 20.8899 20.3986 20.5789 20.469C19.9815 20.604 19.38 20.7004 18.7937 20.8856C18.2074 21.0709 17.6479 21.2895 17.1152 21.5548C16.9817 21.6215 16.8635 21.7199 16.728 21.7813C16.6129 21.8332 16.4852 21.8533 16.3702 21.9068C16.2436 21.9655 16.1448 22.0603 16.0471 22.1577C15.9362 22.2673 15.8264 22.3012 15.6862 22.3673C15.445 22.4811 15.2822 22.7008 15.051 22.8289C14.7873 22.9756 14.6549 23.1751 14.4416 23.3737C14.3318 23.4758 14.1957 23.5478 14.0917 23.6579C13.9945 23.7606 13.9367 23.8893 13.8527 24.0009C13.6583 24.2587 13.4544 24.4911 13.2753 24.7627C12.9312 25.2847 12.616 25.7727 12.4153 26.3714C12.3049 26.7007 12.1804 27.0242 12.1158 27.3672C12.0496 27.7181 12.1011 28.0908 12.0827 28.4476C12.0722 28.6557 12.0223 28.8526 12.0486 29.0633C12.068 29.221 12.1232 29.3719 12.162 29.5254C12.2582 29.905 12.3522 30.2856 12.4641 30.6609C12.5582 30.9759 12.7053 31.2114 12.8492 31.4994C12.9285 31.6577 12.9716 31.8276 13.0688 31.9785C13.1544 32.1114 13.2826 32.213 13.3693 32.3427C13.4423 32.4523 13.4754 32.5888 13.5464 32.7011C13.6483 32.8615 13.788 33.0076 13.9178 33.1468C14.0476 33.286 14.1884 33.3591 14.3297 33.4723C14.471 33.5856 14.5771 33.7254 14.7053 33.844L14.5293 33.494C14.512 33.3638 14.5461 33.3935 14.5157 33.4697C14.4983 33.5126 14.4883 33.556 14.4794 33.6015C14.451 33.7429 14.4489 33.8905 14.4663 34.0335C14.4752 34.1065 14.5099 34.1875 14.5109 34.2606C14.512 34.3336 14.4752 34.4204 14.4626 34.4946C14.4216 34.7317 14.4694 34.9323 14.4962 35.1626C14.5199 35.3659 14.4868 35.612 14.4668 35.8143C14.4269 36.2224 14.4474 36.6385 14.4327 37.0493C14.4164 37.4929 14.378 37.774 14.3486 38.2319C14.3376 38.4066 14.3581 38.5955 14.3302 38.7681C14.2829 39.0614 14.2372 39.3107 14.4358 39.5685C14.5819 39.7586 14.8656 39.902 15.092 39.7623C15.1839 39.7056 15.2338 39.6151 15.2885 39.5256C15.3431 39.4362 15.4072 39.3832 15.4928 39.3081C15.6168 39.2001 15.7466 39.1096 15.88 39.0143C16.0534 38.8904 16.1895 38.7236 16.3607 38.6008C16.5162 38.4897 16.6838 38.3891 16.8441 38.2832C17.029 38.1609 17.1588 38.0249 17.3043 37.8624C17.4603 37.6882 17.7104 37.585 17.8895 37.4299C18.0377 37.3018 18.1853 37.1721 18.3382 37.0498C18.5116 36.9106 18.7117 36.8021 18.8925 36.6702C19.0695 36.5411 19.2271 36.3426 19.4152 36.2436L19.2087 36.279C19.535 36.3616 19.8644 36.4484 20.1922 36.5241C20.3435 36.5591 20.4974 36.5993 20.6524 36.6141C20.8331 36.6311 21.0049 36.6184 21.1809 36.6745C21.3154 36.7174 21.4342 36.765 21.5776 36.7724C21.7352 36.7804 21.8907 36.7708 22.0483 36.7862C22.2059 36.8015 22.3667 36.828 22.5285 36.8275C22.7166 36.8264 22.8915 36.7904 23.0785 36.8174C23.4011 36.8645 23.71 36.8232 24.0321 36.8449C24.3762 36.8682 24.6825 36.7576 25.0224 36.7639C25.3376 36.7698 25.6476 36.6681 25.957 36.6125C26.2833 36.5538 26.5995 36.4918 26.9268 36.4468C27.2294 36.405 27.5215 36.3108 27.8042 36.1986C27.9429 36.1435 28.0826 36.0895 28.2218 36.0361C28.3873 35.9725 28.5602 35.962 28.7283 35.9074C28.8964 35.8529 29.0283 35.7502 29.1859 35.6787C29.3435 35.6073 29.5011 35.5824 29.6524 35.5146C29.9545 35.3791 30.2224 35.1859 30.5072 35.0197C30.7578 34.873 31.0341 34.7444 31.2637 34.566C31.374 34.4803 31.456 34.3723 31.5589 34.2791C31.6866 34.1632 31.8353 34.0668 31.9677 33.9551C32.2051 33.755 32.4489 33.547 32.6711 33.3299C32.9123 33.0954 33.0946 32.8302 33.3184 32.5825C33.5574 32.3183 33.7954 32.0118 33.9173 31.6714C34.0313 31.3533 34.2026 31.0659 34.3355 30.7541C34.4863 30.3999 34.4989 30.0193 34.5651 29.644C34.5908 29.4973 34.6638 29.3655 34.6948 29.22C34.7405 29.0056 34.6948 28.8108 34.6838 28.598C34.6712 28.3603 34.5761 28.0511 34.3045 28.0024C34.0612 27.959 33.8758 28.2242 33.8879 28.4487L33.8847 28.4492Z" fill="white"/>
<path d="M18.616 28.5283C18.5971 28.9216 17.7796 28.9279 17.7686 28.5351C17.7575 28.1424 18.5966 28.1328 18.616 28.5283C18.627 28.7532 18.7358 29.0587 19.0058 29.0608C19.258 29.0629 19.4151 28.758 19.404 28.5346C19.3704 27.8528 18.9433 27.1763 18.1973 27.1763C17.4513 27.1763 16.9874 27.8422 16.9805 28.5277C16.9737 29.2133 17.477 29.8845 18.1883 29.884C18.9302 29.884 19.3709 29.2186 19.404 28.5341C19.4151 28.3091 19.269 28.0037 19.0142 28.0015C18.7458 27.9994 18.6265 28.3043 18.616 28.5277V28.5283Z" fill="#522976"/>
<path d="M23.4584 28.5311C23.4506 28.6809 23.4106 28.9387 23.2189 28.9562C22.9967 28.9769 22.8559 28.6486 22.8574 28.4787C22.859 28.3289 22.9431 28.1066 23.1196 28.1103C23.3697 28.1151 23.4516 28.4491 23.4616 28.6381C23.4747 28.9001 23.8645 28.9599 24.0553 28.9207C24.3053 28.8689 24.5044 28.6905 24.4908 28.4253C24.4545 27.7207 23.7984 27.2659 23.1306 27.3062C22.4629 27.3464 21.8135 27.8721 21.8204 28.5846C21.8272 29.2971 22.4413 29.7571 23.0975 29.763C23.7873 29.7693 24.4561 29.2474 24.4929 28.5327C24.5218 27.9652 23.4842 28.0272 23.4584 28.5311Z" fill="#522976"/>
<path d="M28.7233 28.4173C28.7123 28.6095 28.6335 28.9101 28.4023 28.9488C28.2121 28.9805 28.1139 28.7519 28.1113 28.592C28.1076 28.4056 28.2316 28.133 28.4464 28.1134C28.6613 28.0939 28.7102 28.3681 28.7191 28.5242C28.7485 29.0271 29.7866 29.1065 29.7535 28.5385C29.7115 27.8143 29.0517 27.3104 28.3592 27.3014C27.6668 27.2924 27.0863 27.7836 27.0763 28.4708C27.0658 29.1806 27.7104 29.7137 28.3797 29.7592C29.0454 29.8048 29.7084 29.3484 29.7493 28.6454C29.7646 28.3824 29.5697 28.1987 29.3212 28.1436C29.1373 28.1029 28.7385 28.1542 28.7233 28.4173Z" fill="#522976"/>
<path d="M36.627 22.1813C36.627 22.3317 36.5834 22.4714 36.5136 22.5932C36.4437 22.7149 36.3412 22.8256 36.2167 22.8981C36.0922 22.9706 35.9556 23.0092 35.8059 23.0092C35.6562 23.0092 35.5154 22.9685 35.3951 22.8981C35.2748 22.8277 35.1702 22.7181 35.0982 22.5926C35.0263 22.4672 34.9863 22.3317 34.9863 22.1808C34.9863 22.0299 35.0278 21.8902 35.0972 21.7684C35.1665 21.6467 35.2716 21.5376 35.3956 21.4651C35.5196 21.3926 35.6562 21.355 35.8054 21.355C35.9546 21.355 36.0948 21.3952 36.2152 21.4656C36.3355 21.536 36.4426 21.643 36.5146 21.7684C36.5866 21.8939 36.6265 22.0305 36.6265 22.1808L36.627 22.1813Z" fill="white"/>
<path d="M36.1878 22.3305C36.1641 22.7439 35.3819 22.4216 35.4276 22.0325C35.4465 21.8731 35.6041 21.8334 35.747 21.8504C35.996 21.8795 36.1741 22.0854 36.1878 22.331C36.2014 22.5767 36.4131 22.7265 36.6469 22.6492C36.8807 22.5719 37.0825 22.2903 37.0683 22.0325C37.031 21.3591 36.5093 20.8049 35.8121 20.8705C35.1029 20.9372 34.535 21.6222 34.5471 22.331C34.5586 23.0107 35.1239 23.5544 35.8022 23.4951C36.5476 23.43 37.0278 22.7376 37.0683 22.0325C37.0825 21.7821 36.824 21.6434 36.6091 21.7143C36.3454 21.8017 36.203 22.0679 36.1878 22.331V22.3305Z" fill="white"/>
</g>
<defs>
<filter id="filter0_i_18107_23961" x="3" y="3" width="48" height="49" filterUnits="userSpaceOnUse" color-interpolation-filters="sRGB">
<feFlood flood-opacity="0" result="BackgroundImageFix"/>
<feBlend mode="normal" in="SourceGraphic" in2="BackgroundImageFix" result="shape"/>
<feColorMatrix in="SourceAlpha" type="matrix" values="0 0 0 0 0 0 0 0 0 0 0 0 0 0 0 0 0 0 127 0" result="hardAlpha"/>
<feOffset dy="1.5"/>
<feGaussianBlur stdDeviation="0.5"/>
<feComposite in2="hardAlpha" operator="arithmetic" k2="-1" k3="1"/>
<feColorMatrix type="matrix" values="0 0 0 0 0.469786 0 0 0 0 0.351917 0 0 0 0 0.686667 0 0 0 0.33 0"/>
<feBlend mode="normal" in2="shape" result="effect1_innerShadow_18107_23961"/>
</filter>
<filter id="filter1_f_18107_23961" x="0" y="0" width="54" height="54" filterUnits="userSpaceOnUse" color-interpolation-filters="sRGB">
<feFlood flood-opacity="0" result="BackgroundImageFix"/>
<feBlend mode="normal" in="SourceGraphic" in2="BackgroundImageFix" result="shape"/>
<feGaussianBlur stdDeviation="8" result="effect1_foregroundBlur_18107_23961"/>
</filter>
<linearGradient id="paint0_linear_18107_23961" x1="11" y1="7.5" x2="41.07" y2="51.967" gradientUnits="userSpaceOnUse">
<stop stop-color="#29204A"/>
<stop offset="1" stop-color="#251F40"/>
</linearGradient>
<clipPath id="clip0_18107_23961">
<rect width="29" height="23.8214" fill="white" transform="translate(12 16)"/>
</clipPath>
</defs>
</svg>
