<svg width="54" height="54" viewBox="0 0 54 54" fill="none" xmlns="http://www.w3.org/2000/svg">
<g filter="url(#filter0_i_18107_23960)">
<rect x="3" y="3" width="48" height="48" rx="16" fill="url(#paint0_linear_18107_23960)"/>
</g>
<g filter="url(#filter1_f_18107_23960)">
<circle cx="27" cy="27" r="11" fill="#3CCB7F" fill-opacity="0.55"/>
</g>
<g clip-path="url(#clip0_18107_23960)">
<path d="M32.6332 38.5913C32.7127 39.1503 32.3304 39.7025 31.7782 39.7874C31.1835 39.8299 30.6313 39.6175 30.249 39.1503C30.0366 38.8529 29.9941 38.4281 30.1925 38.1125C30.2439 37.9974 30.3127 37.8882 30.3964 37.788C30.48 37.6878 30.5782 37.5973 30.6878 37.5187C30.7753 37.458 30.8683 37.4087 30.9656 37.3713C31.2574 37.26 31.5866 37.26 31.9052 37.4087C32.0751 37.4936 32.2344 37.6104 32.358 37.7595C32.4196 37.8339 32.4727 37.9167 32.513 38.0072C32.5538 38.0977 32.5823 38.1966 32.5954 38.3037C32.6171 38.3967 32.6298 38.4931 32.6332 38.5913Z" fill="#3CCB7F"/>
<path d="M32.3539 29.7328C32.2894 29.9329 32.3743 30.1878 32.2826 30.4159C32.2567 30.5314 32.224 30.6469 32.1857 30.7608C32.0519 31.5135 31.6348 32.0997 31.0805 32.4591C30.9692 32.5308 30.8524 32.5937 30.7313 32.6468C30.2173 32.8894 29.6948 32.9518 29.1923 32.8821C29.0666 32.8647 28.9421 32.8392 28.8194 32.8065C27.1496 32.694 25.8327 31.3771 25.9619 29.6755C25.9721 29.5234 25.9997 29.3692 26.0456 29.212C26.5549 27.8515 27.7867 26.7471 29.2938 26.6001C29.4289 26.592 29.5636 26.5916 29.6965 26.5992C29.8295 26.6069 29.9603 26.6222 30.0886 26.6464C30.2351 26.6923 30.3758 26.7513 30.5108 26.821C31.3205 27.2402 31.9173 28.0511 32.2031 28.9041C32.2482 29.0426 32.286 29.1832 32.3191 29.3221C32.3412 29.4563 32.3531 29.5935 32.3539 29.7328Z" fill="#3CCB7F"/>
<path d="M35.4386 35.54C35.2853 35.5421 35.1306 35.5498 34.9777 35.5574C34.8248 35.5651 34.6647 35.5978 34.5168 35.5901C34.2076 35.574 33.9056 35.5663 33.5946 35.5668C33.4472 35.5668 33.3007 35.557 33.1537 35.5668C32.9872 35.5787 32.839 35.5451 32.6729 35.5404C32.52 35.5362 32.3415 35.523 32.1954 35.5714C32.1593 35.5833 32.1283 35.6025 32.0931 35.616C31.9325 35.6781 32.1139 35.6186 32.0578 35.6258C31.983 35.6356 31.8913 35.6296 31.8161 35.6258C31.6674 35.6182 31.5345 35.5591 31.3777 35.5634C31.221 35.5676 31.0557 35.574 30.8939 35.5731C30.7478 35.5723 30.6017 35.5736 30.4555 35.5719C30.2848 35.5697 30.1331 35.5923 29.9704 35.6165C29.8613 35.633 29.7462 35.546 29.5988 35.5472C29.4373 35.5489 29.2785 35.5842 29.1175 35.605C28.9671 35.6241 28.8274 35.5825 28.6761 35.577C28.5015 35.5706 28.3359 35.5595 28.1643 35.6016C28.0232 35.636 27.9039 35.568 27.7535 35.5651C27.5832 35.5617 27.4077 35.5791 27.2417 35.6101C26.9723 35.6598 26.6504 35.6067 26.37 35.5978C25.7664 35.5782 25.1832 35.6122 24.5728 35.5562C24.4848 35.5481 24.3948 35.5366 24.3064 35.5481C24.2279 35.5587 24.1518 35.5995 24.0762 35.6084C23.9428 35.6241 23.7818 35.5833 23.6506 35.56C23.349 35.5065 23.0482 35.6182 22.7479 35.5982C22.5929 35.588 22.4391 35.5587 22.2849 35.5519C22.1218 35.5451 21.9829 35.6071 21.8253 35.5982C21.5008 35.5799 21.1822 35.5311 20.8551 35.5434C20.5629 35.5545 20.2392 35.5324 19.9525 35.5838C19.8679 35.5991 19.825 35.6279 19.7456 35.6241C19.6712 35.6207 19.5922 35.5986 19.5171 35.5927C19.3391 35.5787 19.1768 35.5196 18.9959 35.5697C18.9661 35.5778 18.9436 35.585 18.916 35.5961L18.8268 35.6403C18.834 35.633 18.8425 35.6288 18.8523 35.6267C18.8128 35.6224 18.735 35.5795 18.6811 35.568C18.5065 35.5302 18.3476 35.6428 18.1934 35.6165C18.0014 35.5833 17.8056 35.5264 17.6064 35.5213C17.5329 35.5192 17.4437 35.554 17.3732 35.5409C17.2831 35.5243 17.1761 35.4351 17.0903 35.3981C16.9051 35.3178 16.7284 35.2159 16.5865 35.0698C16.5181 34.9993 16.4586 34.9215 16.3805 34.8612C16.3023 34.8009 16.2399 34.7784 16.1834 34.6998C16.0594 34.5269 15.9854 34.3277 15.8937 34.1378C15.8092 33.9632 15.8393 33.736 15.8461 33.544C15.8521 33.3864 15.8121 33.2437 15.8045 33.0924C15.7968 32.9412 15.7858 32.7862 15.7765 32.6332C15.7743 32.5988 15.7807 32.4757 15.7637 32.5916C15.7701 32.547 15.7977 32.4863 15.8053 32.4493C15.824 32.3597 15.8304 32.2624 15.8219 32.1711C15.8155 32.0997 15.7862 32.0258 15.7883 31.9621C15.7905 31.8869 15.8172 31.8134 15.824 31.7374C15.8368 31.5874 15.7977 31.4481 15.8041 31.3007C15.8079 31.2141 15.8274 31.1291 15.8287 31.0408C15.83 30.9448 15.8032 30.8543 15.7934 30.7646C15.7862 30.6975 15.7896 30.6185 15.7866 30.5472C15.7849 30.5077 15.7964 30.3318 15.7739 30.4414C15.8143 30.2464 15.8376 30.0926 15.816 29.893C15.8015 29.7583 15.7807 29.591 15.7973 29.4572C15.8206 29.2694 15.8597 29.1097 15.799 28.9198C15.8028 28.9313 15.7939 28.8557 15.7943 28.8574C15.8053 28.9504 15.7973 28.8629 15.8104 28.8141C15.838 28.7104 15.8512 28.6 15.8397 28.4925C15.8257 28.3617 15.7658 28.2784 15.7769 28.1484C15.7909 27.9857 15.7871 27.8239 15.7875 27.6608C15.7875 27.561 15.79 27.5525 15.7951 27.4348C15.7968 27.397 15.7964 27.3592 15.7977 27.321C15.793 27.4492 15.827 27.2356 15.8287 27.2267C15.8899 26.9225 15.7977 26.609 15.8363 26.3053C15.8589 26.1278 15.8202 25.9778 15.8036 25.8181C15.7871 25.6584 15.81 25.4889 15.793 25.3245C15.79 25.2969 15.779 25.1941 15.7765 25.2187C15.7858 25.1334 15.827 25.0514 15.8355 24.9626C15.8465 24.8458 15.8283 24.7502 15.8024 24.6389C15.796 24.6113 15.7888 24.5828 15.7833 24.5565L15.7743 24.6045C15.7845 24.5743 15.7934 24.5442 15.8019 24.5136C15.8907 24.192 15.7442 23.8696 15.7888 23.5604C15.8126 23.3943 15.793 23.249 15.7837 23.0855C15.7816 23.046 15.8007 23.0035 15.8172 22.9258C15.8427 22.8034 15.8423 22.6764 15.8211 22.5532C15.7722 22.2716 15.8614 21.9649 15.8172 21.6765C15.8117 21.6417 15.779 21.5363 15.7782 21.5236C15.7756 21.4905 15.8287 21.3452 15.8351 21.2747C15.8487 21.1183 15.7973 20.9289 15.8015 20.8138C15.8143 20.4846 15.8453 20.1605 15.7994 19.8321C15.7799 19.6911 15.7726 19.5692 15.7799 19.4205C15.7858 19.2922 15.8563 19.0909 15.8291 18.9091C15.8049 18.7502 15.776 18.6189 15.8389 18.4554C15.8788 18.3518 15.9234 18.2575 15.9408 18.1457C15.9566 18.0451 15.9451 18.0217 15.9961 17.941C16.05 17.8556 16.1091 17.7758 16.149 17.681C16.1647 17.6441 16.174 17.5965 16.1932 17.5604C16.1486 17.6449 16.2102 17.5498 16.2369 17.526C16.3894 17.3901 16.5173 17.2482 16.6936 17.1428C16.8409 17.0549 17.0177 16.9585 17.1833 16.9113C17.3966 16.8506 17.6451 16.8816 17.8647 16.8531C18.0074 16.8349 18.0911 16.8217 18.2372 16.8353C18.3833 16.8489 18.5842 16.7962 18.7062 16.8247C18.7847 16.8429 18.8451 16.8833 18.947 16.888C19.0413 16.8926 19.1165 16.8782 19.2087 16.8599C19.3323 16.8353 19.4856 16.8107 19.619 16.809C19.7524 16.8073 19.8968 16.8243 20.0327 16.8451C20.2035 16.8714 20.37 16.8502 20.5412 16.8472C20.8483 16.8417 21.1563 16.8366 21.4634 16.8417C21.618 16.8442 21.7692 16.8608 21.9247 16.8434C22.0802 16.826 22.228 16.8587 22.386 16.8633C22.6944 16.8718 23.0007 16.8319 23.3082 16.8446C23.6157 16.8574 23.9229 16.8782 24.2304 16.8842C24.3769 16.8871 24.5256 16.8918 24.6717 16.8774C24.834 16.8612 25.0026 16.8192 25.153 16.8056C25.4453 16.7792 25.7515 16.8311 26.0425 16.84C26.1793 16.8442 26.3152 16.8302 26.4494 16.8553C26.6202 16.8875 26.791 16.8867 26.9647 16.8808C27.11 16.8757 27.2319 16.8056 27.3704 16.806C27.5156 16.806 27.6601 16.8132 27.8058 16.809C28.1158 16.8 28.4183 16.8557 28.728 16.8425C28.8932 16.8357 29.047 16.9054 29.2148 16.8846C29.2891 16.8757 29.3613 16.834 29.4335 16.8268C29.5019 16.8196 29.5809 16.8345 29.6506 16.8362C29.8009 16.8395 29.95 16.7975 30.0987 16.8064C30.2601 16.8162 30.4105 16.8302 30.5732 16.8183C30.8816 16.7958 31.1883 16.8374 31.4958 16.8158C31.653 16.8047 31.7881 16.8803 31.9499 16.8706C32.0221 16.8663 32.099 16.8332 32.1593 16.8221C32.2413 16.8073 32.3348 16.8136 32.4184 16.8102C32.709 16.7979 33.0131 16.8408 33.3024 16.8701C33.4502 16.885 33.6133 16.8931 33.7624 16.8842C33.8601 16.8782 33.9362 16.8374 34.0266 16.8204C34.0959 16.8073 34.087 16.8306 34.1715 16.8574C34.4519 16.9457 34.8707 16.8905 35.1527 16.8298C35.5287 16.7486 36.0189 16.8943 36.3447 17.0995C36.4933 17.1934 36.6802 17.3136 36.8051 17.4355C36.93 17.5574 37.0128 17.749 37.0919 17.8964C37.1904 18.0803 37.2771 18.2371 37.342 18.4376C37.3671 18.5145 37.4126 18.5981 37.4206 18.6784C37.4325 18.7931 37.3964 18.9142 37.4024 19.0306C37.4058 19.0947 37.4211 19.1588 37.4206 19.223C37.4206 19.2379 37.3866 19.3462 37.3756 19.415C37.3463 19.5955 37.4134 19.7234 37.4423 19.8869C37.4661 20.022 37.4363 20.1915 37.4334 20.3278C37.4295 20.488 37.4253 20.6485 37.4206 20.8087C37.4172 20.9157 37.4066 21.0576 37.3828 21.1901C37.3654 21.2853 37.3531 21.3834 37.3633 21.4803C37.3726 21.5678 37.4232 21.6383 37.4368 21.7198C37.4419 21.7508 37.4278 21.7937 37.4249 21.8243C37.4219 21.8587 37.4019 22.1128 37.4228 21.9896C37.4028 22.1068 37.3667 22.1905 37.3633 22.312C37.3607 22.3969 37.3701 22.4781 37.3752 22.5622C37.3841 22.7147 37.368 22.8723 37.3862 23.0243C37.3939 23.0876 37.4325 23.1913 37.4372 23.238C37.4368 23.232 37.447 23.1543 37.4295 23.2584C37.4189 23.3204 37.3964 23.3786 37.3879 23.4419C37.3675 23.5995 37.4172 23.7414 37.4075 23.8955C37.3964 24.0701 37.3807 24.2303 37.3922 24.4057C37.4113 24.7035 37.3684 25.0051 37.365 25.3028C37.3629 25.4753 37.4334 25.6248 37.4355 25.7892C37.438 25.968 37.416 26.002 37.39 26.1736C37.3654 26.3363 37.3484 26.5487 37.3675 26.711C37.3765 26.7874 37.4194 26.8575 37.4295 26.9302C37.4368 26.9824 37.4109 27.0436 37.4049 27.0954C37.3697 27.4025 37.4092 27.7118 37.3714 28.0172C37.3582 28.1229 37.3582 28.2342 37.3845 28.3383C37.3981 28.3923 37.4262 28.4415 37.4291 28.4963C37.4376 28.6577 37.4083 28.8255 37.4155 28.9899C37.4198 29.0855 37.458 29.3 37.4474 29.3582C37.4431 29.3811 37.3879 29.4984 37.3769 29.5621C37.3556 29.6866 37.3731 29.8012 37.3947 29.9236C37.4143 30.0345 37.3858 30.1466 37.3824 30.2681C37.3773 30.4439 37.4385 30.5998 37.4342 30.7748C37.4304 30.9133 37.4342 31.0522 37.4287 31.1903C37.4219 31.3712 37.3765 31.5394 37.4151 31.7225C37.4198 31.7446 37.4495 31.8466 37.4487 31.8228C37.4516 31.8997 37.3977 31.9957 37.39 32.0789C37.3743 32.2514 37.4261 32.3966 37.4002 32.5602C37.3522 32.8618 37.3726 33.219 37.4143 33.5223C37.4593 33.8524 37.3599 34.2487 37.1751 34.5367C37.108 34.6412 37.0681 34.7444 37.029 34.8608C36.9793 35.0086 37.0574 34.8417 37.0116 34.9041C36.9789 34.9491 36.93 34.9997 36.8875 35.0354C36.8344 35.0804 36.7728 35.1152 36.7172 35.1569C36.6548 35.2036 36.563 35.3187 36.4908 35.3484C36.5439 35.3263 36.4351 35.3463 36.4347 35.3463C36.3833 35.3506 36.3306 35.3646 36.2818 35.3807C36.1926 35.41 36.1132 35.4614 36.0265 35.4963C35.9539 35.5256 35.8655 35.5723 35.7895 35.5863C35.699 35.6033 35.634 35.5574 35.5282 35.5443C35.3163 35.5179 35.1311 35.6632 35.0538 35.8565C34.9951 36.0034 35.0028 36.2936 35.216 36.3203C35.445 36.3492 35.5992 36.4223 35.8324 36.336C36.0197 36.2668 36.199 36.1598 36.3939 36.1194C36.6271 36.071 36.7686 35.9593 36.9495 35.8127C37.1207 35.6738 37.2906 35.5591 37.4363 35.3884C37.5332 35.2745 37.6139 35.1671 37.6636 35.0243C37.6891 34.9508 37.7018 34.9016 37.7426 34.8374C37.8815 34.6191 37.941 34.4042 38.0187 34.1603C38.0854 33.9496 38.1372 33.736 38.1445 33.5138C38.15 33.3397 38.1202 33.1748 38.1058 33.0028C38.0939 32.8584 38.0688 32.6863 38.0863 32.5415C38.0939 32.4769 38.1177 32.4153 38.1232 32.3491C38.1347 32.2187 38.1003 32.1159 38.0939 31.9893C38.0909 31.929 38.1551 31.7128 38.1487 31.5866C38.1453 31.5191 38.11 31.4286 38.1062 31.3776C38.1003 31.3041 38.1198 31.2421 38.1283 31.1695C38.1487 30.9923 38.136 30.8101 38.1394 30.6321C38.1406 30.5625 38.1457 30.4928 38.1449 30.4227C38.1436 30.3106 38.0935 30.2107 38.0863 30.1054C38.0769 29.9673 38.1292 29.828 38.1113 29.6857C38.1045 29.6322 38.0676 29.5557 38.0731 29.5098C38.0671 29.5621 38.0833 29.5107 38.0863 29.4992C38.1024 29.4389 38.1313 29.3799 38.1419 29.317C38.1716 29.1437 38.1326 28.9615 38.1258 28.7877C38.119 28.614 38.1309 28.4683 38.1351 28.3039C38.1389 28.1608 38.0727 28.0303 38.0786 27.8965C38.0867 27.7245 38.1058 27.5563 38.1024 27.3821C38.0998 27.2407 38.0956 27.0946 38.1151 26.9548C38.1283 26.8597 38.1423 26.7658 38.1355 26.6694C38.1287 26.5729 38.0816 26.4875 38.0705 26.3949C38.0552 26.2679 38.0841 26.1337 38.1096 26.0449C38.1606 25.8674 38.1551 25.6584 38.1436 25.4736C38.1334 25.3084 38.0714 25.1797 38.0739 25.0131C38.0765 24.8373 38.0901 24.6631 38.0956 24.4873C38.0998 24.3471 38.1028 24.2116 38.0922 24.0718C38.0795 23.9011 38.1304 23.7375 38.116 23.5655C38.1105 23.4975 38.0841 23.4257 38.0863 23.3574C38.0863 23.3616 38.0735 23.447 38.0935 23.3314C38.1024 23.2805 38.1249 23.2325 38.133 23.1806C38.1648 22.9802 38.0931 22.7924 38.0897 22.5949C38.0875 22.4572 38.0807 22.3209 38.0727 22.1837C38.0705 22.1493 38.0773 22.0265 38.0603 22.1421C38.0671 22.097 38.0943 22.0384 38.1024 21.9998C38.1202 21.9118 38.1185 21.8214 38.1266 21.7326C38.1351 21.6391 38.1478 21.5448 38.1415 21.4509C38.1355 21.3656 38.0922 21.2963 38.0807 21.2186C38.0633 21.0997 38.1109 20.9009 38.116 20.8108C38.1338 20.4837 38.1377 20.1571 38.1466 19.83C38.1512 19.6652 38.1402 19.5322 38.088 19.3755C38.0676 19.3139 38.0697 19.3406 38.0727 19.3632C38.0782 19.4052 38.0931 19.2922 38.0948 19.2863C38.1292 19.1631 38.1338 19.0357 38.1249 18.9082C38.1117 18.7239 38.1436 18.5348 38.1168 18.3535C38.0854 18.1411 37.9996 17.9066 37.9134 17.7108C37.8352 17.5336 37.726 17.3654 37.6309 17.1968C37.523 17.0065 37.4036 16.8217 37.2261 16.69C36.8642 16.422 36.5239 16.2037 36.0792 16.0941C35.8579 16.0393 35.6043 15.9964 35.3757 16.0214C35.2126 16.0393 35.058 16.0766 34.8911 16.0936C34.7819 16.1051 34.5971 16.1119 34.5083 16.0907C34.4302 16.0715 34.3669 16.0325 34.2675 16.0278C34.1583 16.0227 34.0695 16.0524 33.9659 16.0792C33.6838 16.1514 33.3347 16.0584 33.0454 16.0461C32.8908 16.0397 32.7387 16.0146 32.5828 16.0206C32.5106 16.0231 32.4371 16.0252 32.3649 16.0295C32.2855 16.0342 32.1886 16.0741 32.1228 16.08C32.0434 16.0868 32.0013 16.0563 31.9265 16.0388C31.8331 16.0172 31.7311 16.0202 31.636 16.0269C31.4652 16.0388 31.3051 16.0278 31.1348 16.0244C30.9882 16.0219 30.8395 16.0202 30.6934 16.0316C30.5282 16.0448 30.3769 16.0138 30.2121 16.0168C30.0567 16.0193 29.9084 16.0503 29.7508 16.0456C29.6612 16.0431 29.575 16.041 29.4862 16.0567C29.4042 16.0711 29.343 16.1026 29.2628 16.0936C29.1086 16.0766 28.9675 16.0503 28.8087 16.0575C28.6388 16.0656 28.4722 16.035 28.3019 16.0282C28.1562 16.0223 28.0126 16.0193 27.8665 16.0231C27.6809 16.0282 27.4783 15.9896 27.2973 16.0397C27.1737 16.0737 27.0968 16.0915 26.9643 16.0936C26.7922 16.0966 26.6317 16.0503 26.4579 16.0495C26.1343 16.0482 25.8119 16.0316 25.4869 16.0219C25.1619 16.0121 24.885 16.0996 24.5647 16.0966C24.2686 16.0941 23.9641 16.097 23.6697 16.0707C23.3375 16.0405 23.0117 16.0843 22.6804 16.0762C22.5258 16.0724 22.3737 16.0422 22.2191 16.0422C22.0645 16.0422 21.9162 16.0686 21.7616 16.0588C21.4409 16.0384 21.1172 16.0558 20.7956 16.0571C20.6487 16.058 20.4932 16.0834 20.3475 16.0682C20.1814 16.0512 20.017 16.0295 19.8492 16.0214C19.6908 16.0142 19.5192 16.0393 19.3624 16.0618C19.2889 16.0724 19.2167 16.1102 19.1445 16.1026C19.1241 16.1004 19.0392 16.0499 18.9814 16.0397C18.8191 16.0108 18.6641 16.0614 18.5031 16.0541C18.3175 16.0456 18.159 16.0439 17.9794 16.0686C17.7716 16.097 17.5435 16.0834 17.3307 16.1153C17.1179 16.1472 16.8979 16.2631 16.6995 16.36C16.4829 16.4653 16.2764 16.5915 16.1014 16.7584C15.9489 16.9033 15.7684 17.046 15.6528 17.2227C15.5887 17.3208 15.5679 17.4283 15.5144 17.5281C15.4749 17.602 15.4094 17.6653 15.3674 17.7397C15.2612 17.9287 15.2714 18.1364 15.1907 18.3309C15.1045 18.5387 15.0696 18.8067 15.093 19.0306C15.0994 19.0939 15.1321 19.1703 15.135 19.223C15.1384 19.2875 15.1529 19.13 15.127 19.265C15.1151 19.3275 15.093 19.3852 15.0845 19.4485C15.0386 19.7867 15.1045 20.1074 15.1253 20.4374C15.1338 20.5704 15.1138 20.7734 15.1091 20.8648C15.1045 20.9561 15.0926 21.0551 15.0977 21.1502C15.1019 21.2241 15.1363 21.3129 15.1359 21.3753C15.1359 21.3928 15.0985 21.5032 15.0879 21.5678C15.0705 21.6748 15.076 21.7865 15.0981 21.8919C15.1299 22.0439 15.1006 22.1824 15.0981 22.3472C15.0955 22.512 15.0909 22.6934 15.1265 22.8595C15.1367 22.9058 15.1363 22.916 15.1342 22.9343C15.118 23.0672 15.073 23.1615 15.0785 23.3021C15.0841 23.4427 15.1002 23.5545 15.0785 23.6951C15.0492 23.8866 15.09 24.0731 15.1062 24.2566C15.1121 24.3267 15.1261 24.3955 15.1312 24.4656C15.138 24.5629 15.1711 24.3785 15.1282 24.4902C15.1104 24.537 15.0964 24.5918 15.0892 24.641C15.0722 24.7545 15.0768 24.8759 15.1057 24.9864C15.1129 25.0144 15.1265 25.042 15.1321 25.0705C15.1457 25.138 15.1401 25.017 15.1359 25.0854C15.1291 25.1996 15.079 25.3007 15.0781 25.4205C15.0777 25.4944 15.0904 25.5649 15.096 25.638C15.1091 25.8079 15.0841 25.9795 15.1104 26.1486C15.1367 26.3176 15.1257 26.4132 15.1193 26.5835C15.1129 26.7539 15.1338 26.9217 15.1393 27.0899C15.1406 27.1268 15.1338 27.3295 15.1546 27.2156C15.1338 27.3282 15.1006 27.4199 15.096 27.538C15.0904 27.6778 15.0832 27.8609 15.0841 28.0316C15.0849 28.185 15.0565 28.34 15.0637 28.4925C15.0675 28.5736 15.0802 28.6645 15.1189 28.7372C15.1282 28.755 15.135 28.778 15.141 28.7945C15.1372 28.8158 15.1406 28.8013 15.1508 28.7516C15.1414 28.7818 15.1325 28.8119 15.124 28.8425C15.0955 28.9483 15.0828 29.0621 15.0934 29.1722C15.1002 29.2431 15.1338 29.3183 15.1321 29.3811C15.1282 29.5455 15.0815 29.7023 15.096 29.8747C15.1087 30.026 15.1312 30.184 15.1321 30.3356C15.1316 30.2545 15.1418 30.2923 15.1278 30.3275C15.1011 30.3955 15.0926 30.4575 15.0853 30.5276C15.0756 30.6245 15.0802 30.7192 15.0836 30.816C15.0887 30.9651 15.1316 31.1257 15.1253 31.2642C15.1176 31.4337 15.1023 31.5874 15.1193 31.7574C15.1363 31.9273 15.0713 32.0768 15.0862 32.2437C15.0926 32.3138 15.1079 32.392 15.1197 32.4527C15.1389 32.5487 15.1389 32.3907 15.1248 32.4574C15.1087 32.5338 15.0841 32.6001 15.0768 32.6774C15.0458 32.9969 15.1074 33.3431 15.1423 33.6485C15.166 33.8562 15.1236 34.0711 15.1414 34.2801C15.1592 34.4891 15.2858 34.707 15.3763 34.902C15.4668 35.097 15.5811 35.3238 15.7578 35.4627C15.8147 35.5073 15.8809 35.5375 15.9349 35.5863C16.0169 35.6611 16.0831 35.7515 16.1689 35.8238C16.352 35.9775 16.5504 36.057 16.7594 36.1653C16.8418 36.2082 16.917 36.2617 17.0058 36.2936C17.1357 36.3399 17.2428 36.3165 17.3757 36.311C17.555 36.3033 17.7372 36.3581 17.9093 36.3964C18.0184 36.4206 18.1344 36.418 18.2423 36.3883C18.3137 36.3688 18.3493 36.3407 18.4211 36.3547C18.6029 36.3904 18.7431 36.4376 18.9296 36.3607C19.1271 36.2795 18.9411 36.3259 19.0366 36.3377C19.1322 36.3496 19.2342 36.3645 19.331 36.3785C19.5183 36.4057 19.6628 36.41 19.8497 36.3713C19.9877 36.3428 20.1551 36.3611 20.3059 36.353C20.6058 36.3369 20.9103 36.3067 21.2098 36.3441C21.3687 36.3637 21.528 36.3781 21.6885 36.3857C21.8491 36.3934 21.9969 36.3263 22.1524 36.3471C22.4858 36.3917 22.8087 36.3874 23.1421 36.3471C23.4696 36.3076 23.8099 36.4567 24.1348 36.3564C24.272 36.3144 24.3999 36.3488 24.5452 36.353C24.6904 36.3573 24.8374 36.3594 24.9831 36.3747C25.1475 36.3921 25.334 36.4044 25.5001 36.3938C25.6662 36.3832 25.7689 36.3573 25.9295 36.3722C26.254 36.4019 26.5888 36.4023 26.9146 36.4091C27.0836 36.4125 27.2366 36.3705 27.4014 36.3628C27.4706 36.3594 27.5509 36.3411 27.6193 36.3518C27.7055 36.3649 27.7697 36.4015 27.8614 36.4061C28.0309 36.4146 28.1804 36.3501 28.3482 36.356C28.5066 36.362 28.6591 36.3972 28.8163 36.4015C28.9735 36.4057 29.1617 36.3845 29.3154 36.3526C29.4785 36.3191 29.5372 36.3959 29.7139 36.4044C29.8906 36.4129 30.0269 36.3526 30.1926 36.3552C30.3485 36.3577 30.5048 36.359 30.6607 36.3594C30.8166 36.3598 30.9767 36.3645 31.1348 36.3564C31.3059 36.3479 31.4453 36.4066 31.616 36.4125C31.7868 36.4185 31.9601 36.4295 32.1151 36.376C32.1589 36.3611 32.1946 36.3254 32.24 36.3152C32.2065 36.3225 32.2192 36.3288 32.2307 36.3275C32.3131 36.3169 32.4218 36.3216 32.5055 36.3271C32.658 36.3369 32.8037 36.3696 32.9596 36.3594C33.1274 36.3484 33.2922 36.3535 33.4604 36.353C33.6142 36.353 33.768 36.3454 33.9217 36.345C34.0755 36.3445 34.2276 36.3781 34.3826 36.3764C34.6885 36.373 34.9973 36.3305 35.3048 36.3263C35.7054 36.3208 35.9356 35.5307 35.4429 35.5375L35.4386 35.54Z" fill="white"/>
<path d="M15.5139 20.4661C15.33 20.4551 15.5772 20.4937 15.5929 20.4971C15.6566 20.5107 15.7216 20.5167 15.7866 20.5175C15.8983 20.5197 16.0113 20.5065 16.1171 20.4683C16.14 20.4598 16.0568 20.4534 16.0551 20.4534C16.1196 20.4538 16.1863 20.495 16.2517 20.5048C16.4076 20.5281 16.5342 20.4971 16.688 20.4899C16.7636 20.4865 17.0112 20.5171 17.1536 20.5192C17.2576 20.5209 17.36 20.5256 17.4636 20.5112C17.5618 20.4976 17.6408 20.4644 17.7402 20.4649C17.7746 20.4649 17.809 20.4666 17.8434 20.4657C17.837 20.4657 17.9504 20.4734 17.8867 20.4619C18.018 20.4861 18.1216 20.5349 18.2618 20.5371C18.3472 20.5383 18.862 20.5222 18.865 20.4627C18.8637 20.4852 18.7291 20.4169 18.8195 20.4683C18.8607 20.4916 18.9185 20.5039 18.9644 20.5141C19.0939 20.5422 19.2328 20.546 19.3624 20.5141C19.4121 20.5018 19.4703 20.4882 19.5132 20.4589C19.5871 20.4088 19.393 20.4457 19.5485 20.4589C19.5769 20.4615 19.6075 20.4593 19.636 20.4598C19.6653 20.4602 19.6946 20.4606 19.7235 20.4606C19.8173 20.4632 19.8101 20.4602 19.7022 20.4508C19.7039 20.45 19.7617 20.478 19.7706 20.4819C19.8573 20.5171 19.9448 20.5273 20.0365 20.5324C20.1198 20.5371 20.2026 20.5362 20.2859 20.5358C20.4953 20.5349 20.7174 20.5456 20.923 20.5022C20.9485 20.4967 20.9859 20.4869 21.0097 20.4802L20.94 20.4729C20.9702 20.4865 21.0016 20.4967 21.0343 20.5039C21.1626 20.5426 21.2951 20.549 21.4281 20.5405C21.6532 20.526 21.7475 20.5587 21.9909 20.5396C22.1553 20.5265 22.3053 20.4967 22.4718 20.4942C22.6638 20.4916 22.8384 20.5205 23.0261 20.5366C23.2364 20.5553 23.4632 20.5129 23.6718 20.4869C23.71 20.4823 23.7843 20.4793 23.8719 20.4789C23.9143 20.4789 23.9568 20.4776 23.9993 20.4776C24.015 20.4776 24.1862 20.4802 24.1038 20.4768C24.258 20.4835 24.5009 20.4644 24.6165 20.4721C24.6811 20.4763 24.8714 20.5409 24.9809 20.5443C25.082 20.5473 25.1853 20.5383 25.2864 20.5349C25.4754 20.5286 25.6623 20.4984 25.85 20.4835C25.8989 20.4797 25.9235 20.4835 25.9762 20.4912C26.051 20.5022 26.127 20.5056 26.2026 20.5065C26.4103 20.5099 26.1427 20.5001 26.2816 20.509C26.7293 20.5366 27.036 20.5107 27.4893 20.5018C27.6592 20.4984 27.8019 20.5337 27.9701 20.54C28.0967 20.5447 28.2178 20.5303 28.3346 20.4806C28.4353 20.4381 28.3813 20.4865 28.3405 20.4666C28.3592 20.4755 28.3949 20.4857 28.4195 20.4916C28.5669 20.5269 28.7173 20.509 28.8647 20.4899C28.9093 20.4844 28.9199 20.4793 28.9909 20.4869C29.2028 20.5095 29.4135 20.515 29.6268 20.512C29.7916 20.5099 29.9436 20.5303 30.1076 20.5354C30.2542 20.54 30.3671 20.4852 30.5043 20.4661C30.5808 20.4555 30.4347 20.4661 30.478 20.4772C30.5596 20.4976 30.6331 20.5099 30.7184 20.5133C30.8255 20.5175 30.9393 20.515 31.0417 20.4806C31.1254 20.4525 31.0642 20.478 31.0888 20.4721L31.0192 20.4649C31.0672 20.4852 31.1169 20.501 31.1679 20.5116C31.3641 20.5553 31.5574 20.4831 31.7392 20.5103C31.8496 20.5269 31.9575 20.5451 32.0701 20.5366C32.1516 20.5307 32.2323 20.4946 32.3105 20.4891C32.404 20.4823 32.5191 20.5235 32.6159 20.5252C32.7128 20.5269 32.8207 20.5269 32.9213 20.5222C32.9991 20.5188 33.1609 20.5222 33.2268 20.4789C33.1919 20.5014 33.1197 20.4483 33.197 20.478C33.3036 20.5192 33.4196 20.5294 33.5326 20.5315C33.6333 20.5332 33.7378 20.5273 33.838 20.5218C33.9034 20.518 33.9693 20.5129 34.0326 20.4976C34.0729 20.4886 34.112 20.4755 34.1498 20.4576C34.2046 20.4368 34.2025 20.4372 34.1434 20.4581C33.9969 20.4462 34.0589 20.447 34.1082 20.4734C34.1885 20.5163 34.3031 20.5277 34.3919 20.532C34.5168 20.5375 34.6264 20.5099 34.747 20.492C34.804 20.4835 34.8719 20.4967 34.9951 20.5069C35.0966 20.5154 35.1977 20.5358 35.3005 20.5392C35.3664 20.5413 35.6803 20.5464 35.7172 20.4636C35.6951 20.5133 35.5303 20.4364 35.6412 20.4819C35.7253 20.5163 35.8222 20.5282 35.9118 20.532C35.9916 20.5354 36.0681 20.5349 36.1475 20.5175C36.204 20.5052 36.2724 20.4589 36.3285 20.4564C36.196 20.4619 36.4946 20.5107 36.523 20.5124C36.5124 20.512 36.7257 20.5201 36.6275 20.5154C36.6946 20.5188 36.7613 20.5294 36.8285 20.5311C36.9533 20.5345 37.0697 20.5022 37.1916 20.4933C37.2804 20.4865 37.3811 20.4942 37.4728 20.4916C37.5994 20.4886 37.7324 20.4657 37.8114 20.4632C37.9902 20.4576 38.2073 20.3374 38.1725 20.1297C38.1376 19.922 37.8849 19.8128 37.6971 19.8188C37.4869 19.8256 37.3717 19.8472 37.1504 19.8528C37.0404 19.8557 36.9355 19.8727 36.8268 19.8842C36.6951 19.8978 36.7503 19.8846 36.5872 19.8753C36.3909 19.8642 36.1998 19.8035 35.9976 19.846C35.9696 19.8519 35.8162 19.9067 35.8166 19.9071C35.7937 19.8587 35.9649 19.9628 35.9126 19.8965C35.8408 19.806 35.5405 19.8328 35.4394 19.8472C35.3672 19.8574 35.3154 19.874 35.2453 19.8995C35.137 19.9386 35.2546 19.8974 35.2517 19.8969C35.151 19.8753 35.0495 19.8638 34.9463 19.8629C34.891 19.8625 34.8316 19.8536 34.7058 19.8511C34.6778 19.8506 34.3533 19.8472 34.3426 19.8944C34.3494 19.8642 34.4765 19.936 34.3881 19.8833C34.3473 19.8591 34.2891 19.8468 34.2432 19.837C34.1103 19.8077 33.9676 19.8043 33.8346 19.837C33.7811 19.8502 33.731 19.8829 33.6774 19.8923C33.807 19.8702 33.632 19.8782 33.6103 19.8791C33.584 19.8799 33.5577 19.8829 33.5309 19.8838C33.4931 19.8855 33.4553 19.8863 33.4179 19.8863C33.5003 19.905 33.5105 19.9054 33.4476 19.8872C33.2327 19.8043 33.0224 19.8515 32.8066 19.877C32.6197 19.8991 32.4447 19.8528 32.2608 19.846C32.1414 19.8417 32.0314 19.8833 31.9176 19.8893C31.8666 19.8918 31.8186 19.8719 31.763 19.8638C31.6309 19.8438 31.4971 19.8528 31.3662 19.8761C31.3433 19.8804 31.3046 19.8893 31.2834 19.8935C31.2583 19.8825 31.2804 19.8842 31.3492 19.8991C31.3012 19.8787 31.2515 19.8629 31.2006 19.8523C31.0115 19.8103 30.8476 19.8655 30.6687 19.8689C30.5596 19.871 30.4453 19.8273 30.3306 19.8324C30.2682 19.8349 30.2049 19.843 30.1446 19.86C30.1 19.8757 30.0558 19.8918 30.0116 19.9088C30.0422 19.8812 30.0575 19.8761 30.0579 19.8927C29.713 19.837 29.36 19.8867 29.0146 19.8455C28.8044 19.8205 28.6319 19.8676 28.4718 19.8468C28.3333 19.829 28.2025 19.809 28.0631 19.8387C28.016 19.8489 27.9701 19.8651 27.9259 19.8838C27.8236 19.9271 27.8809 19.8782 27.92 19.8944C27.7535 19.8247 27.5509 19.8528 27.3742 19.8562C27.1414 19.8608 26.9986 19.8753 26.8113 19.8646C26.7149 19.8591 26.6219 19.8638 26.5259 19.8702C26.4813 19.8731 26.4375 19.8744 26.3929 19.8761C26.192 19.8833 26.449 19.8821 26.3139 19.8736C26.082 19.8595 25.8445 19.8158 25.6117 19.8511C25.4665 19.8731 25.3203 19.885 25.1713 19.8893C25.0918 19.8918 25.0103 19.8995 24.9308 19.8978C24.8603 19.8961 25.0328 19.919 24.896 19.8884C24.817 19.8706 24.7524 19.8489 24.6738 19.84C24.5528 19.826 24.4402 19.8409 24.3204 19.8464C24.2771 19.8485 24.2333 19.8477 24.1904 19.8464C24.3128 19.8494 23.9475 19.8294 24.063 19.8362C23.8506 19.8243 23.6365 19.8302 23.4258 19.8553C23.3774 19.8608 23.2653 19.8646 23.1684 19.8795C23.1255 19.8863 23.0707 19.8978 23.0338 19.8969C22.9242 19.8952 22.8082 19.8625 22.6956 19.8587C22.5831 19.8549 22.4705 19.8472 22.3579 19.8489C22.1736 19.8515 22.0007 19.8804 21.8197 19.8999C21.7994 19.902 21.7127 19.8948 21.7599 19.8974C21.8503 19.9029 21.4549 19.877 21.6197 19.8859C21.516 19.8799 21.4171 19.888 21.3143 19.8948C21.2561 19.8986 21.132 19.8629 21.2709 19.9067C21.2212 19.891 21.1732 19.8714 21.1223 19.86C20.9846 19.8294 20.8402 19.8273 20.7013 19.8566C20.5271 19.8931 20.3513 19.8897 20.172 19.8901C20.1457 19.8901 20.1194 19.8901 20.093 19.8901C20.0552 19.8901 20.0174 19.8901 19.98 19.8901C20.0756 19.9109 20.0934 19.9088 20.0331 19.8838C19.9108 19.8137 19.7447 19.8166 19.6096 19.8141C19.5111 19.8124 19.4108 19.8082 19.3123 19.8166C19.2379 19.823 19.184 19.8345 19.1165 19.8587C19.0884 19.8676 19.0608 19.8787 19.034 19.891C18.9809 19.9152 18.9907 19.9152 19.0638 19.891C19.2086 19.9012 19.15 19.9037 19.099 19.8774C19.0175 19.8353 18.9049 19.823 18.8153 19.8196C18.6862 19.8145 18.5821 19.8485 18.4606 19.8702C18.3897 19.8829 18.286 19.8893 18.2125 19.8889C18.139 19.8884 18.3145 19.9084 18.1777 19.8774C18.1012 19.8604 18.0337 19.837 17.9555 19.8281C17.7062 19.7984 17.4815 19.8396 17.2394 19.8744C17.0563 19.9008 16.8681 19.8528 16.6863 19.8455C16.626 19.843 16.5682 19.8447 16.5083 19.8506C16.5665 19.8451 16.3159 19.8935 16.3809 19.8685L16.3159 19.8706C16.3987 19.8906 16.4085 19.8923 16.346 19.8748C16.256 19.8438 16.1698 19.8302 16.0755 19.8264C15.954 19.8213 15.8231 19.829 15.7089 19.874C15.7237 19.868 15.8312 19.9118 15.7352 19.874C15.6269 19.8311 15.5143 19.8273 15.3996 19.8205C15.2195 19.8094 15.0054 19.9577 15.0386 20.1539C15.076 20.3748 15.3245 20.4534 15.5139 20.4649V20.4661Z" fill="white"/>
<path d="M32.9101 29.5482C32.8986 29.7143 32.8655 29.8748 32.8578 30.0422C32.8519 30.1696 32.8119 30.2469 32.7712 30.3676C32.6675 30.6738 32.5681 30.9232 32.3855 31.1925C32.0686 31.6597 31.6001 32.0183 31.0793 32.2238C29.977 32.6592 28.6538 32.3776 27.8692 31.4716C27.6713 31.2426 27.509 30.9894 27.3947 30.7091C27.2805 30.4287 27.2393 30.1751 27.2304 29.8723C27.2214 29.5694 27.2261 29.3235 27.3179 29.0414C27.362 28.9059 27.4058 28.7721 27.461 28.6408C27.529 28.4781 27.6245 28.3482 27.7155 28.1991C27.9903 27.7492 28.4558 27.3678 28.9477 27.1754C29.5157 26.9528 30.09 26.9018 30.6893 27.0012C31.0105 27.0543 31.3324 27.2059 31.6115 27.3733C31.8813 27.5356 32.0597 27.7378 32.2695 27.9688C32.3693 28.0789 32.4483 28.1417 32.5074 28.2755C32.5664 28.4093 32.6378 28.5342 32.6985 28.6659C32.8391 28.9713 32.8956 29.3205 32.905 29.6556C32.9101 29.8451 33.046 30.0864 33.2533 30.1042C33.4606 30.122 33.5617 29.8952 33.5566 29.7177C33.5464 29.354 33.4886 28.9556 33.3684 28.6111C33.3051 28.4293 33.221 28.2534 33.1318 28.0831C33.0502 27.9276 32.9972 27.7569 32.8867 27.618C32.7975 27.5054 32.6879 27.4043 32.5915 27.2973C32.4747 27.1673 32.3579 27.0224 32.227 26.9069C31.9577 26.6699 31.6124 26.514 31.2895 26.3661C30.6409 26.0692 29.8619 26.0348 29.175 26.2179C28.8212 26.3122 28.4809 26.4426 28.1657 26.6316C27.8977 26.7922 27.653 27.0483 27.4338 27.2701C27.3272 27.378 27.266 27.4995 27.1849 27.6252C27.083 27.7828 26.9789 27.931 26.9024 28.1039C26.7512 28.4459 26.6191 28.8269 26.58 29.2003C26.5014 29.9496 26.6378 30.7418 27.0099 31.3998C27.2015 31.7392 27.4415 32.0327 27.7129 32.3101C27.9843 32.5875 28.3042 32.7561 28.6393 32.9337C29.2646 33.265 30.0101 33.3185 30.7021 33.2268C30.9051 33.2 31.1065 33.1218 31.2959 33.0466C31.4607 32.9812 31.6383 32.9303 31.7887 32.8338C32.1187 32.6223 32.442 32.3678 32.6981 32.0697C32.9538 31.7719 33.1891 31.3977 33.3077 31.0217C33.3642 30.842 33.447 30.659 33.4856 30.475C33.509 30.3654 33.5022 30.2554 33.5099 30.1441C33.5175 30.0328 33.5443 29.9317 33.5519 29.8234C33.5659 29.6212 33.4997 29.3766 33.2932 29.2908C33.1127 29.2151 32.9237 29.3596 32.9105 29.549L32.9101 29.5482Z" fill="white"/>
<path d="M37.7153 23.296C37.8062 23.9366 37.6181 24.6179 37.2277 25.0775C37.1495 25.1697 37.0633 25.253 36.969 25.3252C36.4873 25.6807 35.8752 25.764 35.2864 25.6629C35.1688 25.6425 35.052 25.6149 34.9377 25.5805C33.9463 25.3418 33.1817 24.2798 33.479 23.2603C33.564 22.963 33.7764 22.6656 33.9811 22.4261C34.0546 22.3398 34.1323 22.2557 34.2135 22.1759C34.6191 21.7766 35.1029 21.4809 35.6853 21.4894C35.8085 21.4937 35.9334 21.5124 36.0595 21.5481C36.1972 21.5829 36.3314 21.6326 36.4605 21.698C36.5884 21.7587 36.7112 21.8301 36.8271 21.9117C36.9142 21.9728 36.9975 22.0391 37.076 22.1105C37.1546 22.1818 37.2285 22.2579 37.2973 22.3381C37.4295 22.4962 37.5144 22.7086 37.6559 22.8742C37.6898 23.0008 37.709 23.1423 37.7153 23.296Z" fill="#3CCB7F"/>
<path d="M38.1254 23.3483C38.1191 23.5152 38.1021 23.697 38.0647 23.8601C38.0239 24.0364 37.913 24.2233 37.8204 24.378C37.6327 24.6906 37.337 24.8945 37.0091 25.0427C36.377 25.3282 35.6647 25.0763 35.2369 24.5708C34.7862 24.0377 34.6936 23.1503 35.0823 22.5574C35.4646 21.9746 36.0708 21.5753 36.7925 21.7095C37.6195 21.8633 38.1029 22.6342 38.1258 23.4345C38.1373 23.8347 38.975 23.8657 38.9618 23.4082C38.9334 22.4023 38.2465 21.506 37.2954 21.1862C36.3197 20.8582 35.2153 21.1101 34.5492 21.9121C34.24 22.2846 34.0403 22.7128 34.0042 23.2C33.969 23.6737 34.0854 24.1966 34.3368 24.6014C34.8839 25.4815 35.9195 25.9254 36.9386 25.7687C38.0664 25.5954 38.9193 24.6243 38.9622 23.4944C38.9703 23.2829 38.797 23.1423 38.5986 23.1074C38.4444 23.0807 38.1335 23.1367 38.1254 23.3483Z" fill="white"/>
<path d="M32.7749 38.1443C32.8233 38.6298 32.486 39.0423 31.9933 39.0987C31.5005 39.1552 30.9874 38.877 30.9245 38.3605C30.8659 37.8813 31.3179 37.5067 31.7596 37.4676C32.283 37.4213 32.7201 37.7348 32.7889 38.2568C32.8127 38.4361 33.0038 38.6149 33.1886 38.5431C33.3989 38.4616 33.4222 38.2033 33.3976 38.0151C33.3156 37.3924 32.8662 36.8079 32.2371 36.6605C31.608 36.5131 30.9177 36.7599 30.5618 37.3227C30.1816 37.9238 30.2037 38.6999 30.5983 39.2895C30.9691 39.8434 31.6649 40.0613 32.2957 39.8969C33.0552 39.6994 33.4855 38.8668 33.412 38.1277C33.3942 37.948 33.3024 37.7055 33.0824 37.7114C32.8806 37.7165 32.7574 37.9659 32.7749 38.1443Z" fill="white"/>
<path d="M26.2208 34.1519C26.2565 34.5202 26.129 34.86 25.8742 35.1149C25.4919 35.4122 25.0246 35.4122 24.6104 35.2317C24.4991 35.173 24.3955 35.0962 24.3012 35.0048C24.2069 34.9135 24.1219 34.8069 24.0476 34.6901C23.7078 34.1803 23.859 33.595 24.2545 33.2361C24.3534 33.1464 24.4677 33.0708 24.5926 33.0143C25.237 32.6511 26.0865 33.1184 26.1842 33.8269C26.2085 33.9306 26.2216 34.0397 26.2212 34.1519H26.2208Z" fill="#3CCB7F"/>
<path d="M26.5865 34.1282C26.5721 34.6197 26.2055 34.9621 25.7098 34.9591C25.2217 34.9566 24.7426 34.5726 24.7324 34.062C24.723 33.5786 25.1916 33.2693 25.6359 33.2829C26.1588 33.2991 26.5661 33.7175 26.5836 34.2344C26.5899 34.4218 26.7556 34.584 26.9459 34.5207C27.1532 34.4519 27.2505 34.2094 27.2437 34.0089C27.2216 33.3615 26.8189 32.7239 26.183 32.529C25.5471 32.334 24.887 32.5532 24.4758 33.0688C24.0387 33.6168 23.9402 34.3929 24.28 35.0165C24.593 35.5908 25.2782 35.8788 25.9086 35.7581C26.6677 35.6124 27.219 34.8703 27.2415 34.1155C27.2466 33.9384 27.191 33.7047 26.968 33.7073C26.7709 33.7094 26.5925 33.9422 26.587 34.1287L26.5865 34.1282Z" fill="white"/>
<path d="M35.0007 24.5257C34.1074 25.4726 33.2239 26.427 32.3344 27.3777C32.1891 27.5332 32.1742 27.7846 32.2783 27.9673C32.3654 28.1202 32.5824 28.2302 32.7273 28.0756C33.6168 27.125 34.5007 26.1705 35.3936 25.2236C35.5398 25.069 35.5538 24.8163 35.4497 24.6341C35.3622 24.4807 35.146 24.3715 35.0007 24.5257Z" fill="white"/>
<path d="M32.1477 37.1396C32.1014 36.7595 32.0529 36.3797 32.0041 36C31.954 35.6134 31.9399 35.2162 31.858 34.8348C31.7819 34.4801 31.7747 34.091 31.7369 33.7282C31.6948 33.3256 31.632 32.928 31.5925 32.5257C31.5721 32.3163 31.2467 32.2908 31.098 32.332C30.8954 32.3881 30.7527 32.5401 30.7735 32.7521C30.8105 33.1276 30.8737 33.4989 30.9107 33.8748C30.9307 34.0783 30.9574 34.2813 30.9791 34.4848C30.9995 34.6776 30.9982 34.8705 31.039 35.0612C31.1193 35.4342 31.1329 35.8241 31.1817 36.2026C31.2306 36.5811 31.2811 36.9782 31.3287 37.3665C31.3542 37.5755 31.6711 37.6022 31.8231 37.5602C32.0219 37.5054 32.1736 37.3512 32.1477 37.1401V37.1396Z" fill="white"/>
<path d="M27.5825 31.4815C27.1488 31.916 26.7138 32.3502 26.2805 32.7851C26.131 32.9351 26.0409 33.1572 26.1276 33.3662C26.1964 33.5319 26.4186 33.6262 26.5634 33.4809C26.9967 33.0459 27.4317 32.6122 27.8654 32.1773C28.0149 32.0273 28.1049 31.8052 28.0183 31.5962C27.9495 31.4301 27.7273 31.3362 27.5825 31.4815Z" fill="white"/>
</g>
<defs>
<filter id="filter0_i_18107_23960" x="3" y="3" width="48" height="49" filterUnits="userSpaceOnUse" color-interpolation-filters="sRGB">
<feFlood flood-opacity="0" result="BackgroundImageFix"/>
<feBlend mode="normal" in="SourceGraphic" in2="BackgroundImageFix" result="shape"/>
<feColorMatrix in="SourceAlpha" type="matrix" values="0 0 0 0 0 0 0 0 0 0 0 0 0 0 0 0 0 0 127 0" result="hardAlpha"/>
<feOffset dy="1.5"/>
<feGaussianBlur stdDeviation="0.5"/>
<feComposite in2="hardAlpha" operator="arithmetic" k2="-1" k3="1"/>
<feColorMatrix type="matrix" values="0 0 0 0 0.469786 0 0 0 0 0.351917 0 0 0 0 0.686667 0 0 0 0.33 0"/>
<feBlend mode="normal" in2="shape" result="effect1_innerShadow_18107_23960"/>
</filter>
<filter id="filter1_f_18107_23960" x="0" y="0" width="54" height="54" filterUnits="userSpaceOnUse" color-interpolation-filters="sRGB">
<feFlood flood-opacity="0" result="BackgroundImageFix"/>
<feBlend mode="normal" in="SourceGraphic" in2="BackgroundImageFix" result="shape"/>
<feGaussianBlur stdDeviation="8" result="effect1_foregroundBlur_18107_23960"/>
</filter>
<linearGradient id="paint0_linear_18107_23960" x1="11" y1="7.5" x2="41.07" y2="51.967" gradientUnits="userSpaceOnUse">
<stop stop-color="#29204A"/>
<stop offset="1" stop-color="#251F40"/>
</linearGradient>
<clipPath id="clip0_18107_23960">
<rect width="24" height="23.9575" fill="white" transform="translate(15 16)"/>
</clipPath>
</defs>
</svg>
