<svg width="59" height="59" viewBox="0 0 59 59" fill="none" xmlns="http://www.w3.org/2000/svg">
<g filter="url(#filter0_i_18107_23957)">
<rect x="6" y="5" width="48" height="48" rx="16" fill="url(#paint0_linear_18107_23957)"/>
</g>
<g filter="url(#filter1_f_18107_23957)">
<circle cx="29.5" cy="29.5" r="13.5" fill="#3CCB7F" fill-opacity="0.4"/>
</g>
<g clip-path="url(#clip0_18107_23957)">
<path d="M36.4889 20.4121H24.8621C23.2566 20.4121 21.9551 21.7687 21.9551 23.4421V39.969C21.9551 41.6424 23.2566 42.999 24.8621 42.999H36.4889C38.0944 42.999 39.396 41.6424 39.396 39.969V23.4421C39.396 21.7687 38.0944 20.4121 36.4889 20.4121Z" fill="#3CCB7F"/>
<path d="M35.3263 41.327C35.0474 41.329 34.77 41.3332 34.4911 41.3202C34.3437 41.3135 34.1973 41.3016 34.0509 41.3332C34.0023 41.3435 33.9512 41.3606 33.905 41.3797C33.8321 41.4097 33.8753 41.3642 33.9169 41.3813C33.8713 41.3632 33.8222 41.3435 33.7745 41.3296C33.6053 41.2789 33.442 41.3068 33.2733 41.3347C33.1403 41.3564 33.0415 41.3213 32.8981 41.3135C32.6297 41.299 32.3493 41.284 32.0813 41.3032C31.9637 41.312 31.8808 41.3456 31.7691 41.3777C31.7017 41.3973 31.7989 41.3751 31.8044 41.3746C31.7612 41.3756 31.717 41.3714 31.6739 41.3668C31.5399 41.3533 31.4109 41.3446 31.2759 41.3456C31.1498 41.3466 31.0263 41.3425 30.9007 41.3321C30.7255 41.3182 30.5786 41.358 30.4099 41.3792C30.3052 41.3927 30.198 41.3502 30.0804 41.343C29.9385 41.3342 29.795 41.3285 29.6531 41.328C29.5241 41.328 29.3921 41.3368 29.2631 41.3259C29.1172 41.3135 28.9355 41.2794 28.7673 41.3156C28.5311 41.3668 28.3023 41.373 28.0591 41.3637C27.9058 41.358 27.8046 41.3321 27.6512 41.3197C27.5649 41.3125 27.4706 41.3166 27.3857 41.3327C27.3455 41.3399 27.3103 41.3523 27.2711 41.3647C27.2359 41.3766 27.2011 41.388 27.1664 41.4004L27.2239 41.3818C27.1009 41.3347 26.9659 41.3078 26.8339 41.3099C26.7019 41.312 26.5654 41.3554 26.4468 41.3409C26.2806 41.3202 26.1282 41.2851 25.9481 41.3192C25.8344 41.3404 25.7317 41.3539 25.6151 41.357C25.4985 41.3601 25.4057 41.344 25.291 41.3197C25.1059 41.2809 24.9441 41.3177 24.764 41.3487C24.4767 41.3983 24.2568 41.3383 23.9759 41.3497C23.6504 41.3627 23.3105 41.374 23.0078 41.2287C22.6872 41.074 22.3363 40.9768 22.0579 40.7446C21.7641 40.4994 21.5756 40.2552 21.4163 39.9014C21.3379 39.7266 21.253 39.5425 21.1984 39.3583C21.1438 39.1742 21.1523 38.9363 21.1379 38.7382C21.0952 38.1433 21.1706 37.562 21.1399 36.9563C21.1319 36.8027 21.1269 36.6521 21.1071 36.4996C21.0882 36.3558 21.12 36.272 21.1379 36.1271C21.1572 35.9714 21.1215 35.8282 21.1116 35.6756C21.1016 35.523 21.1076 35.3746 21.1051 35.2266C21.0997 34.9452 21.116 34.6566 21.0942 34.3763C21.0704 34.0664 21.1399 33.7856 21.1096 33.4706C21.0977 33.3464 21.0897 33.2187 21.0818 33.094C21.0724 32.9378 21.1448 32.7961 21.1483 32.6378C21.1552 32.3513 21.0575 32.0632 21.0838 31.7777C21.1101 31.4921 21.0709 31.2128 21.0828 30.9242C21.0947 30.6356 21.1374 30.3806 21.125 30.0899C21.119 29.9446 21.0887 29.7945 21.0877 29.6508C21.0868 29.4935 21.1513 29.343 21.1413 29.1785C21.1255 28.9189 21.0619 28.6602 21.0917 28.4058C21.1309 28.0732 21.1255 27.7716 21.0987 27.438C21.0768 27.1649 21.1016 26.9011 21.1031 26.629C21.1036 26.4785 21.0659 26.3228 21.0872 26.1733C21.1071 26.0352 21.1418 25.893 21.1289 25.7383C21.1051 25.4554 21.116 25.1756 21.118 24.8895C21.119 24.7421 21.1021 24.602 21.0937 24.4556C21.0853 24.3092 21.1205 24.1897 21.1265 24.0387C21.1324 23.8959 21.0892 23.762 21.0838 23.6228C21.0778 23.4583 21.1399 23.2923 21.12 23.1139C21.1076 23.0001 21.0664 22.9054 21.0858 22.7937C21.119 22.6002 21.1379 22.4461 21.121 22.2496C21.1071 22.0902 21.0793 21.9071 21.1011 21.7489C21.1294 21.544 21.2212 21.3485 21.2962 21.1597C21.3632 20.9911 21.4312 20.8194 21.5071 20.6549C21.5403 20.5825 21.5135 20.6316 21.5046 20.6451C21.5304 20.6068 21.5741 20.5742 21.6063 20.5411C21.6753 20.4713 21.7359 20.4009 21.7964 20.3223C21.8728 20.2235 21.9607 20.1077 22.0674 20.0451C22.1348 20.0052 22.2227 19.9944 22.2951 19.9618C22.4043 19.9127 22.4907 19.8387 22.5904 19.7761C23.1174 19.4461 23.8459 19.6437 24.427 19.6039C24.6126 19.5909 24.9377 19.6328 25.1918 19.6225C25.3218 19.6173 25.4523 19.5889 25.5813 19.593C25.7104 19.5971 25.8751 19.6354 26.029 19.6214C26.5227 19.5754 27.1138 19.6468 27.5822 19.6214C27.874 19.6059 28.145 19.5966 28.4368 19.6168C28.5489 19.6246 28.7112 19.6509 28.8467 19.6354C28.9822 19.6199 29.0531 19.5801 29.1812 19.6033C29.47 19.6556 29.7881 19.6577 30.0556 19.639C30.3012 19.622 30.5995 19.6654 30.866 19.6551C30.9598 19.6514 31.0446 19.637 31.1339 19.6085C31.1488 19.6039 31.2893 19.5847 31.2099 19.5796C31.1359 19.5749 31.1999 19.5847 31.2044 19.5858C31.3617 19.6199 31.5012 19.652 31.6639 19.639C31.9061 19.6199 32.1805 19.6158 32.4599 19.6085C32.7393 19.6013 33.0093 19.6577 33.2951 19.6566C33.5661 19.6556 33.8351 19.5946 34.103 19.594C34.4142 19.594 34.7015 19.7166 35.0112 19.6204C35.0405 19.6111 35.0836 19.5904 35.1159 19.5847C35.0633 19.5935 35.0424 19.5837 35.103 19.6039C35.1874 19.6318 35.3015 19.6064 35.3918 19.623C35.5963 19.6608 35.7799 19.7585 35.9739 19.8268C36.156 19.8904 36.2905 19.9044 36.4538 20.0218C36.5913 20.1211 36.7024 20.2747 36.819 20.4004C36.9357 20.5261 37.0657 20.6233 37.1768 20.7408C37.2726 20.8421 37.3024 21.0278 37.3684 21.1577C37.5351 21.4866 37.6691 21.8973 37.6741 22.2708C37.6761 22.4099 37.6835 22.5537 37.6756 22.6928C37.6657 22.8589 37.614 23.0208 37.6324 23.2013C37.6433 23.3104 37.6805 23.4195 37.6691 23.5209C37.6473 23.7113 37.6269 23.8711 37.6438 24.0646C37.6671 24.3289 37.622 24.5999 37.6215 24.8663C37.621 25.1487 37.7168 25.4264 37.6766 25.7114C37.6552 25.8614 37.6026 25.9944 37.6081 26.1527C37.614 26.3192 37.6155 26.5008 37.6453 26.6637C37.6676 26.7842 37.6781 26.8323 37.6443 26.9497C37.5912 27.1364 37.6056 27.3102 37.6552 27.4933C37.689 27.6196 37.6815 27.739 37.681 27.8709C37.681 28.0277 37.615 28.1668 37.6071 28.3261C37.5922 28.6271 37.5863 28.9644 37.6289 29.2623C37.6448 29.374 37.6642 29.4433 37.6423 29.5535C37.6091 29.7211 37.5997 29.869 37.6091 30.0397C37.626 30.3423 37.614 30.6356 37.6428 30.9377C37.6691 31.2092 37.6602 31.5139 37.6349 31.7854C37.6071 32.0833 37.6225 32.3896 37.6518 32.7014C37.6771 32.9673 37.6587 33.2368 37.6498 33.5037C37.6453 33.6428 37.6681 33.7809 37.6637 33.9196C37.6587 34.0727 37.6006 34.2175 37.5992 34.3752C37.5972 34.6794 37.6056 35.0006 37.6443 35.3021C37.6766 35.5561 37.6369 35.8183 37.625 36.0749C37.6111 36.3682 37.619 36.6718 37.62 36.9656C37.621 37.2387 37.6731 37.5278 37.6423 37.7958C37.6225 37.9706 37.5798 38.1247 37.624 38.3083C37.6572 38.4464 37.6771 38.5111 37.6523 38.6502C37.62 38.8328 37.6657 39.0118 37.6438 39.1923C37.6205 39.3889 37.5292 39.6185 37.4627 39.8047C37.3962 39.9909 37.3148 40.1089 37.2071 40.2656C37.1649 40.3277 37.1312 40.3877 37.0999 40.4564C37.0801 40.4994 37.0662 40.5532 37.0379 40.5914C37.085 40.5283 37.0453 40.5723 37.0076 40.5966C36.9218 40.652 36.8399 40.7301 36.7699 40.803C36.7466 40.8273 36.6265 40.9613 36.6736 40.9271C36.7238 40.8909 36.6657 40.9282 36.6454 40.9323C36.5957 40.9427 36.5397 40.9639 36.4925 40.9835C36.4081 41.0187 36.3287 41.0678 36.2513 41.118C36.1069 41.2116 36.0479 41.1816 35.8305 41.2468C35.7496 41.2711 35.6623 41.3275 35.5804 41.3425C35.5581 41.3466 35.3864 41.329 35.3263 41.327C35.0831 41.3197 34.8266 41.5085 34.7546 41.7511C34.6856 41.9828 34.8261 42.1913 35.0598 42.198C35.2936 42.2047 35.4965 42.2146 35.7149 42.1354C35.897 42.0697 36.0846 42.0521 36.2672 41.987C36.3739 41.9492 36.4702 41.8933 36.566 41.8308C36.5957 41.8111 36.624 41.7894 36.6543 41.7697C36.7525 41.7066 36.5684 41.7987 36.6796 41.7583C36.9163 41.6735 37.1039 41.5809 37.2811 41.3896C37.3977 41.2633 37.5341 41.1718 37.6532 41.0482C37.7917 40.9049 37.8453 40.7332 37.947 40.5671C38.0488 40.4011 38.1604 40.2646 38.2393 40.0804C38.3296 39.8694 38.3956 39.6573 38.4577 39.4359C38.5197 39.2146 38.5669 39.019 38.5549 38.7852C38.5455 38.6027 38.5927 38.4537 38.5927 38.2701C38.5927 38.1102 38.5133 37.9685 38.5212 37.8139C38.5286 37.6706 38.5634 37.5113 38.5609 37.3546C38.551 36.7577 38.5182 36.1561 38.5554 35.5592C38.5743 35.2592 38.5535 34.9747 38.5336 34.6758C38.5242 34.533 38.5222 34.3892 38.5187 34.2459C38.5142 34.0773 38.5768 33.9304 38.5822 33.7608C38.6036 33.1525 38.5619 32.5452 38.5197 31.9401C38.5103 31.8051 38.5465 31.6877 38.5544 31.547C38.5639 31.383 38.5678 31.2154 38.5659 31.0514C38.5624 30.7546 38.5128 30.4628 38.5277 30.168C38.5346 30.0335 38.5276 29.9021 38.5207 29.7682C38.5113 29.5975 38.5674 29.463 38.5768 29.2939C38.5857 29.1377 38.5415 28.9913 38.5321 28.8382C38.5227 28.6851 38.5262 28.5211 38.5257 28.3639C38.5247 28.0654 38.5986 27.7882 38.6006 27.4861C38.6011 27.3889 38.6036 27.2864 38.5842 27.1908C38.5728 27.1328 38.5341 27.0749 38.5281 27.0175C38.5128 26.8696 38.6026 26.7071 38.5932 26.5452C38.5768 26.2706 38.4939 26.0218 38.5559 25.7487C38.6304 25.4182 38.5867 25.0923 38.5406 24.7644C38.4984 24.4654 38.5867 24.1571 38.5634 23.8577C38.5386 23.5463 38.6031 23.2675 38.5554 22.952C38.5341 22.8113 38.5753 22.7182 38.5897 22.5744C38.6061 22.4104 38.5946 22.2366 38.5922 22.0721C38.5867 21.6614 38.4875 21.2301 38.3272 20.8535C38.2517 20.6766 38.1743 20.5085 38.1033 20.3306C38.0239 20.1314 37.8924 20.0528 37.7431 19.922C37.4413 19.6582 37.2552 19.3256 36.8935 19.1311C36.7401 19.0489 36.5759 19.0349 36.4166 18.9723C36.2086 18.8901 36.0082 18.8099 35.7873 18.7701C35.5784 18.7323 35.3471 18.7111 35.1367 18.7483C35.0762 18.7592 35.0216 18.7794 34.963 18.8001C34.9228 18.814 34.9055 18.797 34.9462 18.8068C35.0107 18.8223 34.8613 18.7602 34.832 18.7525C34.5383 18.6733 34.2107 18.7349 33.9174 18.769C33.6703 18.798 33.3716 18.7975 33.1433 18.7721C32.8455 18.7385 32.5582 18.7432 32.2585 18.7468C32.1235 18.7483 31.9299 18.7773 31.8406 18.7747C31.6838 18.7701 31.5379 18.7127 31.3756 18.722C31.263 18.7287 31.1712 18.7701 31.0635 18.7944C30.9935 18.8104 31.0962 18.7871 31.0982 18.7871C31.0535 18.7851 31.0119 18.7835 30.9677 18.7794C30.8253 18.7659 30.6903 18.7582 30.5469 18.7633C30.2263 18.7747 30.0055 18.7928 29.6888 18.7623C29.5608 18.7499 29.4313 18.7127 29.2988 18.7163C29.1747 18.7199 29.0174 18.7778 28.9147 18.7763C28.7673 18.7747 28.6035 18.7468 28.4556 18.7318C28.2874 18.7147 28.1321 18.7375 27.9649 18.7494C27.6765 18.7695 27.4522 18.7758 27.1475 18.7659C26.8428 18.7561 26.5743 18.6935 26.2721 18.7406C26.1406 18.7613 26.0756 18.7468 25.9441 18.7308C25.7828 18.7111 25.6285 18.7421 25.4692 18.753C25.1739 18.7737 24.9183 18.7163 24.627 18.738C24.3784 18.7566 24.0916 18.7271 23.8033 18.7256C23.3581 18.7235 22.9259 18.7727 22.511 18.9485C22.3512 19.0163 22.2197 19.1301 22.0693 19.2077C21.8842 19.3033 21.712 19.354 21.5428 19.4958C21.383 19.6292 21.255 19.7689 21.1245 19.9302C20.994 20.0916 20.8411 20.208 20.7399 20.387C20.6491 20.5478 20.5865 20.7413 20.5126 20.912C20.4208 21.1251 20.3285 21.3402 20.2684 21.5652C20.2084 21.7902 20.1836 21.9904 20.1955 22.2237C20.2034 22.3763 20.2367 22.5408 20.2248 22.6928C20.2128 22.8449 20.1533 22.9877 20.1632 23.149C20.1717 23.2861 20.2243 23.4185 20.2074 23.5463C20.1821 23.7428 20.1692 23.8902 20.198 24.0899C20.2203 24.2461 20.192 24.3314 20.1806 24.4923C20.1583 24.8001 20.2109 25.1218 20.2009 25.4332C20.191 25.7446 20.2257 26.0218 20.1836 26.3114C20.1637 26.449 20.1781 26.5794 20.186 26.717C20.1955 26.8814 20.1647 27.0387 20.1637 27.2021C20.1622 27.5083 20.2178 27.8114 20.2148 28.1171C20.2119 28.4228 20.1702 28.6959 20.1781 29.0006C20.1821 29.1542 20.2277 29.3063 20.2312 29.4563C20.2347 29.6063 20.1687 29.7547 20.1771 29.912C20.1935 30.2006 20.2491 30.4856 20.196 30.7639C20.1354 31.0809 20.187 31.3928 20.196 31.7094C20.1999 31.863 20.1578 32.0099 20.1672 32.1651C20.1771 32.3327 20.197 32.5096 20.2178 32.6756C20.2322 32.7894 20.2297 32.8525 20.2034 32.9611C20.1583 33.1509 20.1771 33.3144 20.188 33.5058C20.196 33.6496 20.2248 33.8027 20.2238 33.9454C20.2223 34.1021 20.1583 34.2537 20.1642 34.4177C20.1751 34.712 20.1766 35.0063 20.187 35.3011C20.192 35.4444 20.1945 35.5877 20.198 35.7304C20.2019 35.8918 20.2357 36.0563 20.2327 36.2156C20.2302 36.362 20.1722 36.5109 20.1811 36.6713C20.1895 36.8182 20.2163 36.9583 20.2223 37.1058C20.2486 37.728 20.1851 38.3218 20.2238 38.9363C20.2372 39.1504 20.2386 39.378 20.2679 39.5901C20.2982 39.8125 20.4029 40.0302 20.4893 40.2351C20.6481 40.6116 20.8049 40.952 21.1036 41.2339C21.4024 41.5158 21.6986 41.704 22.0654 41.8639C22.2306 41.9358 22.3969 42.0196 22.5636 42.0868C22.7661 42.168 22.9988 42.1908 23.2127 42.2182C23.3735 42.2389 23.5239 42.2316 23.6837 42.2228C23.8435 42.214 23.9725 42.2533 24.1392 42.2544C24.3918 42.2554 24.6707 42.1452 24.9134 42.1835C25.2439 42.2352 25.5317 42.2239 25.8637 42.1794C25.9813 42.1633 26.0865 42.2099 26.2165 42.2156C26.3545 42.2218 26.4954 42.1696 26.6299 42.182C26.813 42.199 26.9535 42.2735 27.1495 42.2373C27.2249 42.2233 27.2944 42.1825 27.3689 42.1701C27.2438 42.1913 27.4378 42.2058 27.4795 42.213C27.7589 42.2621 28.0497 42.2414 28.3306 42.228C28.4775 42.2208 28.6159 42.1773 28.7579 42.168C28.8799 42.1597 29.0581 42.2011 29.203 42.2011C29.4879 42.2011 29.7583 42.2208 30.0268 42.2492C30.1851 42.2658 30.3226 42.2213 30.4744 42.198C30.6109 42.1773 30.7702 42.2187 30.9091 42.2187C31.193 42.2187 31.5076 42.2849 31.7845 42.2156C31.8282 42.2047 31.8967 42.1675 31.9483 42.1571C31.9279 42.1613 31.8416 42.1659 31.9279 42.1696C31.989 42.1721 32.051 42.1732 32.1121 42.1742C32.2604 42.1773 32.4088 42.1794 32.5572 42.1835C32.6952 42.1871 32.8326 42.2228 32.9845 42.2177C33.1209 42.2135 33.2396 42.1618 33.3681 42.1944C33.5507 42.2414 33.7085 42.2694 33.8971 42.2233C33.9452 42.2114 33.9904 42.1861 34.0385 42.1752C34.108 42.1587 34.0068 42.1825 34.0038 42.1825C34.0703 42.184 34.1363 42.1877 34.2028 42.1908C34.4891 42.2047 34.7745 42.2006 35.0608 42.199C35.305 42.1975 35.5586 42.0237 35.6325 41.7749C35.6995 41.5499 35.5625 41.3264 35.3273 41.328L35.3263 41.327Z" fill="white"/>
<path d="M32.6932 17.815C32.8222 17.9304 32.7036 17.993 32.7036 18.1704C32.7036 18.3478 32.6962 18.3478 32.6962 18.5247C32.6962 18.7016 32.6982 18.7021 32.6982 18.879C32.6982 19.0559 32.6808 19.0564 32.6808 19.2333C32.6808 19.4102 32.7056 19.4107 32.7056 19.5876C32.7056 19.7645 32.7011 19.7645 32.7011 19.9419C32.7011 20.1194 32.7041 20.1194 32.7041 20.2968C32.7041 20.4742 32.6907 20.4742 32.6907 20.6516C32.6907 20.829 32.8187 20.8869 32.6972 21.0111C32.5756 21.1352 32.5185 21.0044 32.3443 21.0044C32.1701 21.0044 32.1701 21.0044 31.996 21.0044C31.8218 21.0044 31.8218 20.9976 31.6471 20.9976C31.4724 20.9976 31.4729 21.0173 31.2987 21.0173C31.1245 21.0173 31.1245 21.0018 30.9498 21.0018C30.7752 21.0018 30.7757 21.0069 30.601 21.0069C30.4263 21.0069 30.4268 21.0075 30.2521 21.0075C30.0774 21.0075 30.0779 21.0178 29.9032 21.0178C29.7286 21.0178 29.7291 21.009 29.5544 21.009C29.3797 21.009 29.3802 20.9997 29.2055 20.9997C29.0308 20.9997 29.0313 21.0085 28.8571 21.0085C28.683 21.0085 28.683 21.0028 28.5083 21.0028C28.3336 21.0028 28.3341 21.0132 28.1594 21.0132C27.9847 21.0132 27.9852 21.0152 27.8105 21.0152C27.6359 21.0152 27.6363 21.0126 27.4617 21.0126C27.287 21.0126 27.2875 21.0085 27.1133 21.0085C26.9391 21.0085 26.9386 21.0137 26.7644 21.0137C26.5902 21.0137 26.5897 21.0013 26.4151 21.0013C26.2404 21.0013 26.1977 21.1275 26.0726 21.0013C25.9476 20.875 26.0538 20.8311 26.0538 20.6542C26.0538 20.4773 26.0722 20.4768 26.0722 20.2999C26.0722 20.123 26.0627 20.1225 26.0627 19.9456C26.0627 19.7687 26.0736 19.7682 26.0736 19.5913C26.0736 19.4144 26.0726 19.4138 26.0726 19.2369C26.0726 19.06 26.0622 19.06 26.0622 18.8826C26.0622 18.7052 26.0548 18.7052 26.0548 18.5278C26.0548 18.3504 26.0766 18.3504 26.0766 18.173C26.0766 17.9956 25.9397 17.9371 26.0687 17.8213C26.2181 17.6868 26.2637 17.83 26.4612 17.83C26.6587 17.83 26.6587 17.8171 26.8562 17.8171C27.0537 17.8171 27.0537 17.8249 27.2513 17.8249C27.4488 17.8249 27.4557 17.8719 27.6458 17.8171C27.6865 17.6909 27.7326 17.5678 27.7966 17.455C27.8607 17.3423 27.946 17.2409 28.0314 17.1437C28.1167 17.0464 28.2061 16.9513 28.3093 16.8742C28.4125 16.7971 28.5202 16.7252 28.6368 16.6714C28.7534 16.6176 28.876 16.5845 29.0015 16.5571C29.1271 16.5297 29.2502 16.5318 29.3797 16.5318C29.5092 16.5318 29.6353 16.5354 29.7568 16.5618C29.8784 16.5882 29.9985 16.6409 30.1132 16.6937C30.2278 16.7464 30.3409 16.808 30.4432 16.8845C30.5454 16.9611 30.6521 17.0376 30.7374 17.1354C30.8228 17.2332 30.8948 17.3438 30.9593 17.4582C31.0238 17.5725 31.0724 17.6945 31.1131 17.8207C31.3032 17.8761 31.3106 17.8068 31.5081 17.8068C31.7056 17.8068 31.7056 17.8326 31.9032 17.8326C32.1007 17.8326 32.1026 17.8513 32.2962 17.8104C32.5016 17.7669 32.5443 17.6847 32.6937 17.8187L32.6932 17.815Z" fill="white"/>
<path d="M32.4747 18.1734L32.5159 18.22L32.3844 17.9919L32.4018 18.0353L32.366 17.7715C32.366 17.6883 32.3392 17.8817 32.3348 17.9081C32.3199 17.9955 32.3184 18.0798 32.3159 18.1683C32.3129 18.2867 32.31 18.4041 32.311 18.5226C32.3125 18.8112 32.2896 19.0957 32.3085 19.3838C32.3229 19.6067 32.3159 19.8343 32.3174 20.0598C32.3184 20.1881 32.3095 20.3143 32.3055 20.4426C32.3025 20.5331 32.3015 20.6272 32.3154 20.7167C32.3129 20.7022 32.3785 21.0586 32.367 20.9122L32.3839 20.6639C32.5705 20.6096 32.6102 20.5688 32.5025 20.5414C32.4514 20.5243 32.3993 20.5129 32.3457 20.5067C32.2797 20.4984 32.2147 20.4995 32.1487 20.4995C32.0172 20.4995 31.8862 20.4995 31.7547 20.4958C31.4877 20.4881 31.2242 20.5088 30.9572 20.4979C30.4098 20.4752 29.8614 20.5212 29.3136 20.4989C28.7657 20.4767 28.2174 20.5134 27.6705 20.5098C27.4045 20.5077 27.1385 20.5 26.873 20.5057C26.7484 20.5083 26.6254 20.5057 26.5013 20.5005C26.4274 20.4974 26.3559 20.4938 26.282 20.5026C26.2294 20.5083 26.1782 20.5191 26.1276 20.5352C26.0254 20.5641 26.0676 20.5833 26.2532 20.5931L26.3847 20.8212L26.3971 20.8714L26.3802 21.1196C26.4998 20.5424 26.4621 20.0846 26.4606 19.5229C26.4596 19.2627 26.4447 18.9389 26.4422 18.7212C26.4417 18.6612 26.4566 18.4869 26.4621 18.3803C26.4671 18.2898 26.4666 18.1957 26.4522 18.1062C26.4547 18.1227 26.3827 17.7596 26.3966 17.9127L26.3797 18.161L26.3946 18.1181L26.2825 18.3007C26.3648 18.205 26.1256 18.2345 26.3043 18.2934C26.3753 18.3167 26.4547 18.3276 26.5286 18.3317C26.6869 18.341 26.8487 18.3167 27.0075 18.3193C27.2591 18.3234 27.6869 18.4305 27.8997 18.2495C28.0347 18.1341 28.0605 17.8895 28.1588 17.7405C28.2571 17.5915 28.3742 17.4643 28.5027 17.3546C28.7945 17.1058 29.1235 17.0267 29.4947 17.0329C29.8436 17.0386 30.1666 17.1798 30.4361 17.4105C30.716 17.65 30.7264 18.1693 31.0793 18.3027C31.2336 18.3612 31.3467 18.326 31.5011 18.3105C31.6346 18.2971 31.7636 18.3239 31.8961 18.3312C32.0286 18.3384 32.1611 18.3431 32.2906 18.3245C32.3715 18.3126 32.4529 18.2976 32.5318 18.2758C32.5675 18.265 32.6028 18.2536 32.6385 18.2417C32.4981 18.1879 32.4727 18.191 32.5631 18.251C32.7497 18.3979 32.9923 18.2857 33.0593 18.0674C33.1372 17.8139 33.0201 17.5321 32.8246 17.3779C32.5283 17.1446 32.2861 17.3267 31.9666 17.3262C31.8331 17.3262 31.7035 17.3133 31.5715 17.3029C31.4395 17.2926 31.2376 17.351 31.1467 17.3298C31.2525 17.4488 31.3582 17.5677 31.4639 17.6862C31.1477 16.7531 30.3334 16.0398 29.3612 16.0233C28.3995 16.0072 27.597 16.616 27.2814 17.5605L27.4809 17.3262C27.3752 17.3526 27.2516 17.3189 27.1435 17.3169C26.9876 17.3138 26.8313 17.306 26.6755 17.3117C26.5549 17.3164 26.4422 17.3283 26.3246 17.3024C26.1554 17.2657 26.0254 17.23 25.8686 17.3443C25.7118 17.4586 25.6299 17.6365 25.6309 17.8383C25.6314 17.9283 25.6467 18.0157 25.676 18.101C25.7167 18.2195 25.7108 18.0741 25.686 18.1672C25.6041 18.4729 25.678 18.7362 25.686 19.0289C25.6924 19.2627 25.6845 19.4981 25.6785 19.7329C25.6706 20.0422 25.7013 20.2036 25.6706 20.5202C25.6537 20.6965 25.6056 20.8569 25.6666 21.0364C25.7356 21.2391 25.8909 21.4476 26.0899 21.5246C26.2353 21.5815 26.3311 21.5298 26.472 21.5055C26.5857 21.4858 26.7172 21.5148 26.8328 21.5158C27.8789 21.5221 28.9255 21.5221 29.9711 21.5205C30.2282 21.5205 30.4857 21.5127 30.7428 21.5091C30.9999 21.5055 31.2609 21.5314 31.5175 21.5127C31.774 21.4941 32.0271 21.5071 32.2827 21.5071C32.4122 21.5071 32.5224 21.5639 32.6494 21.5665C32.839 21.5696 32.9978 21.4352 33.0787 21.2639C33.1834 21.0426 33.0941 20.8667 33.0648 20.6474C33.0812 20.7705 33.0841 20.6319 33.0866 20.5838C33.0906 20.4979 33.0921 20.4121 33.0911 20.3257C33.0886 20.0127 33.0936 19.7024 33.0732 19.3905C33.0558 19.121 33.0787 18.8267 33.0851 18.5536C33.0881 18.4305 33.0911 18.3177 33.1179 18.1988C33.1804 17.9231 33.0941 17.6608 32.9134 17.4555C32.766 17.2879 32.5045 17.2491 32.374 17.4581C32.2435 17.6671 32.3174 17.9924 32.4752 18.1714L32.4747 18.1734Z" fill="white"/>
<path d="M26.4388 28.0321C26.3102 28.166 26.2541 28.029 26.0725 28.029C25.8909 28.029 25.8909 28.0326 25.7093 28.0326C25.5276 28.0326 25.5276 28.0362 25.346 28.0362C25.1644 28.0362 25.1644 28.0285 24.9827 28.0285C24.8011 28.0285 24.8011 28.0243 24.6195 28.0243C24.4378 28.0243 24.4379 28.0321 24.2557 28.0321C24.0736 28.0321 24.0741 28.0352 23.892 28.0352C23.7098 28.0352 23.7103 28.0362 23.5282 28.0362C23.3461 28.0362 23.3461 28.0228 23.1645 28.0228C22.9828 28.0228 22.9332 28.1598 22.8042 28.0259C22.6752 27.8919 22.7943 27.8402 22.7943 27.6509C22.7943 27.4616 22.7957 27.4616 22.7957 27.2723C22.7957 27.0829 22.8037 27.0829 22.8037 26.8936C22.8037 26.7043 22.7972 26.7043 22.7972 26.515C22.7972 26.3257 22.8042 26.3257 22.8042 26.1364C22.8042 25.9471 22.7987 25.9471 22.7987 25.7573C22.7987 25.5674 22.8027 25.5679 22.8027 25.3781C22.8027 25.1883 22.8027 25.1888 22.8027 24.999C22.8027 24.8092 22.7977 24.8092 22.7977 24.6198C22.7977 24.4305 22.6752 24.3783 22.8037 24.2438C22.9322 24.1093 22.9823 24.2423 23.164 24.2423C23.3456 24.2423 23.3456 24.2366 23.5272 24.2366C23.7088 24.2366 23.7089 24.2366 23.8905 24.2366C24.0721 24.2366 24.0721 24.2454 24.2537 24.2454C24.4354 24.2454 24.4354 24.2448 24.617 24.2448C24.7986 24.2448 24.7986 24.2428 24.9808 24.2428C25.1629 24.2428 25.1624 24.2417 25.3445 24.2417C25.5266 24.2417 25.5261 24.2335 25.7083 24.2335C25.8904 24.2335 25.8904 24.2371 26.072 24.2371C26.2536 24.2371 26.3028 24.1114 26.4313 24.2454C26.5598 24.3793 26.4343 24.43 26.4343 24.6193C26.4343 24.8086 26.4303 24.8086 26.4303 24.9979C26.4303 25.1873 26.4412 25.1873 26.4412 25.3766C26.4412 25.5659 26.4318 25.5659 26.4318 25.7552C26.4318 25.9445 26.4333 25.9445 26.4333 26.1338C26.4333 26.3231 26.4348 26.3231 26.4348 26.5129C26.4348 26.7028 26.4407 26.7023 26.4407 26.8921C26.4407 27.0819 26.4313 27.0814 26.4313 27.2712C26.4313 27.461 26.3936 27.4662 26.4328 27.6514C26.4745 27.8505 26.5678 27.8981 26.4392 28.0326L26.4388 28.0321Z" fill="#362566"/>
<path d="M26.2766 27.6419L26.2791 27.6373L26.4845 27.6031C26.4146 27.5985 26.355 27.5617 26.286 27.5493C26.1868 27.5317 26.0786 27.5431 25.9788 27.5442C25.8419 27.5457 25.7054 27.5478 25.5684 27.5483C25.2866 27.5504 25.0047 27.5359 24.7233 27.5369C24.4419 27.538 24.1432 27.5473 23.8529 27.5478C23.7154 27.5478 23.5795 27.5442 23.442 27.538C23.3412 27.5333 23.235 27.525 23.1348 27.5426C23.0807 27.5576 23.0266 27.5747 22.9735 27.5928C22.9209 27.6207 22.91 27.6217 22.9413 27.5969L23.1388 27.629C23.0867 27.6067 23.0797 27.6062 23.1169 27.6274L23.1482 27.8571C23.1477 27.9667 23.1904 27.6533 23.1904 27.6554C23.2008 27.5685 23.1968 27.48 23.1973 27.3926C23.1983 27.2499 23.2008 27.1076 23.2043 26.9649C23.2122 26.6292 23.2083 26.3638 23.2068 26.0266C23.2053 25.7266 23.2058 25.4421 23.2053 25.1193C23.2053 24.9523 23.2033 24.7862 23.1998 24.6192C23.1993 24.585 23.2028 24.434 23.1909 24.3559C23.1775 24.299 23.1626 24.2426 23.1472 24.1867C23.1219 24.1314 23.1214 24.12 23.1457 24.1536L23.1244 24.4019L23.1408 24.3549L23.0137 24.5959L22.9611 24.6362L22.7557 24.6704C22.8222 24.6735 22.8802 24.7086 22.9497 24.7211C23.0494 24.7386 23.1561 24.7273 23.2569 24.7252C23.3755 24.7231 23.4941 24.7221 23.6127 24.7221C23.9129 24.7221 24.2127 24.7309 24.5129 24.7299C24.8131 24.7288 25.1302 24.7324 25.4379 24.7236C25.557 24.7205 25.6751 24.72 25.7937 24.7216C25.9659 24.7236 26.1625 24.6714 26.294 24.6693L26.0965 24.6373C26.1491 24.6605 26.156 24.6616 26.1168 24.6409L26.0855 24.4112C26.09 24.2964 26.0374 24.6207 26.0384 24.6124C26.0285 24.6916 26.0314 24.7712 26.0305 24.8504C26.028 25.0252 26.0305 25.1995 26.0364 25.3749C26.0453 25.6495 26.0305 25.9262 26.031 26.2009C26.0319 26.5154 26.0444 26.8092 26.0359 27.0993C26.0319 27.2431 26.0235 27.3864 26.0151 27.5297C26.0091 27.6342 26.0141 27.7366 26.0329 27.839C26.0453 27.9067 26.0885 28.2052 26.0989 27.9999L26.1749 27.7454L26.1878 27.7309C26.0458 27.9083 25.9575 28.2254 26.1223 28.4188C26.287 28.6123 26.5565 28.4985 26.6905 28.3314C26.8245 28.1643 26.9153 27.9766 26.9044 27.7593C26.8984 27.6378 26.823 27.4733 26.8195 27.3936C26.8076 27.1107 26.8413 26.7833 26.8374 26.5185C26.8294 25.9862 26.8314 25.3997 26.8329 24.8478C26.8329 24.7495 26.8235 24.6393 26.8344 24.5431C26.8567 24.3445 26.9317 24.2007 26.8428 23.999C26.7684 23.8299 26.6036 23.7073 26.428 23.6969C26.3004 23.6897 26.1863 23.7471 26.0573 23.7471C25.5392 23.7466 25.0216 23.7554 24.5035 23.7564C24.2256 23.7569 23.9482 23.7471 23.6708 23.7481C23.5512 23.7481 23.4271 23.7621 23.3075 23.7538C23.1338 23.7419 23.0172 23.6566 22.8375 23.7305C22.644 23.8102 22.4971 23.9783 22.4108 24.1723C22.3244 24.3662 22.3542 24.5292 22.3904 24.7319C22.4341 24.974 22.4023 25.2212 22.4008 25.4845C22.3974 26.0535 22.4152 26.6012 22.3979 27.149C22.3939 27.2752 22.3939 27.4014 22.3929 27.5276C22.3919 27.6807 22.3562 27.7976 22.3443 27.9476C22.3284 28.1436 22.3889 28.3143 22.5269 28.4447C22.6847 28.5936 22.8341 28.5657 23.0271 28.5243C23.2738 28.4711 23.5705 28.5223 23.8261 28.5207C24.1189 28.5186 24.4117 28.5088 24.705 28.513C24.9982 28.5171 25.3049 28.5202 25.6052 28.5181C25.7342 28.5176 25.8865 28.4959 26.0146 28.5249C26.2478 28.5771 26.3997 28.5859 26.6007 28.4209C26.7853 28.2693 26.9108 27.9709 26.8101 27.7335C26.7093 27.4961 26.4498 27.4997 26.2781 27.6409L26.2766 27.6419Z" fill="white"/>
<path d="M26.4374 33.6023C26.3089 33.7363 26.2538 33.5997 26.0717 33.5997C25.8895 33.5997 25.89 33.607 25.7084 33.607C25.5268 33.607 25.5268 33.5982 25.3451 33.5982C25.1635 33.5982 25.1635 33.607 24.9819 33.607C24.8003 33.607 24.8003 33.594 24.6186 33.594C24.437 33.594 24.437 33.6023 24.2549 33.6023C24.0727 33.6023 24.0732 33.5935 23.8911 33.5935C23.709 33.5935 23.7095 33.5977 23.5274 33.5977C23.3452 33.5977 23.3452 33.6075 23.1636 33.6075C22.982 33.6075 22.9299 33.7332 22.8013 33.5992C22.6728 33.4652 22.8013 33.4114 22.8013 33.2216C22.8013 33.0318 22.8028 33.0323 22.8028 32.843C22.8028 32.6537 22.7979 32.6537 22.7979 32.4644C22.7979 32.2751 22.7979 32.2751 22.7979 32.0858C22.7979 31.8964 22.8023 31.8964 22.8023 31.7071C22.8023 31.5178 22.8038 31.5178 22.8038 31.328C22.8038 31.1382 22.7934 31.1387 22.7934 30.9489C22.7934 30.759 22.7984 30.7596 22.7984 30.5697C22.7984 30.3799 22.7919 30.3799 22.7919 30.1906C22.7919 30.0013 22.6708 29.9459 22.7994 29.812C22.9279 29.678 22.981 29.8047 23.1626 29.8047C23.3442 29.8047 23.3442 29.8078 23.5259 29.8078C23.7075 29.8078 23.7075 29.8083 23.8891 29.8083C24.0708 29.8083 24.0708 29.8125 24.2524 29.8125C24.434 29.8125 24.434 29.8166 24.6156 29.8166C24.7973 29.8166 24.7973 29.8192 24.9794 29.8192C25.1615 29.8192 25.161 29.8109 25.3432 29.8109C25.5253 29.8109 25.5248 29.8109 25.7069 29.8109C25.889 29.8109 25.889 29.8187 26.0707 29.8187C26.2523 29.8187 26.3094 29.6739 26.4384 29.8078C26.5674 29.9418 26.4354 30.0013 26.4354 30.1906C26.4354 30.3799 26.4394 30.3799 26.4394 30.5692C26.4394 30.7585 26.4314 30.7585 26.4314 30.9478C26.4314 31.1371 26.4419 31.1371 26.4419 31.3264C26.4419 31.5158 26.4359 31.5158 26.4359 31.7051C26.4359 31.8944 26.43 31.8944 26.43 32.0842C26.43 32.274 26.4409 32.2735 26.4409 32.4633C26.4409 32.6532 26.4359 32.6527 26.4359 32.8425C26.4359 33.0323 26.3967 33.0364 26.4349 33.2216C26.4766 33.4208 26.5654 33.4689 26.4369 33.6028L26.4374 33.6023Z" fill="#362566"/>
<path d="M26.2104 33.1754C26.3226 33.1547 26.3375 33.1355 26.2551 33.1174C26.2134 33.1019 26.1703 33.0936 26.1256 33.0936C26.0387 33.0828 25.9544 33.0854 25.8675 33.0874C25.7226 33.0911 25.5787 33.0895 25.4333 33.0854C25.147 33.0776 24.8582 33.0802 24.5718 33.0786C24.2855 33.0771 23.9967 33.075 23.7098 33.0786C23.5729 33.0807 23.4359 33.0812 23.2989 33.0869C23.2155 33.09 23.1292 33.0854 23.0463 33.0983C22.9942 33.1112 22.9426 33.1257 22.891 33.1412C22.9208 33.1567 22.9535 33.1614 22.9893 33.1552L23.1049 33.3735L23.089 33.3264L23.1133 33.6C23.1079 33.7081 23.1639 33.39 23.1629 33.3962C23.1714 33.3259 23.1739 33.2555 23.1709 33.1847C23.1709 33.0942 23.1709 33.0771 23.1709 33.1335C23.1714 32.9612 23.1739 32.789 23.1704 32.6167C23.1644 32.3142 23.1709 32.0121 23.1724 31.71C23.1734 31.5047 23.161 31.1509 23.1654 30.8602C23.1679 30.6874 23.1704 30.5152 23.1654 30.343C23.1634 30.2555 23.1664 30.1666 23.156 30.0797C23.157 30.0885 23.1098 29.7404 23.1118 29.8749L23.0845 30.1397C22.9044 30.2157 22.8692 30.2649 22.9788 30.2871C23.0205 30.3016 23.0637 30.3088 23.1079 30.3093C23.1942 30.3197 23.2796 30.3186 23.3659 30.3192C23.5108 30.3207 23.6552 30.3212 23.8001 30.3217C24.0875 30.3217 24.3743 30.328 24.6616 30.33C24.949 30.3316 25.2363 30.3243 25.5236 30.3243C25.6606 30.3243 25.7976 30.3243 25.9345 30.328C26.0184 30.3305 26.1043 30.3399 26.1871 30.3243C26.2392 30.3099 26.2913 30.2943 26.3429 30.2783C26.4397 30.2467 26.4085 30.2369 26.2487 30.2488L26.133 30.0305L26.1484 30.0786L26.1241 29.805C26.1306 29.7047 26.0715 30.0186 26.0725 30.013C26.0561 30.1288 26.0641 30.2483 26.0655 30.3652C26.067 30.4821 26.0655 30.5907 26.0636 30.704C26.0571 31.0361 26.071 31.3676 26.0655 31.6997C26.0606 31.9831 26.0725 32.2661 26.0685 32.5495C26.0665 32.6943 26.0556 32.8355 26.0482 32.9799C26.0363 33.2121 26.1122 33.4086 26.1578 33.63L26.1335 33.3564L26.136 33.3207L26.2526 33.1231L26.21 33.1759C26.0492 33.3761 26.0144 33.66 26.14 33.8933C26.2343 34.0686 26.5027 34.229 26.6635 34.0288C26.7916 33.8695 26.8774 33.705 26.8734 33.4919C26.8715 33.3973 26.8566 33.3057 26.8303 33.2147C26.8218 33.1852 26.8074 33.1562 26.8005 33.1262C26.7871 33.0662 26.7985 33.1842 26.794 33.1107C26.7752 32.8164 26.8169 32.5097 26.8055 32.2133C26.7836 31.6552 26.8104 31.0914 26.8104 30.5328C26.8104 30.4697 26.8094 30.4066 26.8084 30.3435C26.8079 30.3099 26.803 30.269 26.8069 30.2349C26.8055 30.2467 26.7921 30.3243 26.8114 30.2576C26.873 30.0461 26.8918 29.8381 26.8 29.6297C26.7275 29.4652 26.5936 29.3007 26.4189 29.2521C26.266 29.2097 26.134 29.294 25.9866 29.3028C25.4611 29.3333 24.9162 29.308 24.3892 29.2992C24.1217 29.2945 23.8542 29.293 23.5867 29.2924C23.4657 29.2924 23.3446 29.2945 23.2235 29.2899C23.0806 29.2847 22.9466 29.2154 22.8022 29.2505C22.6245 29.294 22.4776 29.4611 22.4161 29.6359C22.3372 29.8593 22.4052 30.0099 22.4265 30.2276C22.4498 30.463 22.4215 30.7397 22.4235 30.9849C22.427 31.5274 22.4181 32.0607 22.4295 32.6654C22.431 32.7367 22.432 32.8081 22.4325 32.8795C22.433 32.9876 22.4325 32.9049 22.4325 32.9799C22.4325 33.0352 22.4349 33.0926 22.4315 33.148C22.426 33.2245 22.4334 33.1371 22.4359 33.1278C22.4121 33.2183 22.3833 33.3026 22.3754 33.3973C22.3441 33.7733 22.6295 34.2424 23.0309 34.1623C23.3267 34.1033 23.6339 34.1085 23.9366 34.1095C24.2393 34.1105 24.5445 34.1007 24.8457 34.1167C25.147 34.1328 25.4264 34.1193 25.7157 34.123C25.8566 34.1245 26.01 34.0971 26.1469 34.1312C26.3598 34.184 26.4864 34.1762 26.664 34.0304C27.0318 33.7283 26.6635 32.805 26.2109 33.1769L26.2104 33.1754Z" fill="white"/>
<path d="M26.4306 38.8226C26.3021 38.9565 26.2539 38.8215 26.0723 38.8215C25.8907 38.8215 25.8907 38.8205 25.709 38.8205C25.5274 38.8205 25.5274 38.8324 25.3458 38.8324C25.1642 38.8324 25.1642 38.8345 24.9825 38.8345C24.8009 38.8345 24.8009 38.8215 24.6193 38.8215C24.4376 38.8215 24.4376 38.8303 24.2555 38.8303C24.0734 38.8303 24.0739 38.8329 23.8918 38.8329C23.7096 38.8329 23.7101 38.8226 23.528 38.8226C23.3459 38.8226 23.3459 38.8319 23.1642 38.8319C22.9826 38.8319 22.9335 38.9565 22.805 38.8226C22.6764 38.6886 22.805 38.6379 22.805 38.4481C22.805 38.2583 22.799 38.2588 22.799 38.0695C22.799 37.8802 22.8025 37.8802 22.8025 37.6909C22.8025 37.5015 22.8025 37.5015 22.8025 37.3122C22.8025 37.1229 22.794 37.1229 22.794 36.9336C22.794 36.7443 22.801 36.7443 22.801 36.5545C22.801 36.3646 22.8045 36.3652 22.8045 36.1753C22.8045 35.9855 22.8005 35.986 22.8005 35.7962C22.8005 35.6064 22.8015 35.6064 22.8015 35.4171C22.8015 35.2278 22.6725 35.1729 22.8015 35.039C22.9305 34.905 22.9826 35.0353 23.1642 35.0353C23.3459 35.0353 23.3459 35.0369 23.5275 35.0369C23.7091 35.0369 23.7091 35.041 23.8908 35.041C24.0724 35.041 24.0724 35.0436 24.254 35.0436C24.4357 35.0436 24.4357 35.0415 24.6173 35.0415C24.7989 35.0415 24.7989 35.0369 24.981 35.0369C25.1632 35.0369 25.1627 35.0317 25.3448 35.0317C25.5269 35.0317 25.5264 35.0379 25.7085 35.0379C25.8907 35.0379 25.8907 35.0353 26.0723 35.0353C26.2539 35.0353 26.309 34.9024 26.4375 35.0364C26.5661 35.1703 26.4405 35.2278 26.4405 35.4171C26.4405 35.6064 26.4385 35.6064 26.4385 35.7957C26.4385 35.985 26.4366 35.985 26.4366 36.1743C26.4366 36.3636 26.4321 36.3636 26.4321 36.5529C26.4321 36.7422 26.4291 36.7422 26.4291 36.9315C26.4291 37.1209 26.4361 37.1209 26.4361 37.3107C26.4361 37.5005 26.4351 37.5 26.4351 37.6898C26.4351 37.8796 26.4331 37.8791 26.4331 38.069C26.4331 38.2588 26.3998 38.2624 26.4366 38.4476C26.4758 38.6431 26.5586 38.6876 26.4301 38.8221L26.4306 38.8226Z" fill="#362566"/>
<path d="M26.2193 38.4903L26.1687 38.5322L26.3751 38.407C26.4679 38.4101 26.4774 38.4018 26.4034 38.3811C26.3518 38.363 26.2987 38.3532 26.2446 38.3522C26.1682 38.3449 26.0928 38.3449 26.0164 38.3449C25.8714 38.3444 25.727 38.3475 25.5821 38.3532C25.2943 38.3641 25.008 38.3465 24.7206 38.3455C24.4333 38.3444 24.146 38.3636 23.8586 38.3542C23.7212 38.3501 23.5852 38.346 23.4477 38.3517C23.3639 38.3548 23.279 38.3527 23.1956 38.363C23.1401 38.3698 23.085 38.3811 23.0314 38.3972C22.9396 38.4106 22.9515 38.4629 23.0666 38.5534C23.1281 38.7349 23.1693 38.7401 23.1907 38.5699C23.209 38.5115 23.2185 38.4515 23.219 38.3894C23.2259 38.3015 23.2249 38.2151 23.2229 38.1267C23.2195 37.9839 23.2209 37.8417 23.2229 37.6989C23.2264 37.3994 23.216 37.1005 23.2155 36.801C23.215 36.5015 23.2284 36.202 23.2249 35.9025C23.2234 35.7598 23.2219 35.617 23.2224 35.4742C23.2224 35.3863 23.2249 35.2989 23.216 35.211C23.215 35.1986 23.1639 34.9622 23.1664 35.0067L23.1143 35.2498L23.0656 35.3289L22.8592 35.4541C22.7684 35.4494 22.7599 35.4567 22.8339 35.4763C22.8855 35.4934 22.9391 35.5027 22.9937 35.5048C23.0701 35.512 23.1455 35.512 23.2224 35.512C23.3673 35.513 23.5118 35.5141 23.6567 35.5161C23.944 35.5198 24.2308 35.5198 24.5182 35.5177C24.8055 35.5156 25.0928 35.5037 25.3802 35.5094C25.5171 35.512 25.6541 35.5141 25.7911 35.5125C25.8754 35.5115 25.9598 35.5146 26.0436 35.5042C26.0997 35.4975 26.1548 35.4861 26.2089 35.4691C26.3007 35.4546 26.2903 35.4018 26.1781 35.3113C26.1191 35.1303 26.0789 35.1246 26.0575 35.2948C26.0397 35.3537 26.0303 35.4142 26.0298 35.4763C26.0228 35.5642 26.0228 35.6511 26.0223 35.7396C26.0213 35.8824 26.0208 36.0246 26.0198 36.1674C26.0183 36.4668 26.0109 36.7658 26.0124 37.0653C26.0139 37.3648 26.0198 37.6642 26.0178 37.9637C26.0169 38.1075 26.0089 38.2503 26.0044 38.393C25.9985 38.5818 26.0655 38.7448 26.0972 38.9248L26.0948 38.693L26.133 38.5932C25.9965 38.7613 25.9499 39.0944 26.1404 39.2398C26.3493 39.3991 26.5985 39.2175 26.7339 39.0515C26.862 38.8942 26.9339 38.6982 26.9146 38.4913C26.9027 38.3651 26.8436 38.2544 26.8441 38.1272C26.8451 37.8484 26.858 37.568 26.8585 37.2887C26.86 36.7198 26.8585 36.1513 26.861 35.5824C26.861 35.5296 26.862 35.4773 26.8625 35.4246C26.8625 35.3801 26.8744 35.2192 26.8501 35.3403C26.8913 35.1313 26.9647 34.9498 26.8431 34.7486C26.6317 34.3984 26.3275 34.5572 26.0178 34.5608C25.5002 34.5665 24.9822 34.5644 24.4641 34.568C24.1862 34.5701 23.9088 34.5629 23.6314 34.5613C23.5162 34.5608 23.3812 34.5789 23.2681 34.5598C23.1133 34.5334 23.011 34.4827 22.8497 34.5396C22.6468 34.6115 22.4726 34.8039 22.3882 35.0061C22.3039 35.2084 22.346 35.3408 22.3813 35.5394C22.4255 35.7908 22.3892 36.0923 22.3877 36.3494C22.3853 36.9044 22.3922 37.4594 22.3843 38.0139C22.3823 38.1401 22.3823 38.2663 22.3853 38.3925C22.3862 38.4256 22.3872 38.617 22.3942 38.5529C22.4051 38.451 22.3599 38.6486 22.3599 38.6465C22.3465 38.7013 22.3351 38.7551 22.3341 38.8125C22.3302 38.9899 22.4021 39.1544 22.5401 39.262C22.7019 39.3882 22.8359 39.3473 23.0195 39.3199C23.2989 39.278 23.5882 39.3106 23.8705 39.3091C24.1529 39.3075 24.4561 39.2946 24.7494 39.307C25.0427 39.3194 25.3494 39.2972 25.6496 39.2967C25.7896 39.2967 25.9161 39.2977 26.0501 39.3277C26.2928 39.382 26.4536 39.3142 26.6461 39.1544C26.8188 39.0111 26.93 38.6858 26.797 38.481C26.6526 38.2586 26.3846 38.3563 26.2228 38.4908L26.2193 38.4903Z" fill="white"/>
<path d="M28.1811 28.0292C29.1775 28.0333 30.178 28.0462 31.1735 28.025C32.169 28.0038 33.164 28.0555 34.159 28.0431C34.4383 28.0395 34.7163 28.0483 34.9956 28.0478C35.0661 28.0478 35.1371 28.0493 35.2075 28.0462C35.278 28.0431 35.4611 28.0188 35.4616 28.0188C35.4165 28.0219 35.6418 28.0224 35.5718 28.0173C35.672 28.025 35.7698 28.0421 35.8705 28.0452C36.0919 28.0514 36.3822 27.904 36.4169 27.6531C36.4517 27.4023 36.1941 27.2631 35.9862 27.2574C35.9073 27.2554 35.7748 27.229 35.6363 27.2295C35.541 27.2295 35.4467 27.2455 35.352 27.2548C35.2974 27.26 35.351 27.2585 35.3609 27.2579C35.3113 27.2611 35.2616 27.26 35.212 27.26C34.9698 27.2616 34.7272 27.2429 34.4855 27.2492C33.9873 27.2621 33.4905 27.2326 32.9923 27.2331C31.9968 27.2331 31.0018 27.2445 30.0073 27.2404C29.4371 27.2378 28.8674 27.244 28.2977 27.2419C28.0759 27.2409 27.7865 27.3795 27.7513 27.634C27.7161 27.8885 27.9736 28.0292 28.1821 28.0297L28.1811 28.0292Z" fill="white"/>
<path d="M28.1704 34.1216C30.1604 34.0792 32.1573 34.1107 34.1483 34.1236C34.7195 34.1273 35.2897 34.1128 35.8599 34.1081C36.107 34.1061 36.2643 33.8961 36.2975 33.6504C36.3229 33.4647 36.2459 33.0819 35.9983 33.084C35.4976 33.0881 34.9984 33.1011 34.4971 33.1C33.9959 33.099 33.4997 33.1042 33.0039 33.0954C32.0099 33.0773 31.0119 33.1197 30.0189 33.098C29.4492 33.0855 28.879 33.0855 28.3093 33.098C28.0622 33.1031 27.9049 33.308 27.8716 33.5557C27.8468 33.7388 27.9232 34.1273 28.1709 34.1221L28.1704 34.1216Z" fill="white"/>
<path d="M28.1161 39.3109C28.3727 39.3089 28.6332 39.3192 28.8893 39.3063C29.1315 39.2939 29.3741 39.314 29.6153 39.2995C30.1329 39.268 30.6545 39.3358 31.1706 39.2892C31.3616 39.2716 31.6142 39.3089 31.8301 39.3011C32.0807 39.2918 32.3333 39.3027 32.5844 39.3006C33.0876 39.2964 33.5908 39.2959 34.094 39.3052C34.6647 39.3156 35.2349 39.2918 35.8056 39.2851C36.0532 39.282 36.2736 39.0632 36.3351 38.8206C36.3892 38.6075 36.2959 38.3406 36.0497 38.3432C35.5505 38.3489 35.0478 38.3866 34.5486 38.3711C34.0513 38.3556 33.5531 38.3478 33.0553 38.3566C32.5636 38.3654 32.0693 38.3727 31.5795 38.3447C31.4678 38.3385 31.3155 38.3639 31.2301 38.3706C31.0877 38.3814 30.9482 38.3509 30.8063 38.3499C30.5622 38.3478 30.3135 38.3364 30.0704 38.3427C29.5012 38.3566 28.9315 38.3654 28.3608 38.3695C28.1131 38.3711 27.8923 38.5925 27.8313 38.834C27.7772 39.0482 27.8705 39.313 28.1166 39.3114L28.1161 39.3109Z" fill="white"/>
<path d="M23.1484 26.5998C23.3027 26.8238 23.463 27.0441 23.6158 27.2691C23.7781 27.5076 23.854 27.8045 24.1205 27.9452C24.3121 28.0465 24.5796 28.075 24.7801 27.9845C24.9106 27.9255 24.9537 27.8236 25.0431 27.7207C25.2143 27.5236 25.4708 27.3726 25.6659 27.1993C26.4351 26.5165 27.2489 25.8809 28.0419 25.2276C28.4915 24.8578 27.6807 24.3136 27.3124 24.6167C26.7745 25.0595 26.2321 25.4965 25.7051 25.9522C25.446 26.1762 25.1731 26.3805 24.9155 26.6065C24.782 26.724 24.6461 26.8388 24.5086 26.951C24.4441 27.0038 24.3756 27.0534 24.3141 27.1093C24.2649 27.1538 24.2133 27.2034 24.1761 27.2588C24.1235 27.3369 24.1056 27.3084 24.1965 27.2779L24.4327 27.2412L24.4386 27.2448L24.6674 27.3638C24.7195 27.4512 24.7354 27.4678 24.715 27.4134C24.7071 27.385 24.6967 27.3576 24.6843 27.3307C24.6481 27.2521 24.595 27.1786 24.5478 27.1072C24.4873 27.0152 24.4277 26.9226 24.3632 26.8336C24.2257 26.6448 24.0962 26.4534 23.9637 26.261C23.6833 25.854 22.7881 26.0759 23.1489 26.5998H23.1484Z" fill="white"/>
</g>
<defs>
<filter id="filter0_i_18107_23957" x="6" y="5" width="48" height="49" filterUnits="userSpaceOnUse" color-interpolation-filters="sRGB">
<feFlood flood-opacity="0" result="BackgroundImageFix"/>
<feBlend mode="normal" in="SourceGraphic" in2="BackgroundImageFix" result="shape"/>
<feColorMatrix in="SourceAlpha" type="matrix" values="0 0 0 0 0 0 0 0 0 0 0 0 0 0 0 0 0 0 127 0" result="hardAlpha"/>
<feOffset dy="1.5"/>
<feGaussianBlur stdDeviation="0.5"/>
<feComposite in2="hardAlpha" operator="arithmetic" k2="-1" k3="1"/>
<feColorMatrix type="matrix" values="0 0 0 0 0.469786 0 0 0 0 0.351917 0 0 0 0 0.686667 0 0 0 0.33 0"/>
<feBlend mode="normal" in2="shape" result="effect1_innerShadow_18107_23957"/>
</filter>
<filter id="filter1_f_18107_23957" x="0" y="0" width="59" height="59" filterUnits="userSpaceOnUse" color-interpolation-filters="sRGB">
<feFlood flood-opacity="0" result="BackgroundImageFix"/>
<feBlend mode="normal" in="SourceGraphic" in2="BackgroundImageFix" result="shape"/>
<feGaussianBlur stdDeviation="8" result="effect1_foregroundBlur_18107_23957"/>
</filter>
<linearGradient id="paint0_linear_18107_23957" x1="14" y1="9.5" x2="44.07" y2="53.967" gradientUnits="userSpaceOnUse">
<stop stop-color="#29204A"/>
<stop offset="1" stop-color="#251F40"/>
</linearGradient>
<clipPath id="clip0_18107_23957">
<rect width="19.2547" height="27" fill="white" transform="translate(20.1523 16)"/>
</clipPath>
</defs>
</svg>
