<svg width="54" height="54" viewBox="0 0 54 54" fill="none" xmlns="http://www.w3.org/2000/svg">
<g filter="url(#filter0_i_18107_23962)">
<rect x="3" y="3" width="48" height="48" rx="16" fill="url(#paint0_linear_18107_23962)"/>
</g>
<g filter="url(#filter1_f_18107_23962)">
<circle cx="27" cy="27" r="11" fill="#FFBF2B" fill-opacity="0.35"/>
</g>
<mask id="path-3-inside-1_18107_23962" fill="white">
<path d="M15.4549 27.3929C15.3799 27.4398 15.3092 27.4905 15.2374 27.5412C15.419 27.6399 15.6 27.7386 15.7816 27.8373C15.6182 27.4868 15.5165 27.116 15.3151 26.782C15.3012 26.7591 15.1951 26.6001 15.2358 26.6876C15.1951 26.6001 15.1871 26.4902 15.155 26.3979C15.0928 26.2192 15.0275 26.0415 14.9257 25.881C14.8572 25.7732 14.8245 25.7006 14.8181 25.5753C14.8127 25.475 14.8138 25.3747 14.8058 25.2744C14.8058 25.2722 14.8058 25.1517 14.7993 25.2157C14.7934 25.269 14.8245 25.1335 14.8293 25.1207C14.9423 24.8107 15.1833 24.6155 15.4383 24.4266C15.5422 24.3498 15.6654 24.3066 15.7832 24.2527C15.9251 24.1876 16.0553 24.1007 16.201 24.0446C16.4746 23.9395 16.736 23.8755 16.9942 23.7315C17.119 23.6621 17.2588 23.6312 17.3862 23.5682C17.5271 23.4989 17.6326 23.397 17.7799 23.3356C18.0439 23.2262 18.2951 23.0694 18.5688 22.9851C18.7059 22.943 18.8484 22.9334 18.9785 22.8624C19.1172 22.7866 19.1869 22.6949 19.3384 22.649C19.6319 22.5588 19.8735 22.3737 20.1547 22.2649C20.2988 22.2094 20.4471 22.1912 20.5832 22.1096C20.7031 22.0376 20.792 21.9971 20.9265 21.9613C21.0871 21.9186 21.1878 21.837 21.3228 21.7506C21.4669 21.6583 21.6468 21.6471 21.7941 21.5585C21.9221 21.4817 21.965 21.4433 22.108 21.4187C22.2719 21.3905 22.4084 21.3222 22.5547 21.2464C22.8117 21.113 23.0785 20.9706 23.35 20.8682C23.4737 20.8218 23.5975 20.7748 23.7217 20.7295C23.7978 20.7017 23.8733 20.6788 23.944 20.6377C24.02 20.5939 24.0832 20.4888 24.1545 20.4536C24.2016 20.4307 24.2584 20.4494 24.3119 20.4419C24.3966 20.4302 24.4887 20.3982 24.5647 20.3587C24.6959 20.2899 24.8127 20.1986 24.9461 20.1293C25.1025 20.0482 25.2524 20.0322 25.4142 19.966C25.5759 19.8999 25.6948 19.7932 25.8496 19.7243C25.983 19.6651 26.1126 19.6182 26.2497 19.5712C26.4141 19.5147 26.5523 19.4064 26.7157 19.3509C26.879 19.2954 27.0284 19.249 27.1816 19.1679C27.3262 19.0916 27.4558 18.9812 27.5972 18.9107C27.7477 18.8361 27.9191 18.7939 28.0744 18.7267C28.2003 18.6728 28.3401 18.58 28.4429 18.5608L28.1387 18.4482C28.3829 18.652 28.7257 18.9193 29.0535 18.9545C29.4557 18.9977 29.8494 18.9508 30.2045 18.7603C30.5328 18.5842 30.7904 18.4071 30.9409 18.0481C31.0829 17.7093 31.2232 17.4212 31.2141 17.043L30.9918 17.4527C31.6629 17.1011 32.3388 16.7906 33.049 16.5255C33.2108 16.4652 33.3372 16.3489 33.4925 16.2865C33.5894 16.2475 33.7051 16.2528 33.8058 16.2128C33.8931 16.1782 33.9783 16.0837 34.0639 16.0613C34.1057 16.0506 34.2037 16.0837 34.2487 16.0864C34.351 16.0928 34.4201 16.0682 34.5181 16.0634C34.6649 16.0565 34.8073 16.1429 34.937 16.2219C35.081 16.3094 35.2112 16.4038 35.3488 16.4999C35.396 16.5329 35.4158 16.5724 35.3885 16.5207C35.4233 16.5857 35.4393 16.6839 35.4709 16.7538C35.5995 17.0355 35.7339 17.2926 35.8084 17.5044C35.8534 17.6319 35.8994 17.7648 35.9535 17.8891C36.0076 18.0134 36.0649 18.1052 36.1517 18.2001C36.2384 18.2951 36.1742 18.1932 36.2063 18.2887C36.2561 18.437 36.3161 18.5746 36.39 18.7134C36.4195 18.7688 36.4484 18.8259 36.4789 18.8814C36.4966 18.9209 36.5191 18.9572 36.5459 18.9913C36.5941 19.0601 36.5914 19.0399 36.5373 18.93L36.7526 18.3778C36.4505 18.5458 36.2331 18.7123 36.0499 19.0132C35.9621 19.1578 35.9208 19.3135 35.8662 19.4715C35.8201 19.6043 35.7532 19.7281 35.7291 19.8684C35.6857 20.1197 35.7318 20.4323 35.9798 20.5694C36.1945 20.6878 36.4543 20.5353 36.495 20.2995C36.5261 20.1197 36.608 19.9073 36.6846 19.7425C36.7783 19.5419 36.9326 19.4667 37.1163 19.3648C37.3 19.2629 37.3616 19.0089 37.3316 18.8126C37.2796 18.4717 37.0359 18.2183 36.9304 17.8955C36.8613 17.6832 36.736 17.5685 36.6225 17.3945C36.6766 17.4772 36.601 17.2793 36.5946 17.2622C36.5951 17.2644 36.5003 17.0376 36.5384 17.1449C36.4152 16.7965 36.2347 16.4764 36.1126 16.128C35.9674 15.7145 35.6252 15.5171 35.268 15.2952C35.0955 15.188 34.9011 15.0802 34.7045 15.0237C34.508 14.9671 34.3328 15.0311 34.1454 15.0205C34.0099 15.013 33.9022 14.9959 33.7726 15.0482C33.6949 15.0797 33.6376 15.1341 33.5642 15.1704C33.365 15.2685 33.1588 15.2851 32.9612 15.4115C32.7785 15.5289 32.56 15.5844 32.364 15.6783C32.1787 15.7668 31.9843 15.8223 31.7925 15.8965C31.3849 16.0533 31.0132 16.2667 30.6276 16.4684C30.4894 16.5409 30.4016 16.7266 30.4053 16.8781C30.4064 16.9229 30.4144 16.9859 30.4085 17.0323C30.4048 17.0611 30.3759 17.1305 30.3978 17.0798C30.3545 17.1801 30.295 17.2644 30.2586 17.3716C30.1884 17.5781 30.1097 17.6399 29.9174 17.7354C29.7 17.8437 29.5784 17.8966 29.3304 17.8976C29.2238 17.8982 29.1071 17.919 29.0053 17.8848C28.9201 17.856 28.835 17.7824 28.7573 17.736C28.5501 17.6127 28.4231 17.4618 28.1628 17.538C27.9973 17.5866 27.8458 17.6853 27.6872 17.7536C27.5399 17.8171 27.3766 17.8565 27.2336 17.9275C27.0718 18.0075 26.9342 18.1249 26.773 18.2103C26.6118 18.2956 26.4414 18.3207 26.2797 18.3981C26.1179 18.4754 25.9862 18.5442 25.8223 18.6002C25.6584 18.6563 25.4597 18.7326 25.3065 18.8259C25.1533 18.9193 25.0596 18.9577 24.8877 19.01C24.7158 19.0623 24.5294 19.1551 24.3778 19.249C24.32 19.2847 24.2744 19.345 24.2112 19.3712C24.1223 19.408 24.0174 19.392 23.9199 19.4213C23.7292 19.4784 23.6382 19.6379 23.4652 19.7078C23.3066 19.7718 23.1427 19.823 22.9837 19.8844C22.657 20.0098 22.3576 20.2413 22.0271 20.3485C21.8536 20.4051 21.6865 20.3933 21.521 20.5075C21.3742 20.6083 21.2355 20.642 21.0716 20.7119C20.9179 20.7775 20.8151 20.8831 20.6544 20.9306C20.4525 20.9903 20.3068 21.1066 20.1172 21.1797C19.964 21.2389 19.8087 21.2651 19.6619 21.3478C19.5152 21.4305 19.3486 21.5281 19.1837 21.5911C18.9946 21.6631 18.8393 21.7004 18.6738 21.8263C18.5404 21.9282 18.3653 21.9384 18.2035 22.0019C17.895 22.1224 17.5608 22.2553 17.2721 22.4169C17.119 22.5028 17.006 22.5919 16.8383 22.6559C16.6707 22.72 16.5352 22.8379 16.3713 22.8864C16.0199 22.991 15.7125 23.1361 15.3799 23.286C14.9734 23.4695 14.5862 23.7443 14.3569 24.13C14.223 24.3551 14.0902 24.5451 14.034 24.8075C13.982 25.0487 14.004 25.285 14.0083 25.5283C14.0131 25.8084 14.0784 26.1024 14.2134 26.3499C14.3044 26.5174 14.3923 26.6641 14.4501 26.8471C14.5342 27.1123 14.6595 27.3134 14.78 27.5593C14.8872 27.7775 14.9525 28.0118 15.0564 28.2342C15.1394 28.4113 15.3687 28.6936 15.6006 28.5303C15.6729 28.4796 15.7436 28.429 15.818 28.382C16.2508 28.1105 15.9326 27.0957 15.4544 27.3956L15.4549 27.3929Z"/>
</mask>
<path d="M15.4549 27.3929C15.3799 27.4398 15.3092 27.4905 15.2374 27.5412C15.419 27.6399 15.6 27.7386 15.7816 27.8373C15.6182 27.4868 15.5165 27.116 15.3151 26.782C15.3012 26.7591 15.1951 26.6001 15.2358 26.6876C15.1951 26.6001 15.1871 26.4902 15.155 26.3979C15.0928 26.2192 15.0275 26.0415 14.9257 25.881C14.8572 25.7732 14.8245 25.7006 14.8181 25.5753C14.8127 25.475 14.8138 25.3747 14.8058 25.2744C14.8058 25.2722 14.8058 25.1517 14.7993 25.2157C14.7934 25.269 14.8245 25.1335 14.8293 25.1207C14.9423 24.8107 15.1833 24.6155 15.4383 24.4266C15.5422 24.3498 15.6654 24.3066 15.7832 24.2527C15.9251 24.1876 16.0553 24.1007 16.201 24.0446C16.4746 23.9395 16.736 23.8755 16.9942 23.7315C17.119 23.6621 17.2588 23.6312 17.3862 23.5682C17.5271 23.4989 17.6326 23.397 17.7799 23.3356C18.0439 23.2262 18.2951 23.0694 18.5688 22.9851C18.7059 22.943 18.8484 22.9334 18.9785 22.8624C19.1172 22.7866 19.1869 22.6949 19.3384 22.649C19.6319 22.5588 19.8735 22.3737 20.1547 22.2649C20.2988 22.2094 20.4471 22.1912 20.5832 22.1096C20.7031 22.0376 20.792 21.9971 20.9265 21.9613C21.0871 21.9186 21.1878 21.837 21.3228 21.7506C21.4669 21.6583 21.6468 21.6471 21.7941 21.5585C21.9221 21.4817 21.965 21.4433 22.108 21.4187C22.2719 21.3905 22.4084 21.3222 22.5547 21.2464C22.8117 21.113 23.0785 20.9706 23.35 20.8682C23.4737 20.8218 23.5975 20.7748 23.7217 20.7295C23.7978 20.7017 23.8733 20.6788 23.944 20.6377C24.02 20.5939 24.0832 20.4888 24.1545 20.4536C24.2016 20.4307 24.2584 20.4494 24.3119 20.4419C24.3966 20.4302 24.4887 20.3982 24.5647 20.3587C24.6959 20.2899 24.8127 20.1986 24.9461 20.1293C25.1025 20.0482 25.2524 20.0322 25.4142 19.966C25.5759 19.8999 25.6948 19.7932 25.8496 19.7243C25.983 19.6651 26.1126 19.6182 26.2497 19.5712C26.4141 19.5147 26.5523 19.4064 26.7157 19.3509C26.879 19.2954 27.0284 19.249 27.1816 19.1679C27.3262 19.0916 27.4558 18.9812 27.5972 18.9107C27.7477 18.8361 27.9191 18.7939 28.0744 18.7267C28.2003 18.6728 28.3401 18.58 28.4429 18.5608L28.1387 18.4482C28.3829 18.652 28.7257 18.9193 29.0535 18.9545C29.4557 18.9977 29.8494 18.9508 30.2045 18.7603C30.5328 18.5842 30.7904 18.4071 30.9409 18.0481C31.0829 17.7093 31.2232 17.4212 31.2141 17.043L30.9918 17.4527C31.6629 17.1011 32.3388 16.7906 33.049 16.5255C33.2108 16.4652 33.3372 16.3489 33.4925 16.2865C33.5894 16.2475 33.7051 16.2528 33.8058 16.2128C33.8931 16.1782 33.9783 16.0837 34.0639 16.0613C34.1057 16.0506 34.2037 16.0837 34.2487 16.0864C34.351 16.0928 34.4201 16.0682 34.5181 16.0634C34.6649 16.0565 34.8073 16.1429 34.937 16.2219C35.081 16.3094 35.2112 16.4038 35.3488 16.4999C35.396 16.5329 35.4158 16.5724 35.3885 16.5207C35.4233 16.5857 35.4393 16.6839 35.4709 16.7538C35.5995 17.0355 35.7339 17.2926 35.8084 17.5044C35.8534 17.6319 35.8994 17.7648 35.9535 17.8891C36.0076 18.0134 36.0649 18.1052 36.1517 18.2001C36.2384 18.2951 36.1742 18.1932 36.2063 18.2887C36.2561 18.437 36.3161 18.5746 36.39 18.7134C36.4195 18.7688 36.4484 18.8259 36.4789 18.8814C36.4966 18.9209 36.5191 18.9572 36.5459 18.9913C36.5941 19.0601 36.5914 19.0399 36.5373 18.93L36.7526 18.3778C36.4505 18.5458 36.2331 18.7123 36.0499 19.0132C35.9621 19.1578 35.9208 19.3135 35.8662 19.4715C35.8201 19.6043 35.7532 19.7281 35.7291 19.8684C35.6857 20.1197 35.7318 20.4323 35.9798 20.5694C36.1945 20.6878 36.4543 20.5353 36.495 20.2995C36.5261 20.1197 36.608 19.9073 36.6846 19.7425C36.7783 19.5419 36.9326 19.4667 37.1163 19.3648C37.3 19.2629 37.3616 19.0089 37.3316 18.8126C37.2796 18.4717 37.0359 18.2183 36.9304 17.8955C36.8613 17.6832 36.736 17.5685 36.6225 17.3945C36.6766 17.4772 36.601 17.2793 36.5946 17.2622C36.5951 17.2644 36.5003 17.0376 36.5384 17.1449C36.4152 16.7965 36.2347 16.4764 36.1126 16.128C35.9674 15.7145 35.6252 15.5171 35.268 15.2952C35.0955 15.188 34.9011 15.0802 34.7045 15.0237C34.508 14.9671 34.3328 15.0311 34.1454 15.0205C34.0099 15.013 33.9022 14.9959 33.7726 15.0482C33.6949 15.0797 33.6376 15.1341 33.5642 15.1704C33.365 15.2685 33.1588 15.2851 32.9612 15.4115C32.7785 15.5289 32.56 15.5844 32.364 15.6783C32.1787 15.7668 31.9843 15.8223 31.7925 15.8965C31.3849 16.0533 31.0132 16.2667 30.6276 16.4684C30.4894 16.5409 30.4016 16.7266 30.4053 16.8781C30.4064 16.9229 30.4144 16.9859 30.4085 17.0323C30.4048 17.0611 30.3759 17.1305 30.3978 17.0798C30.3545 17.1801 30.295 17.2644 30.2586 17.3716C30.1884 17.5781 30.1097 17.6399 29.9174 17.7354C29.7 17.8437 29.5784 17.8966 29.3304 17.8976C29.2238 17.8982 29.1071 17.919 29.0053 17.8848C28.9201 17.856 28.835 17.7824 28.7573 17.736C28.5501 17.6127 28.4231 17.4618 28.1628 17.538C27.9973 17.5866 27.8458 17.6853 27.6872 17.7536C27.5399 17.8171 27.3766 17.8565 27.2336 17.9275C27.0718 18.0075 26.9342 18.1249 26.773 18.2103C26.6118 18.2956 26.4414 18.3207 26.2797 18.3981C26.1179 18.4754 25.9862 18.5442 25.8223 18.6002C25.6584 18.6563 25.4597 18.7326 25.3065 18.8259C25.1533 18.9193 25.0596 18.9577 24.8877 19.01C24.7158 19.0623 24.5294 19.1551 24.3778 19.249C24.32 19.2847 24.2744 19.345 24.2112 19.3712C24.1223 19.408 24.0174 19.392 23.9199 19.4213C23.7292 19.4784 23.6382 19.6379 23.4652 19.7078C23.3066 19.7718 23.1427 19.823 22.9837 19.8844C22.657 20.0098 22.3576 20.2413 22.0271 20.3485C21.8536 20.4051 21.6865 20.3933 21.521 20.5075C21.3742 20.6083 21.2355 20.642 21.0716 20.7119C20.9179 20.7775 20.8151 20.8831 20.6544 20.9306C20.4525 20.9903 20.3068 21.1066 20.1172 21.1797C19.964 21.2389 19.8087 21.2651 19.6619 21.3478C19.5152 21.4305 19.3486 21.5281 19.1837 21.5911C18.9946 21.6631 18.8393 21.7004 18.6738 21.8263C18.5404 21.9282 18.3653 21.9384 18.2035 22.0019C17.895 22.1224 17.5608 22.2553 17.2721 22.4169C17.119 22.5028 17.006 22.5919 16.8383 22.6559C16.6707 22.72 16.5352 22.8379 16.3713 22.8864C16.0199 22.991 15.7125 23.1361 15.3799 23.286C14.9734 23.4695 14.5862 23.7443 14.3569 24.13C14.223 24.3551 14.0902 24.5451 14.034 24.8075C13.982 25.0487 14.004 25.285 14.0083 25.5283C14.0131 25.8084 14.0784 26.1024 14.2134 26.3499C14.3044 26.5174 14.3923 26.6641 14.4501 26.8471C14.5342 27.1123 14.6595 27.3134 14.78 27.5593C14.8872 27.7775 14.9525 28.0118 15.0564 28.2342C15.1394 28.4113 15.3687 28.6936 15.6006 28.5303C15.6729 28.4796 15.7436 28.429 15.818 28.382C16.2508 28.1105 15.9326 27.0957 15.4544 27.3956L15.4549 27.3929Z" fill="white" stroke="white" stroke-width="1.37943" mask="url(#path-3-inside-1_18107_23962)"/>
<path d="M38.7403 32.9026C38.5903 33.1043 38.3718 33.2008 38.1543 33.3438C38.0558 33.4014 37.9567 33.4543 37.8565 33.5049C37.5561 33.6495 37.2449 33.7701 36.9171 33.825C36.8089 33.8496 36.704 33.8731 36.6049 33.8949C36.2096 33.983 35.9129 34.0491 35.9129 34.0491C35.6349 33.3379 34.854 33.0189 34.2622 33.2665C34.0271 33.3652 33.8332 33.5481 33.7063 33.7786C33.6425 33.8939 33.5959 34.0214 33.5686 34.1558C33.5129 34.2844 33.5643 34.5127 33.5183 34.5229C32.724 34.844 31.8226 34.9011 30.9972 35.0852C28.3846 35.6683 25.7361 36.3069 23.0994 36.8393C22.9334 36.8916 22.7684 36.9482 22.604 37.009C22.4299 37.0479 22.2564 37.0869 22.0824 37.1263C21.851 37.1786 21.6196 37.2309 21.3888 37.2832C21.2731 37.3093 21.1579 37.3355 21.0428 37.3616C20.4092 37.448 19.7831 37.8754 19.1104 37.8818C18.1067 37.9138 17.066 37.1392 16.915 36.1372L16.8084 35.663L16.3531 33.6388C16.4988 33.6527 17.4243 33.7274 18.1367 33.0451C18.2518 32.9352 18.8656 32.3472 18.7922 31.4787C18.7301 30.7425 18.2159 30.2981 18.1136 30.21C17.6771 29.8328 17.0848 29.6659 16.4613 29.7091C16.3055 29.7197 16.148 29.7437 15.99 29.7811C15.8561 29.8334 15.6724 29.8745 15.5455 29.9507C15.471 29.5117 15.3618 29.0806 15.2579 28.6501C15.2231 28.5066 15.1888 28.363 15.1572 28.2195C14.7362 27.2064 15.4684 26.18 16.3773 25.7985C16.516 25.7398 16.66 25.6886 16.8084 25.6427C17.8469 25.3237 19.09 25.2842 20.0669 25.01C23.545 23.9942 27.1517 23.7648 30.5532 22.6226C30.6047 22.8509 30.6561 23.0792 30.8923 23.1854C30.9876 23.2436 31.0963 23.2852 31.2088 23.3102C31.3213 23.3353 31.4375 23.3444 31.5484 23.338C31.6474 23.3289 31.7471 23.3092 31.844 23.2782C32.3443 23.1187 32.7186 22.685 32.8204 22.1547C33.3313 22.0405 33.8423 21.9269 34.3532 21.8127C34.4813 21.7844 34.6087 21.7556 34.7373 21.7268C34.8829 21.6713 35.0345 21.6287 35.1861 21.5982C36.9246 21.2013 38.0435 22.9651 38.2272 24.4541C38.2625 24.604 38.2941 24.7443 38.3214 24.8643L38.4114 25.265C37.5727 25.5526 37.1769 26.452 37.457 27.1429C37.6841 27.7031 38.3311 28.0659 39.0193 27.9699L39.1189 28.4127C39.3996 29.8547 40.136 31.4163 38.954 32.6695C38.8886 32.75 38.8174 32.8279 38.7403 32.9026Z" fill="#FFBF2B"/>
<mask id="path-5-inside-2_18107_23962" fill="white">
<path d="M39.3537 31.7419C39.2477 31.7584 39.148 31.7365 39.042 31.7467C38.8754 31.7627 38.7838 31.856 38.6355 31.8982C38.6205 31.9025 38.4464 31.8939 38.3821 31.8998C38.2274 31.9142 38.1304 31.9937 37.9922 32.0332C37.9156 32.055 37.8283 32.0086 37.7378 32.0118C37.583 32.0172 37.4556 32.0854 37.3152 32.1367C37.1412 32.2002 36.8177 32.3026 36.6741 32.2994L37.0046 32.5485C36.8503 32.1463 36.5901 31.8384 36.213 31.6208C35.9061 31.4436 35.3828 31.4111 35.0401 31.4703C34.6769 31.5333 34.2918 31.9355 34.1274 32.253C33.9309 32.6323 33.8371 33.0794 33.858 33.5035L34.2179 32.8516C33.8794 32.9236 33.5367 32.9359 33.2019 33.0313C33.0375 33.0783 32.8816 33.145 32.714 33.1839C32.5233 33.2287 32.3278 33.1957 32.1409 33.2661C31.9834 33.3258 31.9492 33.3653 31.7805 33.3669C31.5935 33.3685 31.4752 33.4464 31.3059 33.5008C31.1367 33.5552 30.969 33.5382 30.8057 33.5985C30.7307 33.6262 30.6702 33.6726 30.5904 33.6865C30.4672 33.7078 30.3494 33.6769 30.2219 33.7094C30.0575 33.7516 29.922 33.8055 29.7527 33.8295C29.5733 33.8551 29.4083 33.9164 29.2353 33.966C29.0993 34.005 28.9617 34.0381 28.8245 34.0743C28.628 34.1261 28.4303 34.1117 28.2359 34.164C28.0661 34.2099 27.944 34.2653 27.7668 34.2835C27.5895 34.3016 27.4009 34.3021 27.2344 34.3518C27.0999 34.3918 26.9971 34.475 26.8595 34.5033C26.6891 34.5385 26.5194 34.531 26.3496 34.5572C26.0089 34.61 25.671 34.7322 25.3384 34.8186C24.9822 34.9109 24.6105 34.9429 24.2549 35.0304C23.9523 35.1045 23.6593 35.2086 23.3492 35.2587C22.9866 35.3174 22.6171 35.3521 22.2636 35.4609C21.9652 35.5532 21.6712 35.646 21.3611 35.7031C21.1892 35.7351 21.0253 35.7175 20.8555 35.7762C20.6766 35.8381 20.5026 35.9379 20.3188 35.9843C19.9991 36.0654 19.6601 36.1193 19.3307 36.1203C19.0516 36.1209 18.734 35.9432 18.5294 35.7597C18.3993 35.6428 18.2675 35.5655 18.192 35.4012C18.1299 35.2662 18.1144 35.1088 18.0844 34.9642C18.0506 34.7994 17.9949 34.6388 17.9633 34.4745C17.9339 34.323 17.9248 34.1693 17.8749 34.021C17.8567 33.9671 17.8278 33.9159 17.8128 33.8609C17.8043 33.9095 17.8048 33.9015 17.8128 33.8375C17.815 33.7724 17.8155 33.7078 17.8144 33.6427C17.8016 33.4715 17.7475 33.2757 17.6961 33.1103C17.6446 32.9449 17.5643 32.8222 17.5241 32.6563C17.4941 32.5315 17.515 32.452 17.5107 32.2471L16.9355 32.907C17.1064 32.9385 17.2671 32.9657 17.4411 32.9412C17.6468 32.9118 17.8873 32.907 18.0833 32.8393C18.4314 32.7193 18.831 32.4285 19.0923 32.1703C19.3537 31.9121 19.6156 31.5909 19.7533 31.2345C19.8331 31.028 19.9273 30.8029 19.9488 30.5804C19.9702 30.358 19.8781 30.1659 19.8615 29.953C19.8422 29.7119 19.7731 29.515 19.652 29.307C19.553 29.1363 19.4796 28.9495 19.3489 28.8007C19.1304 28.551 18.8369 28.3536 18.568 28.1647C18.2429 27.9359 17.7491 27.922 17.3661 27.914C17.1728 27.9097 16.9409 27.906 16.7588 27.9802C16.6704 28.0164 16.5954 28.0821 16.5071 28.1167C16.3983 28.1599 16.2762 28.1754 16.1648 28.2144L16.6029 28.4411C16.5558 28.2725 16.5338 28.1418 16.5167 27.9679C16.4996 27.794 16.484 27.5886 16.416 27.42C16.3849 27.3432 16.3394 27.2802 16.3233 27.2066C16.3051 27.1228 16.3057 27.0343 16.2869 26.9494C16.251 26.7824 16.2141 26.6395 16.1975 26.4703C16.1782 26.2756 16.1 26.163 16.1171 26.0163C16.1257 25.9416 16.1584 25.852 16.1525 25.7779C16.145 25.6829 16.1493 25.7971 16.1209 25.8259C16.1686 25.7773 16.2039 25.7197 16.2452 25.6664C16.4396 25.4161 16.7068 25.2492 16.9827 25.1008C17.0684 25.055 17.2151 25.0016 17.3163 25.0016C17.4577 25.0016 17.5804 25.0486 17.7389 24.9931C17.8139 24.9669 17.8755 24.92 17.9446 24.8853C17.9799 24.8677 18.0303 24.8506 17.9778 24.8592C18.041 24.8496 18.1213 24.889 18.1888 24.8874C18.2852 24.8853 18.3875 24.8533 18.4791 24.8261C18.636 24.7802 18.7833 24.7039 18.936 24.657C19.0216 24.6308 19.1454 24.6708 19.2573 24.6554C19.4094 24.6335 19.5428 24.5647 19.6901 24.5273C19.847 24.4873 20.0071 24.466 20.1614 24.4148C20.2846 24.3737 20.3735 24.3753 20.5009 24.3694C20.675 24.3609 20.8528 24.2873 21.0189 24.236C21.1544 24.1944 21.2604 24.1283 21.3986 24.1C21.5539 24.068 21.7098 24.0386 21.8646 24.0034C22.1473 23.9389 22.4205 23.8754 22.7092 23.8455C23.0305 23.8119 23.3031 23.6817 23.6106 23.6097C23.918 23.5377 24.2083 23.5334 24.4975 23.4256C24.6325 23.3755 24.6518 23.4054 24.8017 23.4059C24.9694 23.4059 25.137 23.3398 25.2966 23.2933C25.4128 23.2597 25.5291 23.1637 25.6405 23.1514C25.7229 23.1424 25.8076 23.168 25.8938 23.1568C25.9688 23.1472 26.0438 23.1365 26.1187 23.1264C26.2928 23.1029 26.4262 23.0421 26.5788 22.9823C26.7315 22.9226 26.9114 22.9033 27.0721 22.8553C27.2328 22.8073 27.2724 22.8047 27.4315 22.8121C27.6237 22.8207 27.7807 22.7246 27.9472 22.6702C28.1138 22.6158 28.2916 22.5971 28.4571 22.5358C28.6082 22.4803 28.7265 22.5043 28.8818 22.4808C29.0527 22.4552 29.208 22.3853 29.3805 22.3698C29.5637 22.3533 29.7286 22.3064 29.9043 22.2546C30.0468 22.213 30.2026 22.1479 30.351 22.1463C30.5325 22.1442 30.7152 22.0684 30.8705 22.0684L30.592 21.9233C30.7066 22.0754 30.8276 22.2317 30.9996 22.3213C31.1436 22.396 31.3065 22.4387 31.4554 22.5059C31.6326 22.5859 31.8496 22.6393 32.0461 22.6446C32.2427 22.6499 32.4028 22.563 32.5951 22.5182C32.7729 22.4771 32.9239 22.4664 33.0782 22.3522C33.2158 22.2509 33.3449 22.1191 33.4472 21.9836C33.5495 21.8481 33.6743 21.7014 33.7643 21.5552C33.8826 21.3631 33.925 21.1497 33.9694 20.9326L33.6095 21.4506C33.6968 21.4234 33.7793 21.3765 33.8677 21.3546C33.9619 21.3311 34.0637 21.3397 34.1601 21.3237C34.3433 21.2927 34.5034 21.2004 34.6812 21.1508C35.0347 21.0521 35.4171 21.0953 35.761 20.9395C35.9324 20.8622 36.0936 20.8376 36.2821 20.8163C36.4706 20.795 36.6302 20.7565 36.808 20.7224C37.1792 20.6504 37.4299 20.8126 37.7073 21.0446C37.8353 21.1519 37.9087 21.3018 38.0286 21.4186C38.0533 21.441 38.0785 21.4634 38.1036 21.4853C38.1454 21.5226 38.1379 21.5141 38.0822 21.4597C38.0972 21.5499 38.0999 21.6411 38.1186 21.7323C38.1775 22.0241 38.244 22.3117 38.327 22.5971C38.3677 22.7374 38.3805 22.8852 38.4212 23.0261C38.4411 23.0954 38.4689 23.2112 38.5246 23.2613C38.5792 23.3648 38.5873 23.3136 38.5487 23.1082C38.5391 23.1466 38.53 23.185 38.5225 23.224C38.4496 23.6038 38.6542 23.8743 38.7372 24.2238L38.7105 23.9682L38.7094 24.0488L39.0693 23.5307C38.8299 23.6198 38.6167 23.7361 38.4389 23.9213C38.2895 24.0765 38.1042 24.1779 37.9858 24.3662C37.7282 24.7759 37.5493 25.4071 37.6553 25.8851C37.7073 26.1188 37.8037 26.345 37.9499 26.5365C38.0747 26.6997 38.2391 26.8193 38.3811 26.966C38.6703 27.2642 39.2621 27.3095 39.6584 27.2749L39.328 27.0257C39.3574 27.1292 39.3981 27.2242 39.4078 27.3314C39.4201 27.4685 39.4142 27.5923 39.4678 27.7251C39.4908 27.7822 39.5256 27.834 39.5524 27.8895C39.5578 27.9001 39.6001 27.9834 39.5808 27.9273C39.6183 28.0372 39.629 28.1786 39.6429 28.2944C39.6729 28.5451 39.779 28.7745 39.7972 29.021C39.8164 29.2867 39.8571 29.5406 39.9434 29.793C40.0178 30.0101 40.0875 30.2449 40.1351 30.4689C40.1576 30.5735 40.1512 30.6818 40.1582 30.788C40.1603 30.8162 40.1571 30.9806 40.1812 30.8648C40.2085 30.7325 40.126 30.9342 40.1121 30.9624C40.0141 31.163 39.8796 31.2911 39.7559 31.473C39.7233 31.521 39.6938 31.608 39.6515 31.6469C39.7329 31.5717 39.6868 31.5872 39.6193 31.6016C39.4903 31.6293 39.3719 31.7248 39.2444 31.7659C38.7635 31.9195 38.7587 32.9551 39.3494 32.7662C39.6226 32.6792 39.9975 32.5336 40.1887 32.3165C40.2674 32.2268 40.3156 32.1175 40.3858 32.0332C40.4827 31.9163 40.5797 31.8118 40.6579 31.6789C40.8351 31.378 41.0135 31.0473 41.0001 30.6903C40.9889 30.3852 40.9551 30.0971 40.87 29.8031C40.795 29.546 40.6879 29.2702 40.6546 29.0061C40.637 28.8679 40.6316 28.7297 40.6166 28.5915C40.5984 28.4262 40.5245 28.2912 40.4849 28.1338C40.411 27.8404 40.435 27.5293 40.2883 27.2535C40.2165 27.1185 40.2465 27.1474 40.2321 26.9852C40.216 26.8075 40.1464 26.6475 40.0987 26.4783C40.0596 26.3396 39.9187 26.2159 39.7682 26.2292C39.5449 26.2489 39.1844 26.2473 38.9831 26.1342C38.8947 26.0846 38.8149 25.9662 38.7362 25.8979C38.6392 25.8131 38.561 25.7229 38.5064 25.6055C38.4164 25.4113 38.4823 25.1249 38.5926 24.944C38.5487 25.016 38.6082 24.9419 38.6473 24.9136C38.7088 24.8688 38.7672 24.8197 38.8219 24.7669C38.9434 24.6474 39.0088 24.5935 39.1743 24.5316C39.366 24.4601 39.531 24.219 39.5342 24.0136C39.5374 23.7746 39.4844 23.5798 39.4003 23.36C39.3955 23.3478 39.3478 23.209 39.3323 23.2053C39.3066 23.3664 39.3039 23.4 39.3253 23.3056C39.3451 23.2421 39.3564 23.1776 39.3596 23.1119C39.3767 22.8703 39.2691 22.7172 39.1919 22.5064C39.2064 22.5459 39.1753 22.3784 39.1716 22.3586C39.1491 22.2455 39.1245 22.133 39.0897 22.0231C39.0007 21.7408 38.937 21.4506 38.9075 21.1572C38.8781 20.8638 38.7769 20.7459 38.5958 20.5479C38.4785 20.4199 38.388 20.2727 38.2547 20.1547C37.9488 19.8832 37.5504 19.6357 37.1299 19.6549C36.9344 19.6639 36.7582 19.7253 36.5686 19.7594C36.3683 19.7957 36.1594 19.7946 35.9586 19.8309C35.7449 19.8688 35.5692 19.9894 35.3534 20.0288C35.1493 20.0662 34.949 20.0545 34.7444 20.1051C34.5532 20.1526 34.3716 20.2497 34.1837 20.2924C34.0626 20.3201 33.9357 20.3052 33.8125 20.3377C33.7059 20.366 33.609 20.4183 33.5035 20.4508C33.2812 20.5197 33.1853 20.7667 33.1435 20.9689C33.1398 20.9859 33.128 21.0276 33.1194 21.043C33.1419 21.0003 33.1746 20.971 33.0852 21.0665C33.0155 21.1407 32.9727 21.2362 32.9089 21.3146C32.7568 21.5018 32.624 21.4757 32.4012 21.5504C32.1955 21.6192 32.0225 21.5931 31.8206 21.5093C31.6187 21.4255 31.4254 21.3759 31.2845 21.2047C31.1126 20.9966 30.9289 21.0046 30.6873 21.0745C30.5031 21.1279 30.3146 21.0996 30.1244 21.1567C29.9702 21.2031 29.8181 21.2575 29.6622 21.2996C29.4785 21.3487 29.2868 21.3418 29.1004 21.3962C28.9402 21.4432 28.8063 21.4255 28.6446 21.449C28.4496 21.4778 28.2638 21.5669 28.072 21.6133C27.9183 21.6507 27.7603 21.735 27.6189 21.7654C27.5664 21.7766 27.4904 21.7499 27.4186 21.7494C27.3013 21.7483 27.183 21.7846 27.0721 21.8198C26.928 21.8652 26.7823 21.902 26.6361 21.9404C26.4615 21.9857 26.3233 22.0684 26.1461 22.0908C25.95 22.1154 25.7374 22.0924 25.5489 22.1458C25.3721 22.1954 25.2227 22.2866 25.0422 22.3384C24.8997 22.3795 24.7642 22.3272 24.6068 22.3592C24.4209 22.3971 24.2501 22.4787 24.0632 22.5182C23.895 22.5539 23.7241 22.5528 23.5576 22.5955C23.391 22.6382 23.2164 22.7102 23.0455 22.762C22.7145 22.8623 22.3493 22.8591 22.0102 22.9455C21.6712 23.0319 21.3193 23.0831 20.9937 23.2133C20.8341 23.2768 20.6643 23.3189 20.4951 23.3211C20.2899 23.3243 20.1116 23.4075 19.9166 23.4566C19.75 23.4987 19.5846 23.5265 19.4217 23.5814C19.2589 23.6364 19.1384 23.5884 18.9649 23.6252C18.7913 23.662 18.6264 23.7489 18.4518 23.8018C18.29 23.8508 18.1904 23.8034 18.0206 23.8258C17.9001 23.8418 17.7946 23.8898 17.6918 23.9517C17.6554 23.9736 17.5916 23.9976 17.6371 23.9912C17.5831 23.9992 17.4931 23.9575 17.4277 23.9586C17.312 23.9608 17.1937 24.0034 17.0828 24.0333C16.8675 24.0909 16.7208 24.1944 16.5333 24.3027C16.3094 24.4324 16.1182 24.5577 15.9334 24.7413C15.7487 24.9248 15.5741 25.1286 15.46 25.3489C15.3459 25.5693 15.3025 25.8787 15.2854 26.1342C15.2682 26.3898 15.3577 26.6075 15.3759 26.8555C15.3941 27.1036 15.4702 27.3165 15.5023 27.5512C15.536 27.8004 15.6592 27.9871 15.6876 28.2341C15.7181 28.5009 15.7599 28.7303 15.8322 28.9901C15.8847 29.1789 16.0888 29.2808 16.2703 29.2168C16.4235 29.1629 16.5842 29.1389 16.7288 29.0648C16.8863 28.9837 16.9066 28.9709 17.0823 28.9645C17.3742 28.9543 17.7309 28.9527 18.0046 29.0706C18.1069 29.1149 18.1733 29.2003 18.2654 29.2643C18.3741 29.3395 18.4887 29.3987 18.591 29.4846C18.6864 29.5647 18.7544 29.6409 18.8133 29.7508C18.8749 29.8661 18.9911 30.0187 19.0254 30.1435C19.065 30.287 19.0447 30.4465 19.0843 30.5943L19.1068 30.6663C19.1341 30.7506 19.1379 30.7608 19.1191 30.6962C19.1539 30.5868 19.057 30.7944 19.0479 30.8205C18.9676 31.0462 18.8031 31.2575 18.6226 31.4202C18.2638 31.7435 17.7593 31.9852 17.2596 31.8929C16.8729 31.8214 16.6768 32.2263 16.6843 32.5528C16.6875 32.7123 16.6693 32.8532 16.7063 33.0164C16.7411 33.1706 16.77 33.3333 16.8359 33.4768C16.8959 33.6081 16.9339 33.7068 16.9703 33.8476C16.995 33.9431 16.9794 33.838 16.9816 33.9292C16.9843 34.0461 16.9811 34.1528 17.0057 34.268C17.033 34.3966 17.0925 34.5129 17.1187 34.6404C17.1514 34.8015 17.1728 34.9626 17.2172 35.1221C17.3003 35.4198 17.3228 35.7421 17.455 36.0232C17.6072 36.346 17.8691 36.601 18.1604 36.8059C18.297 36.9014 18.4529 36.9483 18.6017 37.0182C18.8031 37.1126 18.9531 37.1697 19.1791 37.1687C19.539 37.1665 19.8561 37.0838 20.208 37.0321C20.3911 37.0049 20.5481 36.9355 20.72 36.8742C20.7993 36.8459 20.8796 36.8021 20.9599 36.7797C21.0622 36.7515 21.1704 36.7659 21.2754 36.7493C21.6332 36.6938 21.9872 36.5898 22.3278 36.4772C22.6669 36.3652 23.0246 36.3524 23.3712 36.2798C23.7177 36.2073 24.0733 36.0771 24.4215 36.0344C24.602 36.012 24.768 35.9651 24.9442 35.9219C25.1204 35.8786 25.3068 35.8637 25.4841 35.8088C25.8322 35.701 26.1803 35.6268 26.5392 35.5863C26.7058 35.5676 26.898 35.5431 27.056 35.4881C27.1294 35.4625 27.1915 35.4092 27.2644 35.3836C27.3372 35.358 27.4106 35.3633 27.4877 35.3558C27.6618 35.3382 27.8508 35.3334 28.0201 35.287C28.1031 35.2641 28.1776 35.2155 28.26 35.1931C28.3623 35.1654 28.4711 35.1819 28.576 35.1659C28.9306 35.1125 29.2659 34.9632 29.6135 34.8847C29.8138 34.8394 30.0071 34.81 30.2058 34.753C30.4185 34.6921 30.6166 34.7316 30.833 34.6393C31.0194 34.5598 31.2218 34.578 31.412 34.5043C31.5062 34.4681 31.5694 34.4233 31.6707 34.4153C31.7821 34.4062 31.8838 34.4222 31.9952 34.3891C32.0815 34.3635 32.1522 34.3022 32.2362 34.2755C32.3107 34.252 32.3857 34.2675 32.4628 34.2621C32.6738 34.2477 32.9073 34.1757 33.106 34.1053C33.5008 33.965 33.9148 33.942 34.3234 33.8545C34.5869 33.7985 34.6946 33.4235 34.6834 33.2026C34.6753 33.041 34.7391 32.8462 34.8081 32.7016C34.7744 32.7726 34.8092 32.7032 34.8381 32.6771C34.8767 32.6419 34.9126 32.6029 34.9517 32.5683C35.054 32.4781 35.0567 32.5043 35.2002 32.5032C35.3903 32.5016 35.6356 32.5032 35.8001 32.6056C35.9982 32.7294 36.1509 32.883 36.2334 33.097C36.2907 33.2463 36.3999 33.3424 36.5638 33.3461C36.7936 33.3515 37.033 33.2351 37.2563 33.1807C37.3736 33.1525 37.4888 33.0842 37.6045 33.0634C37.6848 33.049 37.808 33.0948 37.9081 33.0815C38.0436 33.0639 38.1336 32.9919 38.2557 32.9545C38.3918 32.9129 38.5401 32.9545 38.6837 32.9145C38.7453 32.8974 38.7983 32.8734 38.8551 32.843C38.8422 32.85 38.99 32.7817 38.9327 32.7971C39.0313 32.7705 39.14 32.8041 39.2428 32.7886C39.509 32.7475 39.6836 32.508 39.7104 32.2482C39.7308 32.0502 39.621 31.7024 39.3532 31.7435L39.3537 31.7419Z"/>
</mask>
<path d="M39.3537 31.7419C39.2477 31.7584 39.148 31.7365 39.042 31.7467C38.8754 31.7627 38.7838 31.856 38.6355 31.8982C38.6205 31.9025 38.4464 31.8939 38.3821 31.8998C38.2274 31.9142 38.1304 31.9937 37.9922 32.0332C37.9156 32.055 37.8283 32.0086 37.7378 32.0118C37.583 32.0172 37.4556 32.0854 37.3152 32.1367C37.1412 32.2002 36.8177 32.3026 36.6741 32.2994L37.0046 32.5485C36.8503 32.1463 36.5901 31.8384 36.213 31.6208C35.9061 31.4436 35.3828 31.4111 35.0401 31.4703C34.6769 31.5333 34.2918 31.9355 34.1274 32.253C33.9309 32.6323 33.8371 33.0794 33.858 33.5035L34.2179 32.8516C33.8794 32.9236 33.5367 32.9359 33.2019 33.0313C33.0375 33.0783 32.8816 33.145 32.714 33.1839C32.5233 33.2287 32.3278 33.1957 32.1409 33.2661C31.9834 33.3258 31.9492 33.3653 31.7805 33.3669C31.5935 33.3685 31.4752 33.4464 31.3059 33.5008C31.1367 33.5552 30.969 33.5382 30.8057 33.5985C30.7307 33.6262 30.6702 33.6726 30.5904 33.6865C30.4672 33.7078 30.3494 33.6769 30.2219 33.7094C30.0575 33.7516 29.922 33.8055 29.7527 33.8295C29.5733 33.8551 29.4083 33.9164 29.2353 33.966C29.0993 34.005 28.9617 34.0381 28.8245 34.0743C28.628 34.1261 28.4303 34.1117 28.2359 34.164C28.0661 34.2099 27.944 34.2653 27.7668 34.2835C27.5895 34.3016 27.4009 34.3021 27.2344 34.3518C27.0999 34.3918 26.9971 34.475 26.8595 34.5033C26.6891 34.5385 26.5194 34.531 26.3496 34.5572C26.0089 34.61 25.671 34.7322 25.3384 34.8186C24.9822 34.9109 24.6105 34.9429 24.2549 35.0304C23.9523 35.1045 23.6593 35.2086 23.3492 35.2587C22.9866 35.3174 22.6171 35.3521 22.2636 35.4609C21.9652 35.5532 21.6712 35.646 21.3611 35.7031C21.1892 35.7351 21.0253 35.7175 20.8555 35.7762C20.6766 35.8381 20.5026 35.9379 20.3188 35.9843C19.9991 36.0654 19.6601 36.1193 19.3307 36.1203C19.0516 36.1209 18.734 35.9432 18.5294 35.7597C18.3993 35.6428 18.2675 35.5655 18.192 35.4012C18.1299 35.2662 18.1144 35.1088 18.0844 34.9642C18.0506 34.7994 17.9949 34.6388 17.9633 34.4745C17.9339 34.323 17.9248 34.1693 17.8749 34.021C17.8567 33.9671 17.8278 33.9159 17.8128 33.8609C17.8043 33.9095 17.8048 33.9015 17.8128 33.8375C17.815 33.7724 17.8155 33.7078 17.8144 33.6427C17.8016 33.4715 17.7475 33.2757 17.6961 33.1103C17.6446 32.9449 17.5643 32.8222 17.5241 32.6563C17.4941 32.5315 17.515 32.452 17.5107 32.2471L16.9355 32.907C17.1064 32.9385 17.2671 32.9657 17.4411 32.9412C17.6468 32.9118 17.8873 32.907 18.0833 32.8393C18.4314 32.7193 18.831 32.4285 19.0923 32.1703C19.3537 31.9121 19.6156 31.5909 19.7533 31.2345C19.8331 31.028 19.9273 30.8029 19.9488 30.5804C19.9702 30.358 19.8781 30.1659 19.8615 29.953C19.8422 29.7119 19.7731 29.515 19.652 29.307C19.553 29.1363 19.4796 28.9495 19.3489 28.8007C19.1304 28.551 18.8369 28.3536 18.568 28.1647C18.2429 27.9359 17.7491 27.922 17.3661 27.914C17.1728 27.9097 16.9409 27.906 16.7588 27.9802C16.6704 28.0164 16.5954 28.0821 16.5071 28.1167C16.3983 28.1599 16.2762 28.1754 16.1648 28.2144L16.6029 28.4411C16.5558 28.2725 16.5338 28.1418 16.5167 27.9679C16.4996 27.794 16.484 27.5886 16.416 27.42C16.3849 27.3432 16.3394 27.2802 16.3233 27.2066C16.3051 27.1228 16.3057 27.0343 16.2869 26.9494C16.251 26.7824 16.2141 26.6395 16.1975 26.4703C16.1782 26.2756 16.1 26.163 16.1171 26.0163C16.1257 25.9416 16.1584 25.852 16.1525 25.7779C16.145 25.6829 16.1493 25.7971 16.1209 25.8259C16.1686 25.7773 16.2039 25.7197 16.2452 25.6664C16.4396 25.4161 16.7068 25.2492 16.9827 25.1008C17.0684 25.055 17.2151 25.0016 17.3163 25.0016C17.4577 25.0016 17.5804 25.0486 17.7389 24.9931C17.8139 24.9669 17.8755 24.92 17.9446 24.8853C17.9799 24.8677 18.0303 24.8506 17.9778 24.8592C18.041 24.8496 18.1213 24.889 18.1888 24.8874C18.2852 24.8853 18.3875 24.8533 18.4791 24.8261C18.636 24.7802 18.7833 24.7039 18.936 24.657C19.0216 24.6308 19.1454 24.6708 19.2573 24.6554C19.4094 24.6335 19.5428 24.5647 19.6901 24.5273C19.847 24.4873 20.0071 24.466 20.1614 24.4148C20.2846 24.3737 20.3735 24.3753 20.5009 24.3694C20.675 24.3609 20.8528 24.2873 21.0189 24.236C21.1544 24.1944 21.2604 24.1283 21.3986 24.1C21.5539 24.068 21.7098 24.0386 21.8646 24.0034C22.1473 23.9389 22.4205 23.8754 22.7092 23.8455C23.0305 23.8119 23.3031 23.6817 23.6106 23.6097C23.918 23.5377 24.2083 23.5334 24.4975 23.4256C24.6325 23.3755 24.6518 23.4054 24.8017 23.4059C24.9694 23.4059 25.137 23.3398 25.2966 23.2933C25.4128 23.2597 25.5291 23.1637 25.6405 23.1514C25.7229 23.1424 25.8076 23.168 25.8938 23.1568C25.9688 23.1472 26.0438 23.1365 26.1187 23.1264C26.2928 23.1029 26.4262 23.0421 26.5788 22.9823C26.7315 22.9226 26.9114 22.9033 27.0721 22.8553C27.2328 22.8073 27.2724 22.8047 27.4315 22.8121C27.6237 22.8207 27.7807 22.7246 27.9472 22.6702C28.1138 22.6158 28.2916 22.5971 28.4571 22.5358C28.6082 22.4803 28.7265 22.5043 28.8818 22.4808C29.0527 22.4552 29.208 22.3853 29.3805 22.3698C29.5637 22.3533 29.7286 22.3064 29.9043 22.2546C30.0468 22.213 30.2026 22.1479 30.351 22.1463C30.5325 22.1442 30.7152 22.0684 30.8705 22.0684L30.592 21.9233C30.7066 22.0754 30.8276 22.2317 30.9996 22.3213C31.1436 22.396 31.3065 22.4387 31.4554 22.5059C31.6326 22.5859 31.8496 22.6393 32.0461 22.6446C32.2427 22.6499 32.4028 22.563 32.5951 22.5182C32.7729 22.4771 32.9239 22.4664 33.0782 22.3522C33.2158 22.2509 33.3449 22.1191 33.4472 21.9836C33.5495 21.8481 33.6743 21.7014 33.7643 21.5552C33.8826 21.3631 33.925 21.1497 33.9694 20.9326L33.6095 21.4506C33.6968 21.4234 33.7793 21.3765 33.8677 21.3546C33.9619 21.3311 34.0637 21.3397 34.1601 21.3237C34.3433 21.2927 34.5034 21.2004 34.6812 21.1508C35.0347 21.0521 35.4171 21.0953 35.761 20.9395C35.9324 20.8622 36.0936 20.8376 36.2821 20.8163C36.4706 20.795 36.6302 20.7565 36.808 20.7224C37.1792 20.6504 37.4299 20.8126 37.7073 21.0446C37.8353 21.1519 37.9087 21.3018 38.0286 21.4186C38.0533 21.441 38.0785 21.4634 38.1036 21.4853C38.1454 21.5226 38.1379 21.5141 38.0822 21.4597C38.0972 21.5499 38.0999 21.6411 38.1186 21.7323C38.1775 22.0241 38.244 22.3117 38.327 22.5971C38.3677 22.7374 38.3805 22.8852 38.4212 23.0261C38.4411 23.0954 38.4689 23.2112 38.5246 23.2613C38.5792 23.3648 38.5873 23.3136 38.5487 23.1082C38.5391 23.1466 38.53 23.185 38.5225 23.224C38.4496 23.6038 38.6542 23.8743 38.7372 24.2238L38.7105 23.9682L38.7094 24.0488L39.0693 23.5307C38.8299 23.6198 38.6167 23.7361 38.4389 23.9213C38.2895 24.0765 38.1042 24.1779 37.9858 24.3662C37.7282 24.7759 37.5493 25.4071 37.6553 25.8851C37.7073 26.1188 37.8037 26.345 37.9499 26.5365C38.0747 26.6997 38.2391 26.8193 38.3811 26.966C38.6703 27.2642 39.2621 27.3095 39.6584 27.2749L39.328 27.0257C39.3574 27.1292 39.3981 27.2242 39.4078 27.3314C39.4201 27.4685 39.4142 27.5923 39.4678 27.7251C39.4908 27.7822 39.5256 27.834 39.5524 27.8895C39.5578 27.9001 39.6001 27.9834 39.5808 27.9273C39.6183 28.0372 39.629 28.1786 39.6429 28.2944C39.6729 28.5451 39.779 28.7745 39.7972 29.021C39.8164 29.2867 39.8571 29.5406 39.9434 29.793C40.0178 30.0101 40.0875 30.2449 40.1351 30.4689C40.1576 30.5735 40.1512 30.6818 40.1582 30.788C40.1603 30.8162 40.1571 30.9806 40.1812 30.8648C40.2085 30.7325 40.126 30.9342 40.1121 30.9624C40.0141 31.163 39.8796 31.2911 39.7559 31.473C39.7233 31.521 39.6938 31.608 39.6515 31.6469C39.7329 31.5717 39.6868 31.5872 39.6193 31.6016C39.4903 31.6293 39.3719 31.7248 39.2444 31.7659C38.7635 31.9195 38.7587 32.9551 39.3494 32.7662C39.6226 32.6792 39.9975 32.5336 40.1887 32.3165C40.2674 32.2268 40.3156 32.1175 40.3858 32.0332C40.4827 31.9163 40.5797 31.8118 40.6579 31.6789C40.8351 31.378 41.0135 31.0473 41.0001 30.6903C40.9889 30.3852 40.9551 30.0971 40.87 29.8031C40.795 29.546 40.6879 29.2702 40.6546 29.0061C40.637 28.8679 40.6316 28.7297 40.6166 28.5915C40.5984 28.4262 40.5245 28.2912 40.4849 28.1338C40.411 27.8404 40.435 27.5293 40.2883 27.2535C40.2165 27.1185 40.2465 27.1474 40.2321 26.9852C40.216 26.8075 40.1464 26.6475 40.0987 26.4783C40.0596 26.3396 39.9187 26.2159 39.7682 26.2292C39.5449 26.2489 39.1844 26.2473 38.9831 26.1342C38.8947 26.0846 38.8149 25.9662 38.7362 25.8979C38.6392 25.8131 38.561 25.7229 38.5064 25.6055C38.4164 25.4113 38.4823 25.1249 38.5926 24.944C38.5487 25.016 38.6082 24.9419 38.6473 24.9136C38.7088 24.8688 38.7672 24.8197 38.8219 24.7669C38.9434 24.6474 39.0088 24.5935 39.1743 24.5316C39.366 24.4601 39.531 24.219 39.5342 24.0136C39.5374 23.7746 39.4844 23.5798 39.4003 23.36C39.3955 23.3478 39.3478 23.209 39.3323 23.2053C39.3066 23.3664 39.3039 23.4 39.3253 23.3056C39.3451 23.2421 39.3564 23.1776 39.3596 23.1119C39.3767 22.8703 39.2691 22.7172 39.1919 22.5064C39.2064 22.5459 39.1753 22.3784 39.1716 22.3586C39.1491 22.2455 39.1245 22.133 39.0897 22.0231C39.0007 21.7408 38.937 21.4506 38.9075 21.1572C38.8781 20.8638 38.7769 20.7459 38.5958 20.5479C38.4785 20.4199 38.388 20.2727 38.2547 20.1547C37.9488 19.8832 37.5504 19.6357 37.1299 19.6549C36.9344 19.6639 36.7582 19.7253 36.5686 19.7594C36.3683 19.7957 36.1594 19.7946 35.9586 19.8309C35.7449 19.8688 35.5692 19.9894 35.3534 20.0288C35.1493 20.0662 34.949 20.0545 34.7444 20.1051C34.5532 20.1526 34.3716 20.2497 34.1837 20.2924C34.0626 20.3201 33.9357 20.3052 33.8125 20.3377C33.7059 20.366 33.609 20.4183 33.5035 20.4508C33.2812 20.5197 33.1853 20.7667 33.1435 20.9689C33.1398 20.9859 33.128 21.0276 33.1194 21.043C33.1419 21.0003 33.1746 20.971 33.0852 21.0665C33.0155 21.1407 32.9727 21.2362 32.9089 21.3146C32.7568 21.5018 32.624 21.4757 32.4012 21.5504C32.1955 21.6192 32.0225 21.5931 31.8206 21.5093C31.6187 21.4255 31.4254 21.3759 31.2845 21.2047C31.1126 20.9966 30.9289 21.0046 30.6873 21.0745C30.5031 21.1279 30.3146 21.0996 30.1244 21.1567C29.9702 21.2031 29.8181 21.2575 29.6622 21.2996C29.4785 21.3487 29.2868 21.3418 29.1004 21.3962C28.9402 21.4432 28.8063 21.4255 28.6446 21.449C28.4496 21.4778 28.2638 21.5669 28.072 21.6133C27.9183 21.6507 27.7603 21.735 27.6189 21.7654C27.5664 21.7766 27.4904 21.7499 27.4186 21.7494C27.3013 21.7483 27.183 21.7846 27.0721 21.8198C26.928 21.8652 26.7823 21.902 26.6361 21.9404C26.4615 21.9857 26.3233 22.0684 26.1461 22.0908C25.95 22.1154 25.7374 22.0924 25.5489 22.1458C25.3721 22.1954 25.2227 22.2866 25.0422 22.3384C24.8997 22.3795 24.7642 22.3272 24.6068 22.3592C24.4209 22.3971 24.2501 22.4787 24.0632 22.5182C23.895 22.5539 23.7241 22.5528 23.5576 22.5955C23.391 22.6382 23.2164 22.7102 23.0455 22.762C22.7145 22.8623 22.3493 22.8591 22.0102 22.9455C21.6712 23.0319 21.3193 23.0831 20.9937 23.2133C20.8341 23.2768 20.6643 23.3189 20.4951 23.3211C20.2899 23.3243 20.1116 23.4075 19.9166 23.4566C19.75 23.4987 19.5846 23.5265 19.4217 23.5814C19.2589 23.6364 19.1384 23.5884 18.9649 23.6252C18.7913 23.662 18.6264 23.7489 18.4518 23.8018C18.29 23.8508 18.1904 23.8034 18.0206 23.8258C17.9001 23.8418 17.7946 23.8898 17.6918 23.9517C17.6554 23.9736 17.5916 23.9976 17.6371 23.9912C17.5831 23.9992 17.4931 23.9575 17.4277 23.9586C17.312 23.9608 17.1937 24.0034 17.0828 24.0333C16.8675 24.0909 16.7208 24.1944 16.5333 24.3027C16.3094 24.4324 16.1182 24.5577 15.9334 24.7413C15.7487 24.9248 15.5741 25.1286 15.46 25.3489C15.3459 25.5693 15.3025 25.8787 15.2854 26.1342C15.2682 26.3898 15.3577 26.6075 15.3759 26.8555C15.3941 27.1036 15.4702 27.3165 15.5023 27.5512C15.536 27.8004 15.6592 27.9871 15.6876 28.2341C15.7181 28.5009 15.7599 28.7303 15.8322 28.9901C15.8847 29.1789 16.0888 29.2808 16.2703 29.2168C16.4235 29.1629 16.5842 29.1389 16.7288 29.0648C16.8863 28.9837 16.9066 28.9709 17.0823 28.9645C17.3742 28.9543 17.7309 28.9527 18.0046 29.0706C18.1069 29.1149 18.1733 29.2003 18.2654 29.2643C18.3741 29.3395 18.4887 29.3987 18.591 29.4846C18.6864 29.5647 18.7544 29.6409 18.8133 29.7508C18.8749 29.8661 18.9911 30.0187 19.0254 30.1435C19.065 30.287 19.0447 30.4465 19.0843 30.5943L19.1068 30.6663C19.1341 30.7506 19.1379 30.7608 19.1191 30.6962C19.1539 30.5868 19.057 30.7944 19.0479 30.8205C18.9676 31.0462 18.8031 31.2575 18.6226 31.4202C18.2638 31.7435 17.7593 31.9852 17.2596 31.8929C16.8729 31.8214 16.6768 32.2263 16.6843 32.5528C16.6875 32.7123 16.6693 32.8532 16.7063 33.0164C16.7411 33.1706 16.77 33.3333 16.8359 33.4768C16.8959 33.6081 16.9339 33.7068 16.9703 33.8476C16.995 33.9431 16.9794 33.838 16.9816 33.9292C16.9843 34.0461 16.9811 34.1528 17.0057 34.268C17.033 34.3966 17.0925 34.5129 17.1187 34.6404C17.1514 34.8015 17.1728 34.9626 17.2172 35.1221C17.3003 35.4198 17.3228 35.7421 17.455 36.0232C17.6072 36.346 17.8691 36.601 18.1604 36.8059C18.297 36.9014 18.4529 36.9483 18.6017 37.0182C18.8031 37.1126 18.9531 37.1697 19.1791 37.1687C19.539 37.1665 19.8561 37.0838 20.208 37.0321C20.3911 37.0049 20.5481 36.9355 20.72 36.8742C20.7993 36.8459 20.8796 36.8021 20.9599 36.7797C21.0622 36.7515 21.1704 36.7659 21.2754 36.7493C21.6332 36.6938 21.9872 36.5898 22.3278 36.4772C22.6669 36.3652 23.0246 36.3524 23.3712 36.2798C23.7177 36.2073 24.0733 36.0771 24.4215 36.0344C24.602 36.012 24.768 35.9651 24.9442 35.9219C25.1204 35.8786 25.3068 35.8637 25.4841 35.8088C25.8322 35.701 26.1803 35.6268 26.5392 35.5863C26.7058 35.5676 26.898 35.5431 27.056 35.4881C27.1294 35.4625 27.1915 35.4092 27.2644 35.3836C27.3372 35.358 27.4106 35.3633 27.4877 35.3558C27.6618 35.3382 27.8508 35.3334 28.0201 35.287C28.1031 35.2641 28.1776 35.2155 28.26 35.1931C28.3623 35.1654 28.4711 35.1819 28.576 35.1659C28.9306 35.1125 29.2659 34.9632 29.6135 34.8847C29.8138 34.8394 30.0071 34.81 30.2058 34.753C30.4185 34.6921 30.6166 34.7316 30.833 34.6393C31.0194 34.5598 31.2218 34.578 31.412 34.5043C31.5062 34.4681 31.5694 34.4233 31.6707 34.4153C31.7821 34.4062 31.8838 34.4222 31.9952 34.3891C32.0815 34.3635 32.1522 34.3022 32.2362 34.2755C32.3107 34.252 32.3857 34.2675 32.4628 34.2621C32.6738 34.2477 32.9073 34.1757 33.106 34.1053C33.5008 33.965 33.9148 33.942 34.3234 33.8545C34.5869 33.7985 34.6946 33.4235 34.6834 33.2026C34.6753 33.041 34.7391 32.8462 34.8081 32.7016C34.7744 32.7726 34.8092 32.7032 34.8381 32.6771C34.8767 32.6419 34.9126 32.6029 34.9517 32.5683C35.054 32.4781 35.0567 32.5043 35.2002 32.5032C35.3903 32.5016 35.6356 32.5032 35.8001 32.6056C35.9982 32.7294 36.1509 32.883 36.2334 33.097C36.2907 33.2463 36.3999 33.3424 36.5638 33.3461C36.7936 33.3515 37.033 33.2351 37.2563 33.1807C37.3736 33.1525 37.4888 33.0842 37.6045 33.0634C37.6848 33.049 37.808 33.0948 37.9081 33.0815C38.0436 33.0639 38.1336 32.9919 38.2557 32.9545C38.3918 32.9129 38.5401 32.9545 38.6837 32.9145C38.7453 32.8974 38.7983 32.8734 38.8551 32.843C38.8422 32.85 38.99 32.7817 38.9327 32.7971C39.0313 32.7705 39.14 32.8041 39.2428 32.7886C39.509 32.7475 39.6836 32.508 39.7104 32.2482C39.7308 32.0502 39.621 31.7024 39.3532 31.7435L39.3537 31.7419Z" fill="white" stroke="white" stroke-width="1.37943" mask="url(#path-5-inside-2_18107_23962)"/>
<path d="M20.75 25.3848L22.3077 34.7309" stroke="#5A394F" stroke-miterlimit="10" stroke-dasharray="3 3"/>
<defs>
<filter id="filter0_i_18107_23962" x="3" y="3" width="48" height="49" filterUnits="userSpaceOnUse" color-interpolation-filters="sRGB">
<feFlood flood-opacity="0" result="BackgroundImageFix"/>
<feBlend mode="normal" in="SourceGraphic" in2="BackgroundImageFix" result="shape"/>
<feColorMatrix in="SourceAlpha" type="matrix" values="0 0 0 0 0 0 0 0 0 0 0 0 0 0 0 0 0 0 127 0" result="hardAlpha"/>
<feOffset dy="1.5"/>
<feGaussianBlur stdDeviation="0.5"/>
<feComposite in2="hardAlpha" operator="arithmetic" k2="-1" k3="1"/>
<feColorMatrix type="matrix" values="0 0 0 0 0.469786 0 0 0 0 0.351917 0 0 0 0 0.686667 0 0 0 0.33 0"/>
<feBlend mode="normal" in2="shape" result="effect1_innerShadow_18107_23962"/>
</filter>
<filter id="filter1_f_18107_23962" x="0" y="0" width="54" height="54" filterUnits="userSpaceOnUse" color-interpolation-filters="sRGB">
<feFlood flood-opacity="0" result="BackgroundImageFix"/>
<feBlend mode="normal" in="SourceGraphic" in2="BackgroundImageFix" result="shape"/>
<feGaussianBlur stdDeviation="8" result="effect1_foregroundBlur_18107_23962"/>
</filter>
<linearGradient id="paint0_linear_18107_23962" x1="11" y1="7.5" x2="41.07" y2="51.967" gradientUnits="userSpaceOnUse">
<stop stop-color="#29204A"/>
<stop offset="1" stop-color="#251F40"/>
</linearGradient>
</defs>
</svg>
